<svg id="Layer_1" data-name="Layer 1" xmlns="http://www.w3.org/2000/svg" viewBox="0 0 1607.32 676.67"><defs><style>.cls-1{fill:#486b7a;}.cls-2{fill:#567382;}.cls-3{font-size:42.84px;font-family:Montserrat-ExtraBoldItalic, Montserrat;font-weight:800;font-style:italic;}.cls-4{fill:#456978;}.cls-5{fill:#527081;}.cls-6{fill:#456878;}.cls-7{fill:#f0932b;}.cls-8{fill:#ee8914;}.cls-9{fill:#537181;}.cls-10{fill:#0d0b0b;}.cls-11{fill:#0e0c0c;}.cls-12{fill:#110f0f;}.cls-13{fill:#100e0e;}.cls-14{fill:#0c0a0a;}.cls-15{fill:#151313;}.cls-16{fill:#1b1919;}.cls-17{fill:#232121;}.cls-18{fill:#f1f0f0;}.cls-19{fill:#fdfdfd;}.cls-20{fill:#8c3e8a;}.cls-21{fill:#912b8d;}.cls-22{fill:#100f0f;}.cls-23{fill:#1a1919;}.cls-24{fill:#1e1d1c;}.cls-25{fill:#373332;}.cls-26{fill:#282424;}.cls-27{fill:#312d2d;}.cls-28{fill:#8a8585;}.cls-29{fill:#fff;}.cls-30{fill:#466979;}.cls-31{fill:#537281;}.cls-32{fill:#1c1b1a;}.cls-33{fill:#f4f3f4;}.cls-34{fill:#323030;}.cls-35{fill:#eae9e9;}.cls-36{fill:#e2e0e0;}.cls-37{fill:#fdd142;}.cls-38{fill:#fdd353;}.cls-39{fill:#577382;}.cls-40{fill:#85c441;}.cls-41{fill:#9ecd62;}.cls-42{fill:#1c1a1a;}.cls-43{fill:#252423;}.cls-44{fill:#171515;}.cls-45{fill:#201f1e;}.cls-46{fill:#2b2929;}.cls-47{fill:#343232;}.cls-48{fill:#403e3e;}.cls-49{fill:#3a3838;}.cls-50{fill:#514e4e;}.cls-51{fill:#080707;}.cls-52{fill:#0b0a09;}.cls-53{fill:#527080;}.cls-54{fill:#131312;}.cls-55{fill:#242322;}.cls-56{fill:#fcfcfc;}.cls-57{fill:#446878;}.cls-58{fill:#499fbc;}.cls-59{fill:#3399b8;}.cls-60{fill:#0e0d0c;}.cls-61{fill:#0d0c0b;}.cls-62{fill:#151514;}</style></defs><title>LOGO LEAVE</title><path class="cls-1" d="M985.9,201.67c8.66.38,12.31,5.51,14.75,11.93q13.9,36.65,27.76,73.32c2.83,7.5,5.6,15,8.56,22.46,1.16,2.9.79,4.37-2.41,5.58q-47.64,18-95.16,36.3c-3.69,1.41-6,.69-7.5-3.35Q912,294.59,891.7,241.37c-1.24-3.28-.45-4.89,2.75-6.09,28.76-10.79,57.47-21.69,86.23-32.49A29.92,29.92,0,0,1,985.9,201.67Z" transform="translate(-156.34 -201.67)"/><path class="cls-2" d="M929.37,385.89Q947.6,433.44,965.88,481c1.62,4.18.61,6.18-3.55,7.74-27.69,10.34-55.28,20.94-83,31.31-10.74,4-17.85.77-21.88-9.81-12.06-31.73-24-63.5-36.08-95.23-1.16-3.06-1.59-5.22,2.33-6.68,25.72-9.6,51.39-19.36,77.08-29a10.35,10.35,0,0,1,2.26-.31C911.83,381.27,920,385.81,929.37,385.89Z" transform="translate(-156.34 -201.67)"/><path class="cls-1" d="M781.61,308c-1.55-3.45-3.3-6.84-4.61-10.38-3.84-10.4-.73-17.35,9.68-21.34,21.51-8.25,43.07-16.36,64.62-24.53,6.41-2.43,12.87-4.73,19.21-7.34,3.6-1.49,5.59-.76,7,3q20,53.21,40.22,106.34c1.35,3.55.82,5.62-3,6.94-10.27,3.53-20.45,7.32-30.66,11-1.55-3.47-5.25-2.59-7.88-3.86-28.34-13.71-55.37-29.48-80.06-49.2C791.46,314.87,788.32,308.86,781.61,308Z" transform="translate(-156.34 -201.67)"/><path class="cls-2" d="M940.13,364.12c.53-2.43,2.87-2.28,4.49-2.89,31.36-11.93,62.79-23.69,94.12-35.71,3.88-1.49,5.06-.5,6.42,3q18.73,48.56,37.82,97c1.91,4.84,1.94,9.22-1.7,13.24-16.52-8.65-33.07-17.24-49.54-26-12.59-6.68-25-13.63-37.64-20.31C976.15,383,958.13,373.57,940.13,364.12Z" transform="translate(-156.34 -201.67)"/><path class="cls-1" d="M940.13,364.12c18,9.45,36,18.83,54,28.36,12.6,6.68,25,13.63,37.64,20.31,16.47,8.73,33,17.32,49.54,26-1.55,3.13-4.37,4.66-7.46,5.8Q1031.4,460.12,989,475.7c-2.75,1-4.31,1.31-5.64-2.05q-21.45-54.25-43.16-108.4A3.81,3.81,0,0,1,940.13,364.12Z" transform="translate(-156.34 -201.67)"/><path class="cls-2" d="M781.61,308c6.71.91,9.85,6.92,14.47,10.61,24.69,19.72,51.72,35.49,80.06,49.2,2.63,1.27,6.33.39,7.88,3.86q-32.52,12.45-65,24.93c-2.46.95-4.08,1.29-5.26-1.9-10.59-28.56-21.33-57-32-85.57A4.17,4.17,0,0,1,781.61,308Z" transform="translate(-156.34 -201.67)"/><path class="cls-1" d="M929.37,385.89c-9.36-.08-17.54-4.62-26.29-7,5.42-3.62,11.9-4.73,17.73-7.38,2.29-1,3.56-.2,4.3,2C926.5,377.68,928,381.78,929.37,385.89Z" transform="translate(-156.34 -201.67)"/><text class="cls-3" transform="translate(487.21 379.98)">LEAVE MANAGEMENT</text><path class="cls-4" d="M1687,689.91a5.74,5.74,0,0,1,6,4q7.45,19.64,14.93,39.29c.41,1.08.15,1.45-.86,1.83q-19.48,7.35-38.92,14.82c-1.46.56-1.67-.24-2-1.21q-6.37-16.89-12.76-33.79c-1.21-3.2-2.36-6.42-3.65-9.59-.4-1-.22-1.37.74-1.73,11.64-4.37,23.26-8.79,34.89-13.17A10.18,10.18,0,0,1,1687,689.91Z" transform="translate(-156.34 -201.67)"/><path class="cls-5" d="M1664.93,763.89q4.53,11.77,9,23.54c1.88,4.91,3.68,9.85,5.6,14.75.47,1.18.31,1.67-.93,2.13-11.38,4.27-22.73,8.63-34.12,12.9-4,1.49-6.84.09-8.31-3.8q-7.32-19.38-14.66-38.73c-.3-.79-.78-1.43.54-1.92,10.59-4,21.15-8,31.72-12a1.3,1.3,0,0,1,.4,0c2,.62,4,1.34,6.12,1.83C1661.9,762.93,1663.25,764,1664.93,763.89Z" transform="translate(-156.34 -201.67)"/><path class="cls-6" d="M1605.6,732.24c-.65-1.58-1.38-3.14-1.92-4.75a5.69,5.69,0,0,1,3.63-7.63c11.43-4.36,22.89-8.65,34.31-13,1.35-.52,1.78-.23,2.26,1.06q8.05,21.43,16.24,42.83c.54,1.43.35,2-1.15,2.55-4.11,1.4-8.16,3-12.22,4.48-.79-.88-2-.92-3-1.36a151.22,151.22,0,0,1-14-7.23,153.54,153.54,0,0,1-19.53-13.46C1608.79,734.48,1607.57,732.83,1605.6,732.24Z" transform="translate(-156.34 -201.67)"/><path class="cls-7" d="M1720.37,765.46c2.14,4.86,4,9.84,5.65,14.87,1,2.87-.92,5.73-4.14,6.84q-14,4.82-27.94,9.6c-1.8.61-3.64,1.12-5.38,1.89-1.34.59-1.93.34-2.46-1-2.68-6.92-5.49-13.78-8.18-20.69-1.36-3.48-3.05-6.83-4-10.47.58-1,1.39-.33,2.07-.22a128.12,128.12,0,0,0,19.27,1.6C1703.72,767.92,1712.05,766.77,1720.37,765.46Z" transform="translate(-156.34 -201.67)"/><path class="cls-8" d="M1720.37,765.46c-8.32,1.31-16.65,2.46-25.1,2.4a128.12,128.12,0,0,1-19.27-1.6c-.68-.11-1.49-.78-2.07.22-1.88-3.55-3-7.4-4.63-11.07-.44-1,.33-1.16,1-1.43q11.91-4.5,23.79-9c5-1.89,10-3.74,14.94-5.64.74-.28,1.32-.55,1.71.49Q1715.55,752.63,1720.37,765.46Z" transform="translate(-156.34 -201.67)"/><path class="cls-9" d="M1605.6,732.24c2,.59,3.19,2.24,4.69,3.45a153.54,153.54,0,0,0,19.53,13.46,151.22,151.22,0,0,0,14,7.23c1,.44,2.17.48,3,1.36-8.91,3.39-17.83,6.75-26.72,10.18-1.2.47-1.18-.41-1.4-1q-3.95-10.34-7.83-20.67C1609.05,741.6,1607.33,736.92,1605.6,732.24Z" transform="translate(-156.34 -201.67)"/><path class="cls-10" d="M1642.31,844.81c0-2.9,0-5.79,0-8.69,0-1,.15-1.51,1.38-1.47,3,.1,6,0,9.07,0s5,1.26,5.88,3.73c1,2.68.38,4.87-2.06,7-.47.41-.68.57-.2,1.17,1.77,2.2,2.2,5,3.25,7.54.25.58.26.9-.56,1-2.6.41-3.25.07-4.11-2.41-.2-.56-.44-1.1-.63-1.66-1.33-3.84-3.51-5-7.42-4.13-.83.19-.64.69-.64,1.17,0,1.84-.13,3.69,0,5.52s-1.15,1.41-2.16,1.5-1.95.11-1.83-1.43,0-3,0-4.54Zm7.45-6.84c-3.6.1-3.6.1-3.54,3.73,0,.26,0,.52,0,.79,0,.56.25.89.81.86,2-.12,4.06.24,6.07-.21a2.3,2.3,0,0,0,1.93-2.58,2.18,2.18,0,0,0-2-2.32A33.26,33.26,0,0,0,1649.76,838Z" transform="translate(-156.34 -201.67)"/><path class="cls-11" d="M1681.66,855c-1.86.56-2.47-.27-3-1.75-1.41-4-1.49-3.82-5.69-4-2.21-.11-3.49.44-3.84,2.69a8.56,8.56,0,0,1-.53,1.49,3.55,3.55,0,0,1-4.23,1.72c-.56-.28-.29-.66-.16-1q3.58-9.37,7.2-18.76c.49-1.25,1.59-.58,2.41-.67s1.53-.28,2,.78c2.5,6.22,5.16,12.37,7.51,18.64C1684,856,1681.93,854.48,1681.66,855Zm-8.1-15.31c-.41,1.13-.64,1.79-.88,2.44-1.51,4.1-1.52,4.1,3.06,3.73a5.47,5.47,0,0,0-.19-.93C1675,843.33,1674.36,841.76,1673.56,839.67Z" transform="translate(-156.34 -201.67)"/><path class="cls-11" d="M1600,855.11a24.18,24.18,0,0,0-3.1,0c-1,.14-1.41-.29-1.72-1.15-.55-1.54-.79-3.54-1.9-4.42s-3.31-.13-5-.33a2,2,0,0,0-2.59,1.87,7.83,7.83,0,0,1-.39,1.12c-1.22,3.28-1.23,3.29-5.13,2.69,2.5-6.5,5-13,7.46-19.46.43-1.14,1.25-.8,1.94-.76.87,0,2-.54,2.5.85C1594.67,842,1597.32,848.42,1600,855.11Zm-10.17-15.35c-.4,1-.71,1.73-1,2.47-1.42,4-1.42,4,3.27,3.57Z" transform="translate(-156.34 -201.67)"/><path class="cls-12" d="M1727.16,855c-1.74.6-1.87-.64-2.24-1.6-1.74-4.46-1.74-4.46-6.51-4.46-3.66,0-3.65,0-5,3.54-.5,1.35-.61,3.08-2.87,2.69-.84-.14-1-.2-.68-1,2.4-6.2,4.78-12.39,7.09-18.61.4-1.09,1.15-.89,1.89-.88s1.48-.23,1.91.86c2.47,6.23,5.07,12.42,7.55,18.65C1729.06,856,1727.32,854.6,1727.16,855Zm-4.79-8.42c-1.17-3.05-2.27-5.88-3.51-9.11l-3.33,9.11Z" transform="translate(-156.34 -201.67)"/><path class="cls-13" d="M1697.75,855.46a8.76,8.76,0,0,1-9.2-6.76,13.5,13.5,0,0,1,.19-8.34c2.15-6.28,10.64-8.29,15.22-3.65a5.79,5.79,0,0,1,1.55,2.48c.14.55.77,1.5-.14,1.63-.75.11-2,.84-2.48-.68-.67-2.29-2.41-3.17-4.58-3.39-2.47-.26-4.65.43-6,2.64a10.61,10.61,0,0,0-.24,10.57c1.17,2.37,3.34,3.22,5.93,3.06s4.23-1.2,4.89-3.77c.35-1.34,1.56-.71,2.32-.66,1.17.08.46,1,.35,1.53C1704.8,853.36,1701.78,855.38,1697.75,855.46Z" transform="translate(-156.34 -201.67)"/><path class="cls-10" d="M1626.89,846.61a59.67,59.67,0,0,1,0-6.13c.22-2-.55-2.52-2.37-2.25-.77.11-1.59-.07-2.37,0-1.47.21-1.73-.46-1.7-1.77s.06-1.92,1.63-1.88c4.47.12,9,.11,13.42,0,1.35,0,1.74.39,1.62,1.65-.1,1,.28,2.12-1.5,2-1.55-.11-3.64-.72-4.55.26s-.27,3.13-.29,4.76c0,3.43-.12,6.86,0,10.28.1,2.36-1.55,1.29-2.53,1.52-1.37.32-1.46-.5-1.44-1.58C1626.93,851.23,1626.89,848.92,1626.89,846.61Z" transform="translate(-156.34 -201.67)"/><path class="cls-14" d="M1604.21,844.87c0-3,.08-6,0-8.94-.07-1.78,1.13-1.23,2-1.24s2-.51,2,1.26c-.1,4.6,0,9.2-.06,13.81,0,1.37.35,1.82,1.74,1.75,2.1-.12,4.21.06,6.31-.07,1.5-.08,1.37.8,1.31,1.74s.46,2-1.28,2c-3.61-.11-7.21-.08-10.82,0-1.11,0-1.11-.5-1.11-1.31,0-3,0-6,0-9Z" transform="translate(-156.34 -201.67)"/><path class="cls-15" d="M1750.86,844.72c0-2.9.06-5.8,0-8.69,0-1.17.37-1.42,1.46-1.41s1.43.25,1.42,1.41c-.07,4.78.11,9.56-.07,14.32-.07,2,.52,2.42,2.34,2.27,2.1-.16,4.22,0,6.32-.06,1.1,0,1.31.37,1.34,1.34s-.46,1.26-1.42,1.24c-3.35-.06-6.71-.07-10,0-1.1,0-1.35-.34-1.33-1.34C1750.89,850.78,1750.86,847.75,1750.86,844.72Z" transform="translate(-156.34 -201.67)"/><path class="cls-11" d="M1733.37,845c0-2.89,0-5.78,0-8.68,0-1,0-1.68,1.38-1.72s1.49.73,1.49,1.79c0,4.93,0,9.87,0,14.8,0,1.13.29,1.47,1.41,1.43,2.37-.08,4.74,0,7.11,0,.93,0,1.44.1,1.44,1.25s-.41,1.31-1.39,1.3c-3.42,0-6.83-.08-10.25,0-1.09,0-1.15-.43-1.14-1.27C1733.39,850.92,1733.37,848,1733.37,845Z" transform="translate(-156.34 -201.67)"/><path class="cls-16" d="M1660.91,867.38c0,1.84,0,3.68,0,5.51,0,.42.16,1-.55,1.05s-.81-.51-.81-1c0-2.44,0-4.87,0-7.3,0-.47-.28-1.13.52-1.27a1.28,1.28,0,0,1,1.44.75,43.77,43.77,0,0,0,4.36,5.91c0-1.8,0-3.6,0-5.4,0-.53-.25-1.3.74-1.26s.57.73.58,1.19q0,3.54,0,7.08c0,.47.29,1.14-.47,1.32a1.29,1.29,0,0,1-1.46-.71c-1.3-2-2.65-4-4-6Z" transform="translate(-156.34 -201.67)"/><path class="cls-16" d="M1677.28,868.71c0,.2,0,.07,0-.06.16-1.4-.64-3.55.34-4,1.58-.82,3.72-.49,5.58-.12a2.53,2.53,0,0,1,1.24,4.21c-.85.79-1,1.18-.23,2.08a6.42,6.42,0,0,1,.87,2.17c.1.3.56.74-.09.94-.42.14-.92.21-1.16-.37s-.4-1-.58-1.46c-.75-1.93-1.79-2.46-3.81-2.18-1,.14-.56.79-.71,1.27-.3.92.74,2.7-.77,2.65s-.42-1.82-.65-2.8A11.82,11.82,0,0,1,1677.28,868.71Zm3.39-.08a11.61,11.61,0,0,0,1.18,0c1-.11,1.87-.44,1.82-1.64s-.88-1.51-1.92-1.52c-.72,0-1.44,0-2.16,0-.36,0-.71-.05-.87.51C1678.21,867.71,1678.85,868.63,1680.67,868.63Z" transform="translate(-156.34 -201.67)"/><path class="cls-16" d="M1759.77,874.13a3.5,3.5,0,0,1-3.49-2.12c-.14-.35-.51-.92.17-1.17.47-.16.82,0,1.07.53.7,1.58,2.1,1.58,3.52,1.35a1.41,1.41,0,0,0,1.3-1.29,1.37,1.37,0,0,0-1.11-1.44c-.94-.29-1.91-.47-2.85-.77a2.47,2.47,0,0,1-2-2.56,2.66,2.66,0,0,1,2.28-2.39c1.82-.48,3.87.19,4.54,1.49.2.4.54.91.08,1.25s-.9.08-1.22-.47c-.7-1.22-1.84-1.33-3.08-1a1.31,1.31,0,0,0-1.16,1.17c-.07.75.45,1.05,1,1.23s1.4.35,2.1.52c1.69.42,2.93,1.2,2.69,3.23C1763.45,873.17,1762.16,874.09,1759.77,874.13Z" transform="translate(-156.34 -201.67)"/><path class="cls-15" d="M1687.05,869c0-1.5-.59-3.51.15-4.38.89-1,3-.31,4.51-.3.73,0,2.12-.62,2.14.51,0,1.33-1.4.46-2.16.64a6.44,6.44,0,0,1-2,0c-1-.08-1.53.19-1.49,1.39s.26,1.58,1.42,1.46a13.79,13.79,0,0,1,2.57,0c.5,0,1.35-.38,1.39.55s-.8.61-1.3.64a13.79,13.79,0,0,1-2.57,0c-1.29-.16-1.52.42-1.5,1.57s.11,1.75,1.47,1.61a32.15,32.15,0,0,1,3.54,0c.47,0,1-.05.93.66s-.45.56-.84.56c-1.84,0-3.68,0-5.52,0-.92,0-.88-.57-.88-1.17V869Z" transform="translate(-156.34 -201.67)"/><path class="cls-16" d="M1743.8,864.31c.72,0,1.45,0,2.17,0,.45,0,1.16-.3,1.21.55s-.63.67-1.13.67c-1,0-2,.08-2.94,0-1.15-.11-1.64.15-1.6,1.46s.49,1.44,1.53,1.35a18.23,18.23,0,0,1,2.56,0c.45,0,1.19-.31,1.21.53s-.79.65-1.31.68a7.64,7.64,0,0,1-2,0c-1.73-.31-2.11.51-2,2,.06.81.24,1.18,1.12,1.14,1.31-.07,2.63,0,3.95,0,.42,0,.82.08.84.59s-.35.65-.79.65h-5.72c-.74,0-.83-.46-.83-1,0-2.5,0-5,0-7.5,0-.89.33-1.15,1.15-1.11S1743,864.31,1743.8,864.31Z" transform="translate(-156.34 -201.67)"/><path class="cls-16" d="M1700.52,869.13a3,3,0,0,1,0-1.17c.57-1.18-1.36-3.43,1.32-3.61,4.53-.32,6.37.89,6.59,4,.32,4.37-3.22,7-7.38,5.6-.63-.22-.54-.63-.54-1.07,0-1.25,0-2.49,0-3.74Zm1.4-.29a16.3,16.3,0,0,1,0,2.34c-.21,1.41.49,1.61,1.68,1.56,2.88-.11,4.21-2.07,3.35-5.06-.47-1.63-2-2.43-4.12-2.14-1.81.26-.53,1.69-.91,2.51C1701.78,868.31,1701.92,868.69,1701.92,868.84Z" transform="translate(-156.34 -201.67)"/><path class="cls-17" d="M1722.35,869a7.72,7.72,0,0,1,0-1.18c.21-1.17-.67-3.05.49-3.38a7.57,7.57,0,0,1,5.76.42c1.7,1,1.5,3.82-.27,4.78a3,3,0,0,1-1.68.45c-2.22-.31-3.3.38-2.86,2.77.1.53,0,1.1-.79,1.05s-.65-.68-.65-1.17C1722.34,871.53,1722.35,870.28,1722.35,869Zm3.37-3.47c-1.15-.13-2.14-.18-1.92,1.5.12,1-.25,2,1.42,1.81,1.25-.19,2.91.31,3-1.64C1728.33,865.53,1726.89,865.62,1725.72,865.57Z" transform="translate(-156.34 -201.67)"/><path class="cls-15" d="M1731.27,869.1c0-.26,0-.53,0-.79.11-1.29-.61-3.24.28-3.73,1.4-.77,3.33-.41,5-.09a2.42,2.42,0,0,1,2,2.53,2.7,2.7,0,0,1-1.89,2.89,1.45,1.45,0,0,1-.58.1c-2.33-.11-4.33.11-3.55,3.33.09.37-.2.58-.59.6-.65,0-.74-.37-.74-.89C1731.27,871.74,1731.27,870.42,1731.27,869.1Zm3-.21c1.43,0,3,.11,2.94-1.65,0-1.92-1.65-1.55-2.92-1.73-1.54-.21-1.64.53-1.7,1.76C1732.47,868.77,1733.09,869.13,1734.22,868.89Z" transform="translate(-156.34 -201.67)"/><path class="cls-16" d="M1640.64,869.35c0-2.69.94-4.25,2.75-4.92a4.28,4.28,0,0,1,4.75.92c.47.46,1.23,1.22.63,1.78s-1.17-.2-1.59-.81a2.41,2.41,0,0,0-2.8-.88c-1.81.46-2.31,1.89-2.35,3.46s.24,3.23,2.09,3.83c1.39.44,2.65.21,3.32-1.26.28-.62.7-.86,1.22-.61.76.37.17.93,0,1.32-.87,1.72-2.43,2.07-4.17,1.9a4.08,4.08,0,0,1-3.69-3.32A6.54,6.54,0,0,1,1640.64,869.35Z" transform="translate(-156.34 -201.67)"/><path class="cls-15" d="M1650.59,869c.06-1.5-.43-3.49.34-4.36.91-1,3-.31,4.51-.31.74,0,2.14-.56,2.15.49,0,1.31-1.43.53-2.22.67a6.07,6.07,0,0,1-1.95,0c-1.19-.17-1.41.35-1.43,1.43s.48,1.46,1.53,1.39a29.21,29.21,0,0,1,3,0c.38,0,.81,0,.85.54s-.46.67-.91.67a25.4,25.4,0,0,1-2.76,0c-1.22-.12-1.72.2-1.68,1.56s.3,1.76,1.62,1.62a35,35,0,0,1,3.55,0c.47,0,.74.15.7.67s-.29.54-.65.55h-5.92c-.69,0-.63-.5-.63-1v-4Z" transform="translate(-156.34 -201.67)"/><path class="cls-16" d="M1721.38,873.75c-1.5.59-1.83-.35-2-1.26-.42-2-2-1.19-3.13-1.4s-1.61.46-1.87,1.42a4.74,4.74,0,0,1-.43,1.1.83.83,0,0,1-1,.3c-.68-.18-.22-.66-.13-.93,1-2.64,2-5.25,3-7.9a1,1,0,0,1,1.16-.78c.67,0,.83.49,1,1C1719.07,868.09,1720.21,870.88,1721.38,873.75Zm-3-3.79c-.54-1.46-1-2.65-1.52-4.06-.65,1.36-1.46,2.59-1.22,3.78C1715.77,870.35,1717.23,869.84,1718.37,870Z" transform="translate(-156.34 -201.67)"/><path class="cls-4" d="M1664.93,763.89c-1.68.09-3-1-4.59-1.32-2.07-.49-4.09-1.21-6.12-1.83,2.36-1.26,5-1.91,7.43-3,.72-.31,1.07-.13,1.32.59C1663.6,760.21,1664.27,762.05,1664.93,763.89Z" transform="translate(-156.34 -201.67)"/><path class="cls-15" d="M1672.25,864.32h3.16c.37,0,.63.13.64.55s-.17.72-.69.66c-.32,0-.66.05-1,0-1.25-.2-1.57.34-1.51,1.53.1,2,0,3.94,0,5.92,0,.45.06.94-.66.95s-.63-.5-.64-.94c0-1.84-.09-3.69,0-5.52.1-1.45-.2-2.25-1.87-2-.51.09-1.33.3-1.3-.66s.78-.5,1.24-.52C1670.54,864.28,1671.39,864.31,1672.25,864.32Z" transform="translate(-156.34 -201.67)"/><path class="cls-10" d="M1750.44,868.66v.78c0,3.21,0,3.19,3.25,3.3.49,0,1.33-.41,1.39.55s-.83.61-1.31.63c-4.66.18-4.66.17-4.66-4.4,0-1.24,0-2.49,0-3.73,0-.53-.48-1.47.68-1.43,1,0,.56.86.6,1.35C1750.5,866.69,1750.44,867.67,1750.44,868.66Z" transform="translate(-156.34 -201.67)"/><path class="cls-17" d="M1711,866.53c-.87-1.15-.6-2-.82-2.7s.21-.64.63-.66.69.21.6.72C1711.29,864.61,1711.19,865.34,1711,866.53Z" transform="translate(-156.34 -201.67)"/><path class="cls-18" d="M1649.76,838a33.26,33.26,0,0,1,3.32.27,2.18,2.18,0,0,1,2,2.32,2.3,2.3,0,0,1-1.93,2.58c-2,.45-4,.09-6.07.21-.56,0-.83-.3-.81-.86,0-.27,0-.53,0-.79C1646.16,838.07,1646.16,838.07,1649.76,838Z" transform="translate(-156.34 -201.67)"/><path class="cls-18" d="M1673.56,839.67c.8,2.09,1.41,3.66,2,5.24a5.47,5.47,0,0,1,.19.93c-4.58.37-4.57.37-3.06-3.73C1672.92,841.46,1673.15,840.8,1673.56,839.67Z" transform="translate(-156.34 -201.67)"/><path class="cls-18" d="M1589.87,839.76l2.3,6c-4.69.48-4.69.48-3.27-3.57C1589.16,841.49,1589.47,840.78,1589.87,839.76Z" transform="translate(-156.34 -201.67)"/><path class="cls-18" d="M1722.37,846.58h-6.84l3.33-9.11C1720.1,840.7,1721.2,843.53,1722.37,846.58Z" transform="translate(-156.34 -201.67)"/><path class="cls-18" d="M1680.67,868.63c-1.82,0-2.46-.92-2-2.67.16-.56.51-.5.87-.51.72,0,1.44,0,2.16,0,1,0,1.87.34,1.92,1.52s-.83,1.53-1.82,1.64A11.61,11.61,0,0,1,1680.67,868.63Z" transform="translate(-156.34 -201.67)"/><path class="cls-18" d="M1701.92,868.84c0-.15-.14-.53,0-.79.38-.82-.9-2.25.91-2.51,2.12-.29,3.65.51,4.12,2.14.86,3-.47,5-3.35,5.06-1.19,0-1.89-.15-1.68-1.56A16.3,16.3,0,0,0,1701.92,868.84Z" transform="translate(-156.34 -201.67)"/><path class="cls-19" d="M1725.72,865.57c1.17,0,2.61,0,2.52,1.67-.11,2-1.77,1.45-3,1.64-1.67.24-1.3-.85-1.42-1.81C1723.58,865.39,1724.57,865.44,1725.72,865.57Z" transform="translate(-156.34 -201.67)"/><path class="cls-18" d="M1734.22,868.89c-1.13.24-1.75-.12-1.68-1.62.06-1.23.16-2,1.7-1.76,1.27.18,2.91-.19,2.92,1.73C1737.17,869,1735.65,868.89,1734.22,868.89Z" transform="translate(-156.34 -201.67)"/><path class="cls-18" d="M1718.37,870c-1.14-.12-2.6.39-2.74-.28-.24-1.19.57-2.42,1.22-3.78C1717.38,867.31,1717.83,868.5,1718.37,870Z" transform="translate(-156.34 -201.67)"/><path class="cls-1" d="M1033,682.33c3.62.16,5.14,2.3,6.16,5q5.8,15.29,11.58,30.59c1.18,3.12,2.33,6.26,3.57,9.37.48,1.21.33,1.82-1,2.32q-19.86,7.51-39.69,15.15c-1.55.59-2.5.29-3.13-1.4q-8.33-22.25-16.77-44.45c-.52-1.36-.19-2,1.14-2.53q18-6.76,36-13.56A13.2,13.2,0,0,1,1033,682.33Z" transform="translate(-156.34 -201.67)"/><path class="cls-2" d="M1009.42,759.19q7.61,19.83,15.23,39.65c.68,1.75.26,2.58-1.48,3.23-11.55,4.32-23.06,8.74-34.61,13.06-4.48,1.68-7.44.33-9.12-4.09-5-13.24-10-26.49-15.06-39.73-.48-1.27-.66-2.17,1-2.78,10.74-4,21.44-8.08,32.16-12.12a4.18,4.18,0,0,1,.94-.13C1002.11,757.26,1005.52,759.15,1009.42,759.19Z" transform="translate(-156.34 -201.67)"/><path class="cls-1" d="M947.78,726.67c-.65-1.44-1.38-2.85-1.92-4.33-1.6-4.34-.31-7.24,4-8.9,9-3.45,18-6.83,27-10.24,2.67-1,5.37-2,8-3.06,1.51-.62,2.34-.31,2.92,1.25q8.36,22.18,16.78,44.36c.56,1.48.34,2.34-1.27,2.9-4.28,1.46-8.53,3.05-12.79,4.58-.64-1.44-2.19-1.08-3.29-1.61a175.54,175.54,0,0,1-33.39-20.52C951.89,729.56,950.58,727.05,947.78,726.67Z" transform="translate(-156.34 -201.67)"/><path class="cls-20" d="M1013.91,750.1c.22-1,1.2-1,1.87-1.2,13.09-5,26.2-9.89,39.27-14.9,1.61-.62,2.11-.21,2.68,1.27q7.82,20.25,15.77,40.45c.8,2,.81,3.84-.71,5.52-6.89-3.61-13.79-7.19-20.66-10.83-5.26-2.79-10.45-5.69-15.7-8.48C1028.94,758,1021.42,754,1013.91,750.1Z" transform="translate(-156.34 -201.67)"/><path class="cls-21" d="M1013.91,750.1c7.51,3.94,15,7.86,22.52,11.83,5.25,2.79,10.44,5.69,15.7,8.48,6.87,3.64,13.77,7.22,20.66,10.83a5.07,5.07,0,0,1-3.11,2.42c-11.8,4.33-23.6,8.63-35.39,13-1.15.43-1.8.55-2.35-.85-6-15.09-12-30.15-18-45.22A1.52,1.52,0,0,1,1013.91,750.1Z" transform="translate(-156.34 -201.67)"/><path class="cls-2" d="M947.78,726.67c2.8.38,4.11,2.89,6,4.43a175.54,175.54,0,0,0,33.39,20.52c1.1.53,2.65.17,3.29,1.61q-13.56,5.21-27.13,10.4c-1,.4-1.7.54-2.19-.79q-6.63-17.87-13.36-35.7A1.79,1.79,0,0,1,947.78,726.67Z" transform="translate(-156.34 -201.67)"/><path class="cls-22" d="M1078,847.74c0-3.65,0-7.3,0-11,0-1.22-.22-2.29,1.74-2.19,1.62.07,2.15.41,2.11,2.12-.11,5.33,0,10.67-.08,16,0,.76.79,2.18-.79,2.28-1.29.08-2.76.65-3.75-1.13a124.2,124.2,0,0,0-7.38-11.71c0,3.69-.12,7.39,0,11.07.09,1.8-.75,1.79-2.09,1.88-1.58.1-1.81-.52-1.79-1.91.08-5.34,0-10.68.08-16,0-.83-.87-2.28.81-2.49,1.43-.17,2.86-.35,3.84,1.45,2.15,4,4.56,7.79,6.86,11.67Z" transform="translate(-156.34 -201.67)"/><path class="cls-23" d="M1042,844.88c0,2.87-.11,5.74,0,8.6.09,1.82-1,1.56-2.11,1.62s-2-.07-1.83-1.61a8.13,8.13,0,0,0,0-1.91c-.14-1.63.79-4-.42-4.74-1.72-1.09-4.16-.29-6.29-.36-1,0-.88.7-.88,1.33,0,1.83-.13,3.67,0,5.49.14,1.59-.55,1.87-1.92,1.81-1.18-.05-2.07.09-2-1.68.12-5.72.1-11.46,0-17.19,0-1.54.66-1.65,1.85-1.6s2.34-.18,2.07,1.63a6.22,6.22,0,0,0,0,1.43c.14,1.71-.78,4.36.37,4.93,1.74.86,4.17.29,6.31.35,1,0,.92-.61.92-1.27,0-1.83.11-3.66,0-5.48-.12-1.58.71-1.62,1.86-1.59s2.18-.14,2.09,1.65C1041.9,839.15,1042,842,1042,844.88Z" transform="translate(-156.34 -201.67)"/><path class="cls-15" d="M1063.33,844.75c.06,7.14-5.56,12-11.86,10.18-5.35-1.52-8.28-7.79-6.4-13.75a9.32,9.32,0,0,1,11.84-6.31C1060.82,836.19,1063.29,840,1063.33,844.75Zm-3.87.12c0-2.21-.44-4.28-2.38-5.69a5,5,0,0,0-5.61-.4c-2.56,1.4-3.22,3.9-3.06,6.53s1,4.84,3.68,5.88C1056,852.69,1059.44,849.75,1059.46,844.87Z" transform="translate(-156.34 -201.67)"/><path class="cls-15" d="M985.05,854.85c-2.87.69-4.86.27-5.78-2.67a36.1,36.1,0,0,0-2-4,1.31,1.31,0,0,0-1.45-.9c-1.08.09-.68.89-.7,1.42a46.68,46.68,0,0,0,0,5c.12,1.54-.78,1.48-1.77,1.4s-2.12.5-2.1-1.33c.08-5.9.05-11.79,0-17.69,0-1,.26-1.44,1.32-1.4,2.31.1,4.63,0,6.92.19a5.55,5.55,0,0,1,5.15,4.25c.74,2.78,0,5.64-2.32,6.95-1.42.82-1.36,1.41-.62,2.63C982.92,850.63,983.91,852.7,985.05,854.85Zm-8-10.91c3,0,3.85-.59,3.9-2.78s-.9-2.8-3.78-3c-2.26-.19-2.3,1-2.05,2.51S973.91,844.55,977.07,843.94Z" transform="translate(-156.34 -201.67)"/><path class="cls-15" d="M933.43,834.63c1.36-.36,2,.48,2.48,2,1.68,5.53,3.52,11,5.26,16.52.19.6,1.27,1.65-.18,1.81-1.07.11-2.55.89-3.39-.71-.5-.95-.23-2.65-1.33-2.85a25.11,25.11,0,0,0-6.19-.11c-1.32.1-1,1.59-1.4,2.46-.45,1-3.15,1.9-4,1.22-.53-.42-.1-.85,0-1.27,1.9-5.87,3.89-11.72,5.64-17.63C930.88,834.32,932,834.74,933.43,834.63Zm-2.92,13c5.22.48,5.22.48,3.74-4.2-.32-1-.66-2-1.2-3.65Z" transform="translate(-156.34 -201.67)"/><path class="cls-15" d="M996,851.3c-2.29-.21-4.3-.5-4.74,2.73-.28,2-2.47,1.09-3.63.9s-.11-1.35.07-1.92c1.69-5.52,3.56-11,5.23-16.52.51-1.66,1.46-1.86,3-1.88s2.26.33,2.73,1.85c1.68,5.52,3.53,11,5.24,16.52.19.62,1.38,1.77-.16,2-1.11.16-3.08,1-3.39-1C999.79,851.15,998.1,850.91,996,851.3Zm2.27-3.64c-.78-2.52-1.5-4.88-2.36-7.67a53.53,53.53,0,0,0-2.61,7.67Z" transform="translate(-156.34 -201.67)"/><path class="cls-22" d="M1010.56,844.86c0-2.86.06-5.72,0-8.58,0-1.24.31-1.7,1.58-1.63,2.14.12,4.29,0,6.43.19,3.46.27,5.49,2.66,5.46,6.22a5.9,5.9,0,0,1-5.6,6.19c-4,.35-4,.35-4,4.34a11.49,11.49,0,0,0,0,1.66c.23,1.46-.3,1.93-1.8,1.87s-2.17-.16-2.06-1.91C1010.69,850.44,1010.56,847.65,1010.56,844.86Zm3.8-4.6c0,3.66,0,3.66,2.13,3.65,2.65,0,3.65-.81,3.64-2.93s-1-2.64-3.68-2.9C1013.94,837.84,1014.31,839.34,1014.36,840.26Z" transform="translate(-156.34 -201.67)"/><path class="cls-22" d="M1085.19,844.8c0-2.79,0-5.58,0-8.36,0-1.25.16-1.88,1.64-1.8,2.54.12,5.1.12,7.65,0,1.49-.08,1.45.72,1.44,1.76s0,1.93-1.44,1.76c-1-.11-2.1.11-3.11,0-2.09-.33-2.4.58-2.43,2.48s.49,2.76,2.48,2.41c.62-.1,1.28,0,1.91,0,1.23-.12,1.84.13,1.89,1.63,0,1.67-.71,1.84-2,1.71-.47-.05-1,.06-1.43,0-2.28-.42-2.94.42-2.86,2.76.07,2,.4,3,2.58,2.57.85-.15,1.77.08,2.62,0,1.6-.23,1.78.55,1.82,1.9,0,1.51-.64,1.65-1.85,1.61-2.39-.07-4.78-.09-7.17,0-1.32,0-1.8-.29-1.75-1.69C1085.27,850.54,1085.19,847.67,1085.19,844.8Z" transform="translate(-156.34 -201.67)"/><path class="cls-22" d="M960.12,846.5c0-2.15-.11-4.3,0-6.44.11-1.61-.45-2-2-2-1,.06-2.26.55-2.89-.4a3.75,3.75,0,0,1,0-2.55c.2-.8,1.08-.46,1.66-.47,3.42,0,6.84,0,10.26,0,1.23,0,1.71.32,1.64,1.61,0,1.13,0,1.91-1.59,1.92-3.44,0-3.44.14-3.44,3.72,0,3.82-.09,7.64.05,11.45.06,1.65-.65,1.76-2,1.76s-1.85-.25-1.77-1.69C960.21,851.12,960.12,848.81,960.12,846.5Z" transform="translate(-156.34 -201.67)"/><path class="cls-24" d="M944.1,844.71c0-2.87.09-5.74,0-8.6-.07-1.74,1-1.42,2-1.45s2-.18,1.94,1.5c-.12,4.3.11,8.61-.1,12.9-.12,2.31.72,2.93,2.78,2.63.55-.08,1.13,0,1.67,0,1.48-.21,1.66.57,1.69,1.81s-.36,1.67-1.61,1.63c-2.23-.09-4.46-.11-6.69,0-1.42.07-1.73-.51-1.69-1.8C944.16,850.44,944.1,847.57,944.1,844.71Z" transform="translate(-156.34 -201.67)"/><path class="cls-25" d="M1006.78,864.93c0-.71,0-1.43,0-2.14-.15-2.71.72-3.63,3.41-3.44a17.43,17.43,0,0,1,3.06.49c1.81.49,3,2.52,1.94,3.86-1.16,1.5-.79,2.61-.19,4,.28.68,1.51,1.79,0,2.31-1.27.43-1.35-1-1.71-1.8a10.45,10.45,0,0,0-.43-1.1,2.64,2.64,0,0,0-2.82-1.35c-1.28.18-1.14,1.29-1.25,2.23-.1.76.47,2-.92,2-1.23,0-1-1.17-1.05-2,0-1,0-2.06,0-3.1Zm3.89-.87c1.31,0,2.82.48,2.72-1.46s-1.68-1.13-2.71-1.32-2-.14-2,1.21C1008.6,864.06,1009.61,864.27,1010.67,864.06Z" transform="translate(-156.34 -201.67)"/><path class="cls-26" d="M990.4,863.58c-.08,1.73-.19,3.45-.22,5.18,0,.6,0,1.18-.7,1.28-.86.12-1.07-.55-1.08-1.22,0-2.7,0-5.39,0-8.09,0-.5.15-.92.77-1a1.68,1.68,0,0,1,1.75.95,31.54,31.54,0,0,0,4.17,5.47c0-2.12,0-3.62,0-5.13,0-.53-.1-1.2.71-1.26,1-.09.86.71.87,1.31,0,2.38,0,4.77,0,7.15,0,.65.49,1.52-.54,1.81s-1.45-.4-1.9-1.08l-3.3-4.93C990.93,863.63,990.85,863.39,990.4,863.58Z" transform="translate(-156.34 -201.67)"/><path class="cls-27" d="M983.07,870.13a13.44,13.44,0,0,0-1.68,0c-1.68.22-2.27-.48-2.16-2.16a26.77,26.77,0,0,0-.23-5.72c-.29-1.78.55-2.73,2.39-2.71,1.43,0,2.86.05,4.29,0,.69,0,1.09.27,1,1s-.5.9-1.17.86c-1-.07-2.06-.08-3.09-.11-.83,0-1.44.28-1.48,1.17a1.29,1.29,0,0,0,1.42,1.51c1,0,1.91,0,2.86,0,.52,0,1.26-.16,1.19.73s-.7.73-1.27.73c-.88,0-1.76,0-2.63,0-1.15-.08-1.59.55-1.64,1.56-.06,1.17.65,1.47,1.69,1.44s2.39,0,3.58,0a.81.81,0,1,1,0,1.62c-1,0-2.08,0-3.11,0Z" transform="translate(-156.34 -201.67)"/><path class="cls-27" d="M1031.15,865a6.56,6.56,0,0,1,0-1.66c.33-1.25-1.15-3.15,1.32-3.66,3-.64,5.84.34,6.82,2.47s.62,5.06-.7,6.48-4.82,2.1-6.7,1.44a1.11,1.11,0,0,1-.78-1.27c0-1.27,0-2.54,0-3.8Zm3.35-3.73c-1.09,0-1.6.38-1.51,1.54s0,2.21,0,3.31c0,2.3,1.38,3.05,3.41,1.86,1.87-1.09,1.74-2.84,1.33-4.57S1036,861.4,1034.5,861.29Z" transform="translate(-156.34 -201.67)"/><path class="cls-27" d="M1093.07,870.27a3.7,3.7,0,0,1-3.71-2.11c-.26-.51-.6-1,0-1.48s1.19-.2,1.55.45c.78,1.44,2,1.62,3.44,1.28.6-.14,1.06-.41,1.13-1a1.3,1.3,0,0,0-1-1.42c-1.13-.36-2.3-.6-3.42-1a2.4,2.4,0,0,1-1.65-2.61,2.58,2.58,0,0,1,2.08-2.58c1.9-.4,3.84-.53,5.2,1.3.37.5.82,1.13.19,1.7s-1.18.22-1.55-.41a2,2,0,0,0-1.49-1.08c-.93-.14-2-.42-2.39.84s.71,1.34,1.59,1.51c.39.07.75.26,1.13.35,1.95.46,3.56,1.28,3.12,3.66S1095,870.21,1093.07,870.27Z" transform="translate(-156.34 -201.67)"/><path class="cls-25" d="M1072.37,865.57v-.48c0-5.25,1.4-6.4,6.66-5.5.51.09.9.22.91.85a.89.89,0,0,1-1,1c-1.11,0-2.22-.1-3.33-.12-.82,0-1.39.3-1.37,1.24s.42,1.48,1.46,1.44,2.06,0,3.09,0c.52,0,1,.12,1,.74s-.5.74-1,.73c-.71,0-1.43,0-2.15,0-1,.07-2.31-.48-2.37,1.42-.06,2.11,1.43,1.42,2.47,1.51s1.91,0,2.86.06c.5,0,.94.32.87.91a.8.8,0,0,1-.83.7c-2.07,0-4.14.07-6.2,0-.79,0-1-.73-1-1.41C1072.37,867.63,1072.37,866.6,1072.37,865.57Z" transform="translate(-156.34 -201.67)"/><path class="cls-27" d="M1017.07,865.24v-.47c0-4.87,1.71-6.21,6.59-5.21.58.12.85.38.87.93s-.4.8-.92.81H1020c-.82,0-1.38.27-1.35,1.23s.42,1.49,1.44,1.46,2.22,0,3.33,0c.39,0,.84,0,.88.56s-.34.87-.88.88c-1,0-2.07,0-3.1,0s-1.62.38-1.7,1.48.54,1.53,1.59,1.51c1.2,0,2.39,0,3.58,0,.5,0,1,.24,1,.81s-.45.83-.94.84c-1.91,0-3.82,0-5.73,0-1,0-1.09-.73-1.08-1.51C1017.08,867.47,1017.07,866.36,1017.07,865.24Z" transform="translate(-156.34 -201.67)"/><path class="cls-27" d="M1053.91,865.52c0-.95,0-1.91,0-2.86s-.7-2.31.57-2.73a7.57,7.57,0,0,1,6.22.42,2.6,2.6,0,0,1,1.28,2.84c-.22,1.42-.89,2.65-2.56,2.61a3,3,0,0,0-3.42,2.81c-.12.74-.36,1.53-1.25,1.46s-.79-1-.81-1.69c0-1,0-1.91,0-2.86Zm3-.91c1.71-.2,3,0,3-1.65,0-1.87-1.51-1.49-2.57-1.66-1.25-.19-1.72.6-1.7,1.72S1056.31,864.74,1056.89,864.61Z" transform="translate(-156.34 -201.67)"/><path class="cls-27" d="M968.74,864.84c0-2.23.7-4.08,2.9-5a4.51,4.51,0,0,1,5.24,1c.53.52,1.38,1.14.62,2s-1.36,0-1.85-.59c-1.29-1.62-2.72-1.44-4.09-.2s-1.46,4.67.07,5.82,2.93,1.23,4.1-.48c.42-.62.86-1.35,1.65-.76s.12,1.45-.28,2c-1.29,1.89-3.23,1.88-5.14,1.43C969.89,869.58,968.73,867.53,968.74,864.84Z" transform="translate(-156.34 -201.67)"/><path class="cls-25" d="M1044.43,870.11c-.69-.17-.87-.47-.59-1.19,1.09-2.72,2.08-5.47,3.14-8.19a1.32,1.32,0,0,1,1.41-1c.77.07,1.07.63,1.32,1.22,1,2.41,2,4.82,2.91,7.26.21.55,1.1,1.32,0,1.82s-1.57-.26-1.73-1.09a2.09,2.09,0,0,0-2.15-1.8c-1.36-.15-2.56-.1-2.91,1.62A1.64,1.64,0,0,1,1044.43,870.11Zm3.88-7.51c-.64.93-1.56,1.83-.66,2.93a1.34,1.34,0,0,0,1.3,0C1050,864.36,1048.63,863.59,1048.31,862.6Z" transform="translate(-156.34 -201.67)"/><path class="cls-27" d="M1063.18,864.84a6.19,6.19,0,0,1,0-1.43c.28-1.21-1-3,.82-3.55a6.88,6.88,0,0,1,6.2.72,3.15,3.15,0,0,1-1.94,5.45c-2,.1-4,.08-3.35,3.11.13.54-.33.9-.85.91a.85.85,0,0,1-.89-.91C1063.16,867.71,1063.18,866.27,1063.18,864.84Zm3.6-.36c1.2.06,2.48,0,2.54-1.47.08-1.73-1.46-1.54-2.58-1.73-1.44-.24-1.79.58-1.81,1.8C1064.9,864.46,1065.73,864.62,1066.78,864.48Z" transform="translate(-156.34 -201.67)"/><path class="cls-1" d="M1009.42,759.19c-3.9,0-7.31-1.93-11-2.91,2.27-1.51,5-2,7.4-3.08,1-.43,1.48-.08,1.79.84C1008.22,755.76,1008.83,757.47,1009.42,759.19Z" transform="translate(-156.34 -201.67)"/><path class="cls-25" d="M1001,865.56c0-.79,0-1.59,0-2.39.06-1.35-.36-2.19-1.91-1.95-.65.1-1.39.21-1.37-.76s.85-.76,1.45-.76c1.83,0,3.66,0,5.5,0,.68,0,1.35.08,1.24,1-.09.73-.64.77-1.26.63-1.82-.4-2,.76-1.94,2.1,0,1.75,0,3.5,0,5.25,0,.68-.11,1.38-.91,1.4s-.89-.72-.89-1.38c0-1,0-2.07,0-3.11Z" transform="translate(-156.34 -201.67)"/><path class="cls-25" d="M1083.69,864.24c0,.72,0,1.44-.12,2.14-.26,1.74.45,2.39,2.14,2.08a9.4,9.4,0,0,1,1.19-.11c.59,0,1.14,0,1.17.82a.89.89,0,0,1-1,1c-1.27,0-2.55,0-3.81-.16a1.44,1.44,0,0,1-1.43-1.59c0-2.54,0-5.09,0-7.64,0-.59.06-1.15.87-1.07s.93.53.94,1.15c0,1.11,0,2.23,0,3.34Z" transform="translate(-156.34 -201.67)"/><path class="cls-28" d="M990.4,863.58c.45-.19.53,0,.51.43Z" transform="translate(-156.34 -201.67)"/><path class="cls-29" d="M606.89,844.46l.34-.1c1.55,2.9,3.09,5.81,4.66,8.71.28.51.36,1.26,1.23,1.21a23.9,23.9,0,0,0,4.52-.19c-1.6-3-3.08-5.94-4.69-8.78-.65-1.16-.83-1.78.6-2.52,2.93-1.53,3.29-4.36,2.84-7.22a5.75,5.75,0,0,0-4.71-5.06c-2.68-.57-5.41-.27-8.11-.42-1.31-.07-1.54.43-1.53,1.61.06,6.45,0,12.9,0,19.35,0,3.29,0,3.23,3.26,3.26,1.22,0,1.64-.3,1.59-1.58C606.82,850,606.89,847.22,606.89,844.46Zm15.66,9.63c4.65.62,4.7.64,6.28-3.37a1.82,1.82,0,0,1,2.07-1.4,59.23,59.23,0,0,0,6.25,0,2.17,2.17,0,0,1,2.56,1.76c1.21,3.53,1.29,3.47,5.07,3.23,1-.06,1-.25.68-1.1q-4.31-11.06-8.5-22.14a1.29,1.29,0,0,0-1.37-1c-3.67-.18-3.67-.21-5.06,3.29-.32.82-.64,1.64-.95,2.46Zm135.3-16.84c2.76,5.55,5.32,10.71,7.9,15.86.21.42.26,1.09.88,1.12s.81-.68,1-1.17c2.29-4.62,4.56-9.26,6.87-13.88.22-.44.23-1.15,1-1.23q1,7.62,2,15.19c.11.84.44,1.14,1.33,1.18,2.26.1,1.22-1.5,1.12-2.31q-1.18-9.1-2.6-18.16c-.19-1.21,0-2.58-1-4l-9.7,19.7c-3.13-6.32-6.12-12.35-9.13-18.38-.18-.36-.15-1-.73-1s-.52.61-.58,1c-1,7.18-2.06,14.34-3,21.52-.07.51-.63,1.49.67,1.52.89,0,1.71.14,1.87-1.18C756.4,848,757.11,842.85,757.85,837.25Zm-171.38,7.17v6.83c0,3,0,3,3.06,3.07,1.57.06,1.84-.51,1.82-1.92-.08-5.37,0-10.74-.05-16.11,0-1,.06-1.58,1.37-1.56,2.94,0,2.82,0,3-2.94.07-1.55-.51-1.74-1.82-1.7-2.84.09-5.69,0-8.53,0-3.18,0-3.13,0-3.14,3.18,0,1.11.22,1.68,1.45,1.48.43-.07.89,0,1.32,0,1.2-.17,1.64.22,1.58,1.51C586.4,839,586.47,841.7,586.47,844.42ZM566.61,842c0,3.41.08,6.82,0,10.22-.05,1.57.23,2.26,2,2.1,2.13-.18,4.29,0,6.43-.05,3.48-.07,2.92.76,3-3.13,0-1.21-.41-1.53-1.53-1.46s-2.53-.06-3.78,0-1.5-.23-1.48-1.43c.07-5,0-10,0-15,0-3.28,0-3.22-3.26-3.24-1.2,0-1.47.35-1.45,1.49C566.66,835.05,566.61,838.53,566.61,842Zm91-12.51a5.77,5.77,0,0,0-5.33,3,5.87,5.87,0,0,0,.35,6.11,14.36,14.36,0,0,0,3.56,3.35A22.68,22.68,0,0,1,660.7,846a3.64,3.64,0,0,1,.47,4.06,4.1,4.1,0,0,1-3.51,2.23c-2.2.2-3.59-1.06-4.57-2.75-.69-1.19-1.2-1-2.16-.41-1.28.75-.34,1.35,0,2a8,8,0,0,0,1.16,1.5,7.2,7.2,0,0,0,10,.56c3-2.75,3-6.5.09-9.71a37.14,37.14,0,0,0-5.4-4.45,6.7,6.7,0,0,1-2-2,3,3,0,0,1,.19-3.69,3.12,3.12,0,0,1,3.61-.9,6.29,6.29,0,0,1,2.75,2.21c.88,1,1.25-.2,1.81-.44s.78-.69.28-1.31C662,830.94,660.23,829.51,657.66,829.49Zm135.34,0a5.74,5.74,0,0,0-5,8.87c1,1.67,2.64,2.69,4.1,3.88a18.52,18.52,0,0,1,4.13,3.87,3.89,3.89,0,0,1-3,6.19c-2.29.17-3.7-1.11-4.71-2.88-.66-1.18-1.21-.73-2-.3-1.12.6-.56,1.18-.14,1.8a14.39,14.39,0,0,0,1.26,1.65,7.28,7.28,0,0,0,10.21.48c2.81-2.6,2.79-6.54,0-9.6a28,28,0,0,0-4-3.42,21.17,21.17,0,0,1-2.88-2.45,3.19,3.19,0,0,1-.3-4.29,3.29,3.29,0,0,1,4.6-.42,9.76,9.76,0,0,1,1.76,1.7c.89,1,1.24-.19,1.8-.42s.89-.6.34-1.27C797.44,831,795.66,829.45,793,829.49Zm-24,39.17-.47.15q-2.32-2.82-4.66-5.62c-.28-.33-.56-.8-1.06-.58s-.27.66-.27,1c0,2.15,0,4.29,0,6.44,0,.41-.14,1,.5,1s.5-.6.5-1c0-1.65,0-3.31,0-5a48.17,48.17,0,0,1,5.11,5.49c.25.29.52.61.93.5s.41-.57.41-.93c0-2.27,0-4.55,0-6.82,0-.36,0-.83-.52-.81s-.48.49-.48.85C769,865.16,769,866.91,769,868.66Zm-106.46-3.5L663,865l4.56,5.46c.29.34.58.79,1.08.61s.36-.74.36-1.15c0-2,0-4,0-6.06,0-.46.4-1.34-.55-1.3-.71,0-.39.8-.43,1.25-.12,1.63.2,3.29-.28,5.18-1.59-1.92-3-3.61-4.4-5.29-.39-.46-.69-1.3-1.37-1.12s-.38,1.08-.39,1.64c0,1.89,0,3.79,0,5.68,0,.45-.23,1.2.53,1.16s.45-.78.46-1.23C662.56,868.29,662.55,866.73,662.55,865.16Zm47.34,2.09a2.42,2.42,0,0,0,.45.31c.49.23,1.35-.39,1.5.65s-.56,1.38-1.24,1.67a2.9,2.9,0,0,1-3.82-1,3.38,3.38,0,0,1,.32-4.48,2.85,2.85,0,0,1,3.93-.23c.41.28.75,1.19,1.31.46.45-.57-.31-1-.71-1.3a4.13,4.13,0,0,0-5.06.13,4.52,4.52,0,0,0-1.14,5.32,4.32,4.32,0,0,0,4.48,2.45c.78-.17,1.5-1.12,2.4-.12.2.23.52-.21.53-.54,0-.63,0-1.26,0-1.89C712.85,866.53,712.06,866.15,709.89,867.25Zm30.84,3.82a15,15,0,0,0-.81-1.41c-.74-1-1.2-1.61.05-2.79,1.52-1.44.22-4.11-1.94-4.33-.94-.09-1.9,0-2.84,0s-1,.34-1,1.11c0,2.08,0,4.17,0,6.25,0,.43-.31,1.18.4,1.24.88.07.64-.74.67-1.26.09-1.53,1.13-2.3,2.27-1.57.49.31.74,1,1.15,1.45S739.29,871.36,740.73,871.07Zm-51-4.2a4.21,4.21,0,0,0,4,4.37,4.43,4.43,0,0,0,4.35-4.32,4.33,4.33,0,0,0-4.2-4.42A4.14,4.14,0,0,0,689.74,866.87Zm30.76,0c0,1,.07,2,0,3s.35,1.31,1.31,1.25c1.13-.07,2.28,0,3.42,0,.49,0,1.33.31,1.3-.59s-.77-.41-1.21-.45a13.26,13.26,0,0,0-2.09,0c-1.07.08-1.7,0-1.69-1.45s.6-1.48,1.69-1.5c.86,0,2.41.5,2.43-.45s-1.56-.37-2.42-.4c-1,0-1.72,0-1.7-1.45s.73-1.33,1.66-1.3a17,17,0,0,0,1.89,0c.52,0,1.38.25,1.36-.56s-.89-.47-1.38-.48C720.5,862.41,720.5,862.42,720.5,866.92Zm72.16-.08c0,1.14,0,2.28,0,3.42,0,.6.15.94.85.93,1.45,0,2.91,0,4.36,0,.38,0,.81,0,.85-.53s-.43-.52-.79-.53c-.83,0-1.65,0-2.47,0s-1.79.2-1.77-1.36.64-1.59,1.81-1.58c.81,0,2.35.44,2.31-.36-.06-1.08-1.51-.39-2.35-.49s-1.78.22-1.78-1.38.82-1.39,1.78-1.36c.57,0,1.14,0,1.71,0s1.4.27,1.41-.49c0-1-1-.53-1.48-.55C792.65,862.44,792.65,862.46,792.66,866.84Zm-44.91,4.34c.6,0,.82-.54.91-1,.29-1.43,1.24-1.54,2.5-1.63a2.33,2.33,0,0,1,2.82,2c.11.45.44.82,1,.6s.25-.52.12-.81c-1-2.42-2.05-4.85-3.15-7.24-.37-.81-1-.77-1.36.06-1.07,2.41-2.09,4.84-3.14,7.25C747.25,870.77,747.13,871.09,747.75,871.18Zm-70.66-4.47a20.16,20.16,0,0,0,0,2.46c.09.67-.49,1.89.52,1.88s.5-1.25.47-1.9c-.07-1.38.2-2.12,1.83-2,.74.06,2.12.56,2.19-.49,0-.72-1.38-.27-2.14-.34-1-.09-1.93.28-1.91-1.42s1.12-1.27,2-1.32c.7,0,1.39,0,2.09,0,.42,0,.76-.09.74-.61s-.35-.44-.67-.45h-.94C677.09,862.49,677.09,862.49,677.09,866.71Zm104.69-4.2a4.18,4.18,0,0,0-4.17,3.28,4.64,4.64,0,0,0,2.24,5,4.08,4.08,0,0,0,4.71-.67c.27-.29.8-.59.38-1.08s-.72,0-1.06.25c-1.62,1.27-3.14,1.23-4.33-.07a3.51,3.51,0,0,1-.11-4.65c1.1-1.31,2.68-1.38,4.33-.14.38.29.69.66,1.08.17s-.14-.81-.42-1.07A3.31,3.31,0,0,0,781.78,862.51Zm-128.33,4.25c0-1.13,0-2.27,0-3.4,0-.37,0-.78-.53-.82s-.67.25-.67.69q0,3.59,0,7.17c0,.42.18.76.65.75s.56-.41.56-.8Z" transform="translate(-156.34 -201.67)"/><path class="cls-30" d="M662.86,740.23q-3.72-10-7.45-20c-2.25-6-4.5-12-6.85-18-.53-1.33-.29-1.76,1-2.25,11-4.1,21.92-8.28,32.87-12.44.56-.21,1.25-.21,1.61-.82h3.42a7.81,7.81,0,0,1,4.29,4.94c3.3,9,6.76,18,10.17,26.91.17.46.42.9.64,1.35q1.29,3.48,2.6,6.94a22.49,22.49,0,0,0,.94,2.84c.42.9.32,1.23-.69,1.58-2,.69-3.91,1.6-5.86,2.42-2.59.93-5.2,1.83-7.77,2.8-3.74,1.41-7.45,2.86-11.17,4.29l-12.53,4.75a4.75,4.75,0,0,0-1.23.35c-1.23.73-1.8.3-2.21-1C664.16,743.31,663.47,741.78,662.86,740.23Z" transform="translate(-156.34 -201.67)"/><path class="cls-13" d="M536.73,853.4c2.34-4.92,4-10.13,6-15.16.93-2.26,1.83-4.54,2.63-6.86a1.58,1.58,0,0,1,1.92-1.28,9,9,0,0,0,2.08,0c1-.11,1.43.27,1.78,1.2,2.87,7.58,5.79,15.13,8.8,23-1.5,0-2.85,0-4.21,0-1,0-1-.75-1.24-1.38-1.41-3.57-1.41-3.57-5.27-3.57a6.09,6.09,0,0,1-1.13,0c-3.27-.56-5.63.23-6.17,3.95-.12.81-.71,1-1.52,1-1.24,0-2.51-.35-3.71.23Zm11.58-16.54c-.93,2.41-1.73,4.58-2.61,6.72-.32.77-.39,1.16.63,1.13,1.32,0,2.65,0,4,0,.74,0,1.06-.15.72-1C550.12,841.54,549.28,839.32,548.31,836.86Z" transform="translate(-156.34 -201.67)"/><path class="cls-31" d="M656.72,807.83c-4.31,1.59-8.64,3.17-13,4.78s-7.16.38-8.81-4q-7.14-18.86-14.32-37.7c-.52-1.36-.39-1.9,1.06-2.44,10.18-3.79,20.31-7.68,30.46-11.54.52-.2,1-.46,1.53-.7l1.86-.51a27.21,27.21,0,0,0,7.52,2.72c.72,1.53,1,3.24,2,4.66a42.8,42.8,0,0,0,2.22,6c1,2.51,1.89,5,2.84,7.52q3.6,9.6,7.21,19.2c1.23,3.23,1.25,3.22-1.59,4.78a16.72,16.72,0,0,0-4.18,1.51,12.61,12.61,0,0,0-3.79,1.52,13,13,0,0,0-3.79,1.37A53.59,53.59,0,0,0,656.72,807.83Z" transform="translate(-156.34 -201.67)"/><path class="cls-30" d="M619.88,763.57c-1.28.94-1.82.5-2.35-.93-4.75-12.71-9.57-25.39-14.37-38.09-1.53-4-.25-6.88,3.78-8.41,11.16-4.23,22.33-8.42,33.45-12.73,1.51-.58,1.89-.09,2.37,1.19q7.29,19.41,14.69,38.78c.13.35.31.69.46,1a22.81,22.81,0,0,0,1,2.84c.63,1.24.17,1.72-1,2.1s-2.57,1-3.85,1.54l-6.82,2.33c-.07-1-1-1.1-1.6-1.41-4.93-2.42-9.84-4.88-14.52-7.76a156.7,156.7,0,0,1-21.75-15.92,25.19,25.19,0,0,0-4.21-3.62,2.28,2.28,0,0,0,0,.56c4,11,8,22,12.18,33C618,759.91,618.1,762.16,619.88,763.57Z" transform="translate(-156.34 -201.67)"/><path class="cls-31" d="M619.88,763.57c-1.78-1.41-1.84-3.66-2.55-5.54-4.16-10.95-8.14-22-12.18-33a2.28,2.28,0,0,1,0-.56,25.19,25.19,0,0,1,4.21,3.62,156.7,156.7,0,0,0,21.75,15.92c4.68,2.88,9.59,5.34,14.52,7.76.64.31,1.53.41,1.6,1.41-5.81,2.24-11.62,4.51-17.44,6.72C626.52,761.2,623.19,762.36,619.88,763.57Z" transform="translate(-156.34 -201.67)"/><path class="cls-13" d="M606.89,844.46c0,2.76-.07,5.52,0,8.27.05,1.28-.37,1.59-1.59,1.58-3.26,0-3.26,0-3.26-3.26,0-6.45,0-12.9,0-19.35,0-1.18.22-1.68,1.53-1.61,2.7.15,5.43-.15,8.11.42a5.75,5.75,0,0,1,4.71,5.06c.45,2.86.09,5.69-2.84,7.22-1.43.74-1.25,1.36-.6,2.52,1.61,2.84,3.09,5.76,4.69,8.78a23.9,23.9,0,0,1-4.52.19c-.87.05-1-.7-1.23-1.21-1.57-2.9-3.11-5.81-4.66-8.71Zm0-7.34c.43.72-1,2.45,1.38,2.35,2.56-.1,3.64-.65,3.69-2.24s-1.1-2.31-3.48-2.5C606.32,834.55,607,836,606.87,837.12Z" transform="translate(-156.34 -201.67)"/><path class="cls-13" d="M622.55,854.09l7-18.24c.31-.82.63-1.64.95-2.46,1.39-3.5,1.39-3.47,5.06-3.29a1.29,1.29,0,0,1,1.37,1q4.21,11.09,8.5,22.14c.33.85.27,1-.68,1.1-3.78.24-3.86.3-5.07-3.23a2.17,2.17,0,0,0-2.56-1.76,59.23,59.23,0,0,1-6.25,0,1.82,1.82,0,0,0-2.07,1.4C627.25,854.73,627.2,854.71,622.55,854.09Zm11.64-17.2c-.61,1.59-1.09,2.81-1.56,4s-.93,2.42-1.46,3.78c1.79,0,3.36,0,4.93,0,.92,0,1.1-.31.78-1.1C636,841.48,635.17,839.33,634.19,836.89Z" transform="translate(-156.34 -201.67)"/><path class="cls-32" d="M757.85,837.25c-.74,5.6-1.45,10.73-2.07,15.86-.16,1.32-1,1.2-1.87,1.18-1.3,0-.74-1-.67-1.52,1-7.18,2-14.34,3-21.52.06-.4,0-1,.58-1s.55.62.73,1c3,6,6,12.06,9.13,18.38l9.7-19.7c1,1.37.8,2.74,1,4q1.43,9.06,2.6,18.16c.1.81,1.14,2.41-1.12,2.31-.89,0-1.22-.34-1.33-1.18q-1-7.57-2-15.19c-.76.08-.77.79-1,1.23-2.31,4.62-4.58,9.26-6.87,13.88-.23.49-.3,1.21-1,1.17s-.67-.7-.88-1.12C763.17,848,760.61,842.8,757.85,837.25Z" transform="translate(-156.34 -201.67)"/><path class="cls-13" d="M586.47,844.42c0-2.72-.07-5.44,0-8.15.06-1.29-.38-1.68-1.58-1.51-.43.06-.89,0-1.32,0-1.23.2-1.45-.37-1.45-1.48,0-3.18,0-3.18,3.14-3.18,2.84,0,5.69.06,8.53,0,1.31,0,1.89.15,1.82,1.7-.15,2.9,0,3-3,2.94-1.31,0-1.38.53-1.37,1.56,0,5.37,0,10.74.05,16.11,0,1.41-.25,2-1.82,1.92-3-.12-3.06,0-3.06-3.07Z" transform="translate(-156.34 -201.67)"/><path class="cls-13" d="M736.48,830l8.91.12c.67,0,1.45-.18,1.53.87.28,2.13-1.41,1.5-2.46,1.75-1.38,0-2.76-.11-4.14-.11-5,0-5,0-4.61,5.19-.48,1.77.18,2.32,2,2.2,2.39-.15,4.8-.06,7.2,0,.8,0,1.88-.52,1.9,1.19s-1.12,1.28-2,1.3c-2.53,0-5.06.07-7.59,0-1.18,0-1.69.23-1.62,1.54a56.66,56.66,0,0,1,0,6.25c-.08,1.34.48,1.55,1.64,1.52,2.71-.07,5.43,0,8.15,0,1,0,1.38.25,1.39,1.34s-.42,1.22-1.33,1.22c-3.66,0-7.33-.08-11,0-1.24,0-1.43-.39-1.42-1.5,0-5.12,0-10.24,0-15.35v-5.32c-.27-1.77.6-2.26,2.2-2A5.67,5.67,0,0,0,736.48,830Z" transform="translate(-156.34 -201.67)"/><path class="cls-13" d="M566.61,842c0-3.47,0-7,0-10.42,0-1.14.25-1.5,1.45-1.49,3.26,0,3.26,0,3.26,3.24,0,5,0,10,0,15,0,1.2.33,1.52,1.48,1.43s2.52,0,3.78,0,1.57.25,1.53,1.46c-.12,3.89.44,3.06-3,3.13-2.14.05-4.3-.13-6.43.05-1.78.16-2.06-.53-2-2.1C566.69,848.82,566.61,845.41,566.61,842Z" transform="translate(-156.34 -201.67)"/><path class="cls-32" d="M657.66,829.49c2.57,0,4.33,1.45,5.85,3.34.5.62.34,1-.28,1.31s-.93,1.48-1.81.44a6.29,6.29,0,0,0-2.75-2.21,3.12,3.12,0,0,0-3.61.9,3,3,0,0,0-.19,3.69,6.7,6.7,0,0,0,2,2,37.14,37.14,0,0,1,5.4,4.45c2.93,3.21,2.89,7-.09,9.71a7.2,7.2,0,0,1-10-.56,8,8,0,0,1-1.16-1.5c-.34-.6-1.28-1.2,0-2,1-.57,1.47-.78,2.16.41,1,1.69,2.37,3,4.57,2.75a4.1,4.1,0,0,0,3.51-2.23,3.64,3.64,0,0,0-.47-4.06,22.68,22.68,0,0,0-4.46-4.07,14.36,14.36,0,0,1-3.56-3.35,5.87,5.87,0,0,1-.35-6.11A5.77,5.77,0,0,1,657.66,829.49Z" transform="translate(-156.34 -201.67)"/><path class="cls-32" d="M793,829.49c2.66,0,4.44,1.46,6,3.39.55.67.21,1-.34,1.27s-.91,1.46-1.8.42a9.76,9.76,0,0,0-1.76-1.7,3.29,3.29,0,0,0-4.6.42,3.19,3.19,0,0,0,.3,4.29,21.17,21.17,0,0,0,2.88,2.45,28,28,0,0,1,4,3.42c2.84,3.06,2.86,7,0,9.6a7.28,7.28,0,0,1-10.21-.48,14.39,14.39,0,0,1-1.26-1.65c-.42-.62-1-1.2.14-1.8.84-.43,1.39-.88,2,.3,1,1.77,2.42,3.05,4.71,2.88a3.89,3.89,0,0,0,3-6.19,18.52,18.52,0,0,0-4.13-3.87c-1.46-1.19-3.09-2.21-4.1-3.88a5.74,5.74,0,0,1,5-8.87Z" transform="translate(-156.34 -201.67)"/><path class="cls-32" d="M706.81,833.29c-1.5,2-1.68,2-3.16.45a5.36,5.36,0,0,0-1.84-1.28,3.1,3.1,0,0,0-3.9.92,3,3,0,0,0,.1,3.84c1.48,1.93,3.63,3.07,5.49,4.55,1.56,1.7,3.46,3.2,3.72,5.72a6.47,6.47,0,0,1-3.79,6.77,7.32,7.32,0,0,1-8.22-1.49,17.41,17.41,0,0,1-1.4-1.78c-.5-.67-1-1.27.16-1.93.93-.52,1.4-.68,2,.43a4.81,4.81,0,0,0,4.18,2.83,4.17,4.17,0,0,0,3.9-2.21,3.53,3.53,0,0,0-.52-4.22,23.35,23.35,0,0,0-5.42-4.68c-2.54-2-4.09-4.44-3.39-7.85a7.64,7.64,0,0,1,3.82-3.76,9.72,9.72,0,0,1,4.51.39l2.56,1.8Z" transform="translate(-156.34 -201.67)"/><path class="cls-32" d="M671.05,830c2.15-.29,3.22.94,4.16,2.68,1.32,2.42,2.87,4.72,4.37,7.14,2.29-3.29,3.92-6.79,6.27-9.83.62,0,1.25.12,1.87.12s.63.42.5.88q-2.19,3.57-4.37,7.14c-2.05,2.66-3.42,5.48-3,9a53.51,53.51,0,0,1,.06,5.67c0,.94-.05,1.52-1.27,1.51s-1.34-.42-1.32-1.44c.06-2.84,0-5.68,0-8.52a4.86,4.86,0,0,0-.78-2.82c-2.09-3.3-4.12-6.62-6.14-9.95C671.21,831.14,670.42,830.74,671.05,830Z" transform="translate(-156.34 -201.67)"/><path class="cls-33" d="M654.07,750.89c1.28-.53,2.53-1.13,3.85-1.54s1.64-.86,1-2.1a22.81,22.81,0,0,1-1-2.84c1.1-.19,1.6-1.08,2.21-1.84.76-1,1.39-2.07,2.74-2.34.61,1.55,1.3,3.08,1.81,4.67.41,1.27,1,1.7,2.21,1a4.75,4.75,0,0,1,1.23-.35,1.9,1.9,0,0,1-.53,1.53,40.32,40.32,0,0,0-4.71,6.74c-.27.45-.53.84-1.11.87-.28-.79-.62-1.23-1.61-.76-1.49.7-3.06,1.23-4.6,1.84l-1.86.51C652.82,754.39,654.2,752.69,654.07,750.89Z" transform="translate(-156.34 -201.67)"/><path class="cls-32" d="M718.24,840.11c0-2.06,0-4.13.1-6.19,0-1-.28-1.3-1.27-1.3a12,12,0,0,1-4.1-.19l0-1.43c.05-.89.67-.9,1.34-.89,3.66,0,7.32,0,11,0,1,0,1.28.33,1.29,1.31s-.46,1.29-1.37,1.23-1.77.06-2.65,0c-1.12-.1-1.69.24-1.51,1.45.08.5.09,1,.13,1.5a25.47,25.47,0,0,0,0,5.31c0,4-.09,8-.1,11.93,0,.92,0,1.54-1.25,1.52s-1.5-.36-1.49-1.52C718.34,848.58,718.27,844.34,718.24,840.11Z" transform="translate(-156.34 -201.67)"/><path class="cls-32" d="M769,868.66c0-1.75,0-3.5,0-5.25,0-.36-.06-.83.48-.85s.52.45.52.81c0,2.27,0,4.55,0,6.82,0,.36.06.81-.41.93s-.68-.21-.93-.5a48.17,48.17,0,0,0-5.11-5.49c0,1.65,0,3.31,0,5,0,.41.14,1-.5,1s-.49-.61-.5-1c0-2.15,0-4.29,0-6.44,0-.37-.13-.85.27-1s.78.25,1.06.58q2.34,2.8,4.66,5.62Z" transform="translate(-156.34 -201.67)"/><path class="cls-32" d="M662.55,865.16c0,1.57,0,3.13,0,4.7,0,.45.24,1.19-.46,1.23s-.53-.71-.53-1.16c0-1.89,0-3.79,0-5.68,0-.56-.41-1.43.39-1.64s1,.66,1.37,1.12c1.41,1.68,2.81,3.37,4.4,5.29.48-1.89.16-3.55.28-5.18,0-.45-.28-1.21.43-1.25,1,0,.54.84.55,1.3,0,2,0,4,0,6.06,0,.41.16,1-.36,1.15s-.79-.27-1.08-.61L663,865Z" transform="translate(-156.34 -201.67)"/><path class="cls-34" d="M709.89,867.25c2.17-1.1,3-.72,3,1.38,0,.63,0,1.26,0,1.89,0,.33-.33.77-.53.54-.9-1-1.62,0-2.4.12a4.32,4.32,0,0,1-4.48-2.45,4.52,4.52,0,0,1,1.14-5.32,4.13,4.13,0,0,1,5.06-.13c.4.33,1.16.73.71,1.3-.56.73-.9-.18-1.31-.46a2.85,2.85,0,0,0-3.93.23,3.38,3.38,0,0,0-.32,4.48,2.9,2.9,0,0,0,3.82,1c.68-.29,1.38-.7,1.24-1.67s-1-.42-1.5-.65A2.42,2.42,0,0,1,709.89,867.25Z" transform="translate(-156.34 -201.67)"/><path class="cls-33" d="M735.71,837.83c-.42-5.2-.42-5.21,4.61-5.19,1.38,0,2.76.07,4.14.11,0,.61-.35.86-.82,1.13A50.1,50.1,0,0,1,735.71,837.83Z" transform="translate(-156.34 -201.67)"/><path class="cls-34" d="M740.73,871.07c-1.44.29-1.55-.78-2.05-1.34s-.66-1.14-1.15-1.45c-1.14-.73-2.18,0-2.27,1.57,0,.52.21,1.33-.67,1.26-.71-.06-.39-.81-.4-1.24,0-2.08,0-4.17,0-6.25,0-.77.14-1.18,1-1.11s1.9-.06,2.84,0c2.16.22,3.46,2.89,1.94,4.33-1.25,1.18-.79,1.83-.05,2.79A15,15,0,0,1,740.73,871.07Zm-4-4c1.48.19,2.69-.17,2.67-1.83,0-1.45-1.16-1.63-2.42-1.68s-2,.18-1.79,1.7C735.35,866.32,735,867.54,736.77,867.06Z" transform="translate(-156.34 -201.67)"/><path class="cls-34" d="M689.74,866.87a4.14,4.14,0,0,1,4.17-4.37,4.33,4.33,0,0,1,4.2,4.42,4.43,4.43,0,0,1-4.35,4.32A4.21,4.21,0,0,1,689.74,866.87Zm1.09,0a3.1,3.1,0,0,0,3,3.36,3.26,3.26,0,0,0,3.13-3.32,3.36,3.36,0,0,0-3.09-3.41A3.22,3.22,0,0,0,690.83,866.82Z" transform="translate(-156.34 -201.67)"/><path class="cls-34" d="M720.5,866.92c0-4.5,0-4.51,4.56-4.38.49,0,1.36-.35,1.38.48s-.84.53-1.36.56a17,17,0,0,1-1.89,0c-.93,0-1.64-.11-1.66,1.3s.66,1.41,1.7,1.45c.86,0,2.43-.46,2.42.4s-1.57.44-2.43.45c-1.09,0-1.67.12-1.69,1.5s.62,1.53,1.69,1.45a13.26,13.26,0,0,1,2.09,0c.44,0,1.19-.3,1.21.45s-.81.57-1.3.59c-1.14.05-2.29,0-3.42,0-1,.06-1.4-.2-1.31-1.25S720.5,867.93,720.5,866.92Z" transform="translate(-156.34 -201.67)"/><path class="cls-34" d="M792.65,866.84c0-4.38,0-4.4,4.44-4.3.53,0,1.5-.44,1.48.55,0,.76-.89.45-1.41.49s-1.14,0-1.71,0c-1,0-1.77-.19-1.78,1.36s.86,1.26,1.78,1.38,2.29-.59,2.35.49c0,.8-1.5.36-2.31.36-1.17,0-1.79.08-1.81,1.58s.81,1.38,1.77,1.36,1.64,0,2.47,0c.36,0,.83,0,.79.53s-.47.53-.85.53c-1.45,0-2.91,0-4.36,0-.7,0-.86-.33-.85-.93C792.67,869.12,792.66,868,792.65,866.84Z" transform="translate(-156.34 -201.67)"/><path class="cls-34" d="M747.75,871.18c-.62-.09-.5-.41-.33-.81,1.05-2.41,2.07-4.84,3.14-7.25.37-.83,1-.87,1.36-.06,1.1,2.39,2.11,4.82,3.15,7.24.13.29.27.66-.12.81s-.86-.15-1-.6a2.33,2.33,0,0,0-2.82-2c-1.26.09-2.21.2-2.5,1.63C748.57,870.64,748.35,871.13,747.75,871.18Zm5-3.54a12,12,0,0,0-1.57-3.52c-.54,1.27-1,2.32-1.51,3.52Z" transform="translate(-156.34 -201.67)"/><path class="cls-34" d="M677.09,866.71c0-4.22,0-4.22,4.22-4.19h.94c.32,0,.65,0,.67.45s-.32.61-.74.61c-.7,0-1.39,0-2.09,0-.9,0-2-.45-2,1.32s1,1.33,1.91,1.42c.76.07,2.18-.38,2.14.34-.07,1.05-1.45.55-2.19.49-1.63-.14-1.9.6-1.83,2,0,.65.51,1.89-.47,1.9s-.43-1.21-.52-1.88A20.16,20.16,0,0,1,677.09,866.71Z" transform="translate(-156.34 -201.67)"/><path class="cls-34" d="M781.78,862.51a3.31,3.31,0,0,1,2.65,1c.28.26.81.58.42,1.07s-.7.12-1.08-.17c-1.65-1.24-3.23-1.17-4.33.14a3.51,3.51,0,0,0,.11,4.65c1.19,1.3,2.71,1.34,4.33.07.34-.27.63-.74,1.06-.25s-.11.79-.38,1.08a4.08,4.08,0,0,1-4.71.67,4.64,4.64,0,0,1-2.24-5A4.18,4.18,0,0,1,781.78,862.51Z" transform="translate(-156.34 -201.67)"/><path class="cls-34" d="M653.45,866.76v3.59c0,.39-.06.79-.56.8s-.65-.33-.65-.75q0-3.58,0-7.17c0-.44.19-.72.67-.69s.52.45.53.82C653.46,864.49,653.45,865.63,653.45,866.76Z" transform="translate(-156.34 -201.67)"/><path class="cls-35" d="M680.64,740.77c-.95,1.9-2.89,2.75-4.41,4a40.34,40.34,0,0,0-10.08,12.1,2.4,2.4,0,0,0,.06,3.07c1,1.29-.5,2.21-1.18,3.18-1-1.42-1.24-3.13-2-4.66-.43-1.27-.87-2.53-1.31-3.8.58,0,.84-.42,1.11-.87a40.32,40.32,0,0,1,4.71-6.74,1.9,1.9,0,0,0,.53-1.53Z" transform="translate(-156.34 -201.67)"/><path class="cls-33" d="M548.31,836.86c1,2.46,1.81,4.68,2.71,6.88.34.82,0,1-.72,1-1.32,0-2.65,0-4,0-1,0-1-.36-.63-1.13C546.58,841.44,547.38,839.27,548.31,836.86Z" transform="translate(-156.34 -201.67)"/><path class="cls-30" d="M661.76,754.66c.44,1.27.88,2.53,1.31,3.8a27.21,27.21,0,0,1-7.52-2.72c1.54-.61,3.11-1.14,4.6-1.84C661.14,753.43,661.48,753.87,661.76,754.66Z" transform="translate(-156.34 -201.67)"/><path class="cls-29" d="M606.87,837.12c.12-1.17-.55-2.57,1.59-2.39,2.38.19,3.53.84,3.48,2.5s-1.13,2.14-3.69,2.24C605.91,839.57,607.3,837.84,606.87,837.12Z" transform="translate(-156.34 -201.67)"/><path class="cls-33" d="M634.19,836.89c1,2.44,1.83,4.59,2.69,6.72.32.79.14,1.14-.78,1.1-1.57-.05-3.14,0-4.93,0,.53-1.36,1-2.57,1.46-3.78S633.58,838.48,634.19,836.89Z" transform="translate(-156.34 -201.67)"/><path class="cls-36" d="M705.63,831.79c2.39-.68,4.88-.4,7.3-.79l0,1.43c-.31.79-1,.85-1.69.85-1.49,0-3,0-4.47,0Z" transform="translate(-156.34 -201.67)"/><path class="cls-33" d="M736.77,867.06c-1.73.48-1.42-.74-1.54-1.81-.18-1.52.47-1.76,1.79-1.7s2.4.23,2.42,1.68C739.46,866.89,738.25,867.25,736.77,867.06Z" transform="translate(-156.34 -201.67)"/><path class="cls-33" d="M690.83,866.82a3.22,3.22,0,0,1,3.07-3.37,3.36,3.36,0,0,1,3.09,3.41,3.26,3.26,0,0,1-3.13,3.32A3.1,3.1,0,0,1,690.83,866.82Z" transform="translate(-156.34 -201.67)"/><path class="cls-36" d="M752.73,867.64h-3.08c.52-1.2,1-2.25,1.51-3.52A12,12,0,0,1,752.73,867.64Z" transform="translate(-156.34 -201.67)"/><path class="cls-37" d="M671.29,758.71q-1-2.28-1.93-4.55c-.36-1.06-.8-2.1-1.06-3.18-.32-1.34,1-1.49,1.69-1.7a44.64,44.64,0,0,0,6.15-2.32c4.43-1.64,8.86-3.25,13.27-4.91,5.6-2.11,11.18-4.27,16.76-6.41,1.05,0,1.84-1,3-.82.61,1.53,1.21,3.06,1.82,4.58q1,2.65,2,5.29,1.13,2.87,2.23,5.73l2.76,7.93a4.34,4.34,0,0,1-2.09.76c-8,1.76-16.18,2-24.37,1.91a109.41,109.41,0,0,1-12-1.07C676.72,759.6,674.07,758.74,671.29,758.71Z" transform="translate(-156.34 -201.67)"/><path class="cls-38" d="M671.29,758.71c2.78,0,5.43.89,8.17,1.24a109.41,109.41,0,0,0,12,1.07c8.19.14,16.33-.15,24.37-1.91a4.34,4.34,0,0,0,2.09-.76q1.13,2.67,2.27,5.34c1.34,3.65,2.67,7.31,4,11a5.17,5.17,0,0,1,.12,4.2,4.09,4.09,0,0,0-.93.13L684.72,794.1l-6-15.24a64.35,64.35,0,0,0-3.62-9.16,46.64,46.64,0,0,0-2.84-7.94C672,760.75,671.62,759.73,671.29,758.71Z" transform="translate(-156.34 -201.67)"/><path class="cls-37" d="M724.32,778.85c-1.07,3.53-4.39,3.85-7.12,4.91-9,3.49-18,6.89-27,10.33a28.79,28.79,0,0,0-3.19,1.15c-1.37.68-2.12.44-2.28-1.14q19.32-7.56,38.66-15.12A4.09,4.09,0,0,1,724.32,778.85Z" transform="translate(-156.34 -201.67)"/><path class="cls-1" d="M310.13,682.92a6.25,6.25,0,0,1,6.56,4.46c5.44,14.19,10.78,28.41,16.21,42.6.61,1.6.06,2.11-1.4,2.66q-20.6,7.77-41.12,15.71c-2.08.8-2.95.15-3.68-1.8q-8.55-22.95-17.3-45.83c-.67-1.76-.4-2.62,1.38-3.28,12.39-4.63,24.76-9.32,37.14-14A16.09,16.09,0,0,1,310.13,682.92Z" transform="translate(-156.34 -201.67)"/><path class="cls-39" d="M285.69,763.65c4.95,12.8,9.94,25.58,14.84,38.4,2.36,6.16,2.88,5.32-3.42,7.71l-31.86,12.09c-6.51,2.46-9,1.32-11.45-5.08q-7.58-20-15.19-40c-.61-1.61-1-2.78,1.2-3.59,11.14-4.11,22.24-8.36,33.35-12.54a5.44,5.44,0,0,1,1.22-.18C278.07,761.83,281.7,763.39,285.69,763.65Z" transform="translate(-156.34 -201.67)"/><path class="cls-1" d="M221,729.46c-.07-.08-.17-.14-.21-.23-4.83-9.79-2.36-12.16,5.84-15.08,11-3.91,21.85-8.17,32.72-12.41,2.14-.83,3.11-.46,3.92,1.7q8.44,22.65,17.1,45.2c1,2.48.32,3.53-2.07,4.29-4.41,1.41-8.77,3-13.15,4.54,0-1.32-1.16-1.27-1.94-1.63a174,174,0,0,1-32.37-19.12C227.6,734.29,225.08,730.81,221,729.46Z" transform="translate(-156.34 -201.67)"/><path class="cls-40" d="M346.65,766.12a104.17,104.17,0,0,1,6,15.53c1.06,3.25-.18,5.89-3.39,7.44A311.63,311.63,0,0,1,312.64,804c-1.37.46-2.66.65-3.31-1.09q-6.81-18.07-13.61-36.16c5.48-.22,10.79,1.33,16.23,1.62a83.6,83.6,0,0,0,12.66,0C332,767.67,339.3,766.87,346.65,766.12Z" transform="translate(-156.34 -201.67)"/><path class="cls-41" d="M346.65,766.12c-7.35.75-14.69,1.55-22,2.26a83.6,83.6,0,0,1-12.66,0c-5.44-.29-10.75-1.84-16.23-1.62-2.22-3.52-3.19-7.59-4.89-11.34-.6-1.32-.1-2,1.27-2.53q20.7-7.78,41.37-15.68c1.58-.61,2.47-.33,3.07,1.32Q341.55,752.34,346.65,766.12Z" transform="translate(-156.34 -201.67)"/><path class="cls-39" d="M221,729.46c4.05,1.35,6.57,4.83,9.84,7.26a174,174,0,0,0,32.37,19.12c.78.36,1.95.31,1.94,1.63q-14,5.43-27.91,10.89c-1.32.52-1.85,0-2.28-1.19C230.4,754.58,225.24,742.19,221,729.46Z" transform="translate(-156.34 -201.67)"/><path class="cls-42" d="M252.94,854.85c1.9-5,3.65-9.65,5.38-14.27.4-1.08.67-2.14,2.18-2.22s1.76,1.16,2.15,2.17c1.59,4.14,3.17,8.28,4.69,12.44.32.87,1.17,2-.28,2.63s-2.4-.2-2.66-1.67c-.45-2.53-2.1-2.77-4.29-2.72-1.81,0-2.87.48-3.36,2.32s-1.26,3.5-3.56,1.46c-1-.87-1.41.87-2.56.76a79.45,79.45,0,0,0-9-.06c-1.55,0-1.94-.68-1.93-2.07.05-4.46,0-8.91,0-13.37,0-1.22.33-2,1.74-2s1.35,1,1.35,2c0,3.1.2,6.23-.05,9.31-.22,2.64.85,3.27,3.16,3,1-.12,2.08,0,3.11,0C250.71,852.45,252.29,852.49,252.94,854.85Zm7.47-10.56c-.65,1.31-1.66,2.36-.6,3.74a1,1,0,0,0,1.39,0C262.18,846.67,261.33,845.58,260.41,844.29Z" transform="translate(-156.34 -201.67)"/><path class="cls-43" d="M318.44,847.37c0,2.06,0,4.12,0,6.17,0,1,.17,1.93-1.08,2.21a2.24,2.24,0,0,1-2.59-1.18c-1.32-2.08-2.7-4.12-4.09-6.17-.42-.63-.64-1.72-1.73-1.34s-.64,1.39-.66,2.16c-.05,1.65-.05,3.31,0,5,0,1-.26,1.52-1.35,1.6s-1.83-.34-1.84-1.5c0-4.85,0-9.71,0-14.56a1.26,1.26,0,0,1,1-1.35,2,2,0,0,1,2.42.87c1.29,2,2.52,4,3.91,5.93.59.83.93,2.53,2.2,2.06s.59-2,.63-3.1,0-2.26,0-3.39-.41-2.46,1.45-2.45,1.69,1.47,1.72,2.66c.06,2.14,0,4.28,0,6.42Z" transform="translate(-156.34 -201.67)"/><path class="cls-42" d="M187,848.53c-.26,2-1.06,3.8.65,5.67.86.95-.06,2.33-1.63,1.56a4.57,4.57,0,0,0-4.31.22,7.58,7.58,0,0,1-5.17.22c-4.19-1.18-5.42-5.65-2.3-8.66,1.21-1.16,1.6-2,1-3.7a4.2,4.2,0,0,1,2.31-5.68c2-.95,4-.68,5.29,1.06,1.67,2.23,1.24,4.51-.89,6.3-1.28,1.07-1.58,2-.24,3.22.45.42.83,1,1.51.87.83-.15.74-.9.7-1.49-.12-1.5.58-2.17,2-1.94S186.85,847.74,187,848.53Zm-8.31,5.13c.73-.22,2.26,0,1.83-1.28-.51-1.44-1.47-3.12-3.16-3.4-.89-.14-1.75,1.06-1.73,2.19C175.68,853.05,177.12,853.4,178.7,853.66Zm2-11.69c0-.87-.43-1.35-1.32-1.25s-1.3.85-1.24,1.76.26,1.5,1.24,1.3A1.66,1.66,0,0,0,180.67,842Z" transform="translate(-156.34 -201.67)"/><path class="cls-42" d="M209.26,847v-1.25c0-8,0-8,8-7.5a5,5,0,0,1,4.79,3.31c.77,2.2,1,4.82-1.13,6.28-2.46,1.68-1.83,2.94-.32,4.64.75.83,2.3,1.87.93,3-1.11.88-2.49.11-3.4-1.15s-2-2.41-3-3.59c-.52-.62-.95-1.52-2-1.19s-.9,1.25-.89,2.08,0,1.66,0,2.49c.08,1.22-.57,1.71-1.66,1.69s-1.44-.65-1.43-1.64C209.27,851.78,209.26,849.4,209.26,847Zm6-.67c2,0,4.09.41,4-2.53-.05-2.65-1.91-2.42-3.71-2.47s-3.38-.15-3.35,2.63S213.71,846.47,215.28,846.35Z" transform="translate(-156.34 -201.67)"/><path class="cls-44" d="M370.86,847.12c0,2.17,0,4.34,0,6.52,0,.73.45,1.77-.76,2a2.19,2.19,0,0,1-2.66-1c-1.42-2.28-2.95-4.49-4.43-6.73-.34-.53-.63-1.16-1.38-1-1.11.18-.69,1.12-.71,1.75-.06,1.65-.09,3.32,0,5,.08,1.35-.22,2.18-1.79,2.13s-1.29-1.3-1.3-2.25q0-6.51,0-13c0-.73-.44-1.74.73-2.09a2.12,2.12,0,0,1,2.62,1.06c1.45,2.26,2.95,4.49,4.47,6.7.37.55.64,1.5,1.54,1.21s.58-1.22.6-1.9c0-1.86,0-3.73,0-5.59,0-1,.39-1.56,1.43-1.59s1.68.48,1.65,1.67C370.82,842.35,370.86,844.73,370.86,847.12Z" transform="translate(-156.34 -201.67)"/><path class="cls-44" d="M392.08,838.29c.93,0,1.86,0,2.79,0a4.93,4.93,0,0,1,4.94,3.53c.71,2.22.76,4.82-1.39,6.23-2.47,1.62-1.53,2.77-.21,4.35.71.85,2.3,1.93,1,3.05-1.1.91-2.45.13-3.35-1.13s-2.09-2.57-3.14-3.84c-.46-.57-.92-1.19-1.77-1s-.78,1.09-.8,1.78c0,1,0,2.07,0,3.1s-.83,1.36-1.69,1.4c-1.05.05-1.39-.56-1.39-1.57q0-7.14,0-14.27c0-1.18.49-1.71,1.66-1.68S390.94,838.29,392.08,838.29Zm1.26,8.06c1.78.09,3.78.27,3.67-2.61-.11-2.64-2.06-2.28-3.81-2.4-2.05-.15-3.2.16-3.22,2.73C390,846.85,391.58,846.38,393.34,846.35Z" transform="translate(-156.34 -201.67)"/><path class="cls-45" d="M287,847.09c0-5.44,3.36-9.05,8.37-9.05s8.3,3.61,8.36,8.79-3.63,9.31-8.28,9.41S287,852.27,287,847.09Zm3.05,0c0,3.46,2.29,5.93,5.43,5.9s5.22-2.63,5.16-6.13-2.18-5.64-5.26-5.63C292,841.22,290,843.43,290,847.08Z" transform="translate(-156.34 -201.67)"/><path class="cls-44" d="M224.8,846.27c.41-2.18-1.33-5.71.66-7.48s5.36-.33,8.12-.53c.62,0,1.24,0,1.86,0,1.26-.07,2,.37,1.93,1.75s-.94,1.35-1.93,1.34c-1.86,0-3.73,0-5.59,0-1.45-.06-2,.48-2,2s.51,2.15,2.12,2.26c1.41.09,3.91-1.1,3.89,1.55s-2.34,1.2-3.68,1.32c-1.55.13-2.38.54-2.35,2.39s1.2,1.77,2.46,1.76c1.65,0,3.31,0,5,0,1.12,0,2.09.15,2.18,1.58s-1,1.61-2,1.63c-2.68.05-5.37,0-8.05.07-1.81,0-2.65-.58-2.53-2.53C224.9,851.18,224.8,849,224.8,846.27Z" transform="translate(-156.34 -201.67)"/><path class="cls-44" d="M342.91,846.46c.46-2.26-1.38-5.92.75-7.74,1.88-1.61,5.37-.33,8.15-.46a15.81,15.81,0,0,1,2.48.06c1.09.12,1.24.92,1.18,1.82s-.48,1.25-1.4,1.23c-2.07,0-4.14.06-6.21,0-1.56-.06-1.91.7-1.93,2.08s.41,2,1.91,2.14,3.93-1.08,4.07,1.37c.17,2.81-2.39,1.31-3.78,1.52s-2.24.43-2.23,2.18.78,2,2.26,2c1.75-.09,3.51,0,5.27,0,1.16,0,2,.27,2.07,1.69,0,1.6-1.18,1.49-2.15,1.52-2.58.07-5.17,0-7.74.07-1.92.07-2.9-.51-2.73-2.64S342.91,849.09,342.91,846.46Z" transform="translate(-156.34 -201.67)"/><path class="cls-44" d="M402.38,847.15c0-2.29,0-4.36,0-6.42,0-1.69.48-2.68,2.52-2.53,2.68.19,5.38.08,8.07.07,1.15,0,2,.19,2,1.66,0,1.64-1.16,1.41-2.16,1.42-1.76,0-3.53.1-5.28,0s-2,.8-2.08,2.26.76,2,2.1,1.91a3.21,3.21,0,0,1,.62,0c1.25.23,3.31-.78,3.19,1.67-.12,2.18-1.91,1.27-3.12,1.29-1.52,0-2.8,0-2.81,2.23s1.29,1.9,2.65,1.89c1.76,0,3.51,0,5.27,0,1.11,0,1.64.61,1.63,1.79s-.81,1.29-1.65,1.33-1.65,0-2.47,0c-2.68-.06-6.23,1.29-7.79-.43C401.37,853.38,402.8,849.78,402.38,847.15Z" transform="translate(-156.34 -201.67)"/><path class="cls-42" d="M189.32,846.88c0-2.27,0-4.55,0-6.82,0-1,.12-1.85,1.46-1.83s1.64.68,1.63,1.77c0,.52,0,1,0,1.55,0,4.15.06,4,4.46,3.78,2.15-.11,2.45-.9,2.53-2.77.06-1.46-1.35-4.16,1.41-4.18s1.44,2.67,1.51,4.16c.17,3.72.08,7.45.07,11.18,0,.95,0,1.91-1.37,1.95s-1.75-.79-1.71-2a13.33,13.33,0,0,1,0-1.55c.5-2.86-.65-3.65-3.5-3.58-2.58.07-3.95.5-3.43,3.39a12.08,12.08,0,0,1,0,2.17c0,1.24-.71,1.54-1.81,1.56s-1.28-.78-1.28-1.65Q189.31,850.45,189.32,846.88Z" transform="translate(-156.34 -201.67)"/><path class="cls-45" d="M326.05,847.36c0-3.74,1.28-6.72,4.51-8.4a8,8,0,0,1,8.48.54c.92.62,2.12,1.4,1.3,2.7s-1.91.78-3.07-.06a5,5,0,0,0-6.7.74,7,7,0,0,0,.08,8.54,4.7,4.7,0,0,0,6.88.46c1-.81,1.82-1.43,2.81-.2s-.15,2.11-.95,2.75a7.45,7.45,0,0,1-8.11,1.15C327.7,854,326.21,851,326.05,847.36Z" transform="translate(-156.34 -201.67)"/><path class="cls-45" d="M156.35,846.77c.19-3.67,1.57-6.62,5.17-8.08a7.54,7.54,0,0,1,8.14,1.12c.8.66,1.74,1.41.79,2.56-.79,1-1.59.75-2.63,0-2.47-1.78-5.21-1.5-6.95.45a7,7,0,0,0,0,8.57c1.92,2.14,4.36,2.32,7.13.24,1.05-.79,1.75-.88,2.58.06,1.07,1.2,0,1.9-.72,2.55a8,8,0,0,1-8.67,1.2A8.7,8.7,0,0,1,156.35,846.77Z" transform="translate(-156.34 -201.67)"/><path class="cls-45" d="M377.21,848.47c0-1.13-.07-2.27,0-3.4.19-2.42,0-4.38-3.3-3.72-1.15.23-1.43-.61-1.35-1.51s.31-1.59,1.46-1.57c3.2,0,6.39,0,9.59,0a1.36,1.36,0,0,1,1.55,1.48c.05,1.22-.56,1.77-1.68,1.59-2.88-.45-3.24,1.12-3.11,3.45.16,3,.09,6,.07,8.94,0,1-.1,2.17-1.6,2.1-1.34-.06-1.68-.93-1.65-2.11C377.24,852,377.21,850.22,377.21,848.47Z" transform="translate(-156.34 -201.67)"/><path class="cls-44" d="M272.05,848.24a35.49,35.49,0,0,1,0-3.72c.25-2.28-.31-3.64-3-3.17-1.07.19-1.92-.25-1.84-1.44a1.57,1.57,0,0,1,1.78-1.65c3,.08,6,0,9,0,1.17,0,2.07.26,2,1.67,0,1.25-.91,1.55-1.92,1.4-2.65-.39-3.14,1-3,3.25.17,3.09,0,6.19,0,9.28,0,1,0,1.92-1.38,1.93s-1.75-.77-1.73-2C272.08,852,272.05,850.09,272.05,848.24Z" transform="translate(-156.34 -201.67)"/><path class="cls-46" d="M301.68,873.05c0-4.23,0-8.27,0-12.32a.83.83,0,0,1,.23-.55c.9-.86,7.39.05,8.24,1.13,1.63,2.09,1.08,4.56-1.68,6.11-1.85,1.05-.13,1.51.14,2.2.4,1.07,2.31,2.33,1.44,2.88-1.35.86-1.84-1.29-2.72-2.13-.22-.21-.36-.51-.58-.73-.83-.85-1.43-2.33-2.91-1.86s-.5,2-.76,3C302.91,871.47,303.45,872.45,301.68,873.05Zm3.7-6.8c2,0,4,.29,4-2.39s-2.1-2.41-4-2.63c-2.24-.27-2.36.82-2.44,2.62C302.91,866,303.69,866.64,305.38,866.25Z" transform="translate(-156.34 -201.67)"/><path class="cls-42" d="M285,847c0,2.17-.06,4.34,0,6.5,0,1.29-.09,2.28-1.68,2.35s-1.49-1.17-1.5-2.12c0-4.54,0-9.07,0-13.61,0-1.11.48-1.84,1.62-1.8s1.6.75,1.59,1.87c0,2.27,0,4.54,0,6.81Z" transform="translate(-156.34 -201.67)"/><path class="cls-47" d="M330.21,866.22a4.65,4.65,0,0,1,0-1.54c.54-1.54-1.4-4,1.25-4.64,4-1,6.89.26,8.18,3.12a7.29,7.29,0,0,1-.89,7.85c-1.94,2.54-4.79,1.9-7.42,1.92-1.23,0-1.13-1-1.14-1.77C330.2,869.51,330.21,867.86,330.21,866.22Zm3.72,5a3.7,3.7,0,0,0,4.56-2.72c.78-2.42.51-4.69-1.45-6.47-1.36-1.24-3.19-1.05-4.7-.66-1.34.34-.54,1.93-.62,2.94-.13,1.53.07,3.09-.07,4.62C331.49,870.8,332,871.75,333.93,871.26Z" transform="translate(-156.34 -201.67)"/><path class="cls-43" d="M286.05,869.73c.61-3.6-.24-6.74.59-9.71h.91c0,4,0,8,0,12.06,0,.46-.29.88-.74.72a2.52,2.52,0,0,1-1.15-.92,55.19,55.19,0,0,0-6-8v9.24c-1.88-.75-1.34-1.94-1.36-2.8-.07-2.79,0-5.58,0-8.38,0-.63-.43-1.54.57-1.83s1.22.51,1.61,1.11C282.22,863.89,284,866.59,286.05,869.73Z" transform="translate(-156.34 -201.67)"/><path class="cls-48" d="M322.93,860.63c-1.8,1-3.74.74-5.58.61s-1.91.84-1.94,2.23.18,2.44,2,2.14a11.41,11.41,0,0,1,1.55,0c.58,0,1.11.13,1.08.77s-.59.67-1.13.77c-1.13.21-2.6-.7-3.37.7-1,1.82.2,3.29,2.42,3.49,1.65.16,4.78-.7,4.66.65-.2,2.07-3,.87-4.7.95-4.14.18-4.15.06-4.15-4.11,0-2.17.14-4.35,0-6.52-.16-2,.67-2.54,2.5-2.35C318.43,860.17,320.71,859.64,322.93,860.63Z" transform="translate(-156.34 -201.67)"/><path class="cls-48" d="M392.55,860.29c-1.77,1.29-3.7,1.07-5.54,1s-2,.73-2,2.18.08,2.5,1.94,2.18a10,10,0,0,1,1.55,0c.56,0,1.11.07,1.11.74s-.55.7-1.08.79c-1.14.21-2.6-.67-3.39.68-1,1.76.19,3.29,2.36,3.53,1.67.19,4.5-1.11,4.69.95.13,1.36-3,.59-4.65.65-4.19.15-4.19.05-4.19-4.08,0-2.28.09-4.56,0-6.83-.09-1.67.54-2.18,2.14-2.09,2.07.12,4.14,0,6.21.07A2.76,2.76,0,0,1,392.55,860.29Z" transform="translate(-156.34 -201.67)"/><path class="cls-47" d="M406.45,868.63c1.34,1.41,1.85,3,3.46,3.09,1.42.12,2.82-.05,3.37-1.53s-.42-2.28-1.7-2.8a34.27,34.27,0,0,1-3.41-1.46,2.94,2.94,0,0,1-1.72-3.59c.62-2.15,2.46-2.8,4.37-2.77a3.57,3.57,0,0,1,3.67,2.34c.14.41.21.88-.22,1.09a.69.69,0,0,1-1-.36c-.44-1.38-1.56-1.47-2.74-1.49s-2.4.32-2.61,1.65c-.19,1.16.7,1.79,1.76,2.22,1.42.58,3,.92,4.13,2s1.69,2.64.68,4.19c-1.44,2.21-3.64,2.23-5.8,1.54C407.1,872.28,406,871.17,406.45,868.63Z" transform="translate(-156.34 -201.67)"/><path class="cls-49" d="M357.2,872.79c-1.11.18-1.42-.3-1.59-.75-.55-1.54-.82-3-3.18-2.89-2.14.1-3.83.17-4.19,2.76-.07.51-.54,1.28-1.3.86-.45-.26-.35-.88-.15-1.4,1.33-3.44,2.65-6.87,3.94-10.33.42-1.14,1.57-1.63,2-.67C354.38,864.41,356.22,868.43,357.2,872.79Zm-5.31-10.4c-.75,1.86-1.59,3.27-1.67,5.05h3.37C353.47,865.63,352.67,864.2,351.89,862.39Z" transform="translate(-156.34 -201.67)"/><path class="cls-46" d="M275.22,861.28c-1.82,0-3.65.13-5.45,0s-2.17.66-2.13,2.3c0,1.48.24,2.3,2,2.12.93-.09,2-.41,3,.49-.36,1.34-1.47.91-2.24.89-1.71-.06-2.82,0-2.77,2.36s1.54,1.87,2.85,1.91,2.48,0,3.71,0c.58,0,1.1.24,1.08.83s-.58.77-1.14.77h-6.5c-1.24,0-1.2-.86-1.2-1.71,0-3.2,0-6.39,0-9.59,0-.64-.32-1.61.83-1.63,2.67,0,5.35,0,8,0Z" transform="translate(-156.34 -201.67)"/><path class="cls-49" d="M259.4,873.13c-3.29,0-5.08-1.48-6.1-4a7.12,7.12,0,0,1,1.68-8,5.76,5.76,0,0,1,6.61-.95c.76.36,2.12.87,1.57,1.91s-1.35-.14-2-.43c-2.25-1-4.23-.69-5.76,1.33a5.82,5.82,0,0,0,.27,7.16,4.14,4.14,0,0,0,5.84.74c.52-.35,1-1.45,1.7-.52s-.41,1.46-1,1.86A3.85,3.85,0,0,1,259.4,873.13Z" transform="translate(-156.34 -201.67)"/><path class="cls-43" d="M359.69,873.33c0-3.66-.1-6.87.06-10.06.06-1.2-1.23-3.21,1.69-3.33,5.22-.21,7.19.51,7.55,3.27.33,2.52-1,4.51-3.52,4.36-3.42-.21-5.08.69-4.37,4.33a.82.82,0,0,1-.19.57A9,9,0,0,1,359.69,873.33Zm3.91-7.1c2,.15,4,.16,4.07-2.24s-1.84-2.75-3.86-2.76c-1.69,0-2.93-.07-2.79,2.34C361.14,865.57,361.37,866.81,363.6,866.23Z" transform="translate(-156.34 -201.67)"/><path class="cls-43" d="M371.52,872.79c0-3.95,0-7.89,0-11.84,0-.19.05-.51.16-.55,2.07-.83,4.24-.46,6.35-.28a3.15,3.15,0,0,1,2.76,2.93c.44,2.62-1,4.69-3.67,4.53-3.29-.2-4.87.66-4.22,4.17.06.32-.24.71-.38,1.07Zm4.07-6.56c2,.18,3.92,0,3.9-2.4s-2.09-2.5-4-2.62-2.6.45-2.63,2.52C372.81,866,373.64,866.68,375.59,866.23Z" transform="translate(-156.34 -201.67)"/><path class="cls-1" d="M285.69,763.65c-4-.26-7.62-1.82-11.31-3.16.9-.45,1.77-1,2.7-1.34C283.86,756.47,283.87,756.48,285.69,763.65Z" transform="translate(-156.34 -201.67)"/><path class="cls-50" d="M395.16,866.24c0-1.24-.09-2.49,0-3.72.08-.89-.66-2.45.93-2.43,1.29,0,.75,1.46.77,2.29a54.55,54.55,0,0,1,0,6.52c-.16,2,.52,2.6,2.42,2.38a27.3,27.3,0,0,1,3.73,0c.63,0,1.38.1,1.33.91s-.8.8-1.43.83h-.31C395.16,873.67,395.16,873.67,395.16,866.24Z" transform="translate(-156.34 -201.67)"/><path class="cls-48" d="M290,860.17h9.23c0,.4-.07.76-.08.76-3.93-.25-3.88,2.27-3.65,5.07.16,1.85,0,3.72,0,5.59,0,.56-.18,1.15-.73,1.21-.78.07-.95-.61-.95-1.25,0-2.38-.11-4.77,0-7.14.12-2.13-.12-3.68-2.85-3.15C290.66,861.33,290.25,861.16,290,860.17Z" transform="translate(-156.34 -201.67)"/><path class="cls-24" d="M1247.9,870.56c1.08,0,2.16-.06,3.23,0a2.55,2.55,0,0,1,2.51,2.59,2.41,2.41,0,0,1-2.65,2.36h-.3c-1.45-.25-2.24.17-1.91,1.81.14.68-.08,1.11-.88.95Zm.9,2.45c0,.86-.43,2,1.3,1.83s2.74-.63,2.61-1.84c-.17-1.6-1.4-1.54-2.62-1.68C1248.57,871.16,1248.74,872.07,1248.8,873Z" transform="translate(-156.34 -201.67)"/><path class="cls-51" d="M1265.08,862.89c-1.34,0-2.67,0-4,0-.65,0-.89-.15-.89-.85q0-10.17,0-20.34c0-.42,0-.82.6-.8,2.92.08,5.87-.27,8.77.18,4.53.7,7.25,3.92,7.5,8.76a39,39,0,0,1-.11,5.07,8.53,8.53,0,0,1-8.18,7.91c-1.23.06-2.46,0-3.69,0Zm-.51-11v5.08c0,2.5,0,2.5,2.58,2.5,3,0,4.72-1.28,5.23-4.11a17.85,17.85,0,0,0-.08-7.17,4.59,4.59,0,0,0-4.73-3.8c-.67,0-1.34.06-2,0-.85-.09-1,.28-1,1C1264.6,847.55,1264.57,849.71,1264.57,851.86Z" transform="translate(-156.34 -201.67)"/><path class="cls-52" d="M1296.69,847.4c-1,.14-1.85.1-2.34-1.58-.63-2.18-4.79-2.44-6.15-.58a2.31,2.31,0,0,0,.57,3.37,12.75,12.75,0,0,0,3.65,1.58,15.22,15.22,0,0,1,4.57,2.16,5.68,5.68,0,0,1-.79,9.8,10.85,10.85,0,0,1-10.75-.59,5.43,5.43,0,0,1-2.64-4.31c0-.3-.12-.81,0-.89,1.11-.67,2.35-.18,3.53-.32.44,0,.68.05.84.6a4.24,4.24,0,0,0,6,2.85,2.36,2.36,0,0,0,1.66-2,2.51,2.51,0,0,0-1.11-2.54,12.74,12.74,0,0,0-3.25-1.37,17,17,0,0,1-5-2.33,5.51,5.51,0,0,1-.21-8.77,10.2,10.2,0,0,1,11.42-.25,6,6,0,0,1,2.32,3.52c.29,1.13.22,1.92-1.27,1.67A6.82,6.82,0,0,0,1296.69,847.4Z" transform="translate(-156.34 -201.67)"/><path class="cls-51" d="M1252.84,851.89c0,3.28,0,6.57,0,9.85,0,1-.27,1.18-1.19,1.17-3.21,0-3.21,0-3.21-3.15,0-5.85,0-11.7,0-17.55,0-1.12.32-1.34,1.37-1.32,3,.05,3,0,3,3Z" transform="translate(-156.34 -201.67)"/><path class="cls-53" d="M1285.56,780.68a48.56,48.56,0,0,0,2.69,7.5c3.6,9.52,7.27,19,10.91,28.53,1.12,2.91,2.24,5.83,3.39,8.73a3.74,3.74,0,0,1,.31,1.64,4,4,0,0,1-1.16-2q-8.16-21.52-16.26-43.06C1285.3,781.71,1284.4,781,1285.56,780.68Z" transform="translate(-156.34 -201.67)"/><path class="cls-24" d="M1283.33,874.54c0-.31,0-.62,0-.92.09-1-.49-2.51.24-2.9a5.6,5.6,0,0,1,3.77,0c2,.54,2.9,2.23,2.58,4.62a3.35,3.35,0,0,1-3.54,2.94c-3.06,0-3.06,0-3.06-3Zm2.25-3.19c-1-.22-1.4.18-1.31,1.37.11,1.37,0,2.76,0,4.14,0,.42,0,.72.6.8,2.26.33,4-.76,4.17-2.77C1289.29,872.69,1288.08,871.41,1285.58,871.35Z" transform="translate(-156.34 -201.67)"/><path class="cls-54" d="M1368.89,872.25c0,2,0,3.58,0,5.18,0,.32.14.79-.41.83-.73,0-.46-.54-.47-.87,0-2,0-3.91,0-5.87,0-.31-.23-.77.25-.93s.62.25.84.52l4.77,5.72c0-2,0-3.63,0-5.3,0-.34-.23-.91.45-.92s.46.57.47.92c0,1.9,0,3.8,0,5.71,0,.34.29.87-.32,1s-.74-.22-1-.54C1372,876,1370.58,874.28,1368.89,872.25Z" transform="translate(-156.34 -201.67)"/><path class="cls-24" d="M1273.8,878.29a3.63,3.63,0,0,1-3.69-3.84,3.84,3.84,0,1,1,7.67,0C1277.77,876.47,1276.2,878.67,1273.8,878.29Zm3-3.74a2.92,2.92,0,1,0-3,3.09A3.09,3.09,0,0,0,1276.85,874.55Z" transform="translate(-156.34 -201.67)"/><path class="cls-24" d="M1344.57,874.33a4,4,0,0,1,0-.77c.2-1-.61-2.63.42-2.88,1.71-.41,3.7-.52,5.21,1a4.21,4.21,0,0,1,.75,4.57,3.32,3.32,0,0,1-3.4,2.1c-3,0-3,0-3-2.9Zm.91.1c0,.81,0,1.63,0,2.45,0,.28-.1.59.3.76a4.18,4.18,0,0,0,4.13-1.39,3.36,3.36,0,0,0-.83-4.4,3.83,3.83,0,0,0-3.26-.39c-.77.24-.22,1.34-.34,2A5.63,5.63,0,0,0,1345.48,874.43Z" transform="translate(-156.34 -201.67)"/><path class="cls-24" d="M1265,878.13a.84.84,0,0,1-1.26-.34,10.06,10.06,0,0,1-.83-1.29c-.47-1.25-1.53-1.1-2.44-1s-.29,1.08-.5,1.62c-.13.37.32,1.05-.41,1.08s-.48-.65-.48-1c0-1.89,0-3.79,0-5.69,0-.69.13-1,.92-1s1.85,0,2.77.05a2.34,2.34,0,0,1,2,1.63,2,2,0,0,1-.44,2.42c-1.25.8-.74,1.45-.14,2.24C1264.46,877.24,1264.68,877.65,1265,878.13Zm-5-5.26c0,1.06-.39,2.12,1.31,2,1.9-.17,2.68-.51,2.71-1.73s-.76-1.65-2.63-1.8C1259.85,871.2,1259.83,872,1260,872.87Z" transform="translate(-156.34 -201.67)"/><path class="cls-24" d="M1416,878.13c-.85.38-1.14-.1-1.45-.6a9.49,9.49,0,0,0-1.2-1.77c-.56-.56-1.41-.34-2-.19s-.19,1-.34,1.45.39,1.2-.42,1.22-.46-.76-.47-1.19c0-1.85,0-3.69,0-5.54,0-.71.15-1,.93-1s1.85,0,2.76.05a2.3,2.3,0,0,1,2,1.65,2,2,0,0,1-.44,2.42c-1.29.81-.74,1.45-.12,2.24C1415.46,877.25,1415.67,877.66,1416,878.13Zm-5-5.08c-.15,1.05-.23,2,1.42,1.79,1.21-.15,2.44-.08,2.56-1.71.1-1.22-.76-1.66-2.59-1.81C1410.89,871.21,1410.78,871.92,1411,873.05Z" transform="translate(-156.34 -201.67)"/><path class="cls-55" d="M1427.14,878.29c-1.7,0-3.39,0-5.09,0-.56,0-.38-.51-.39-.83,0-2,0-4,0-6,0-.63.11-.94.83-.91,1.28.06,2.57,0,3.85,0,.29,0,.68-.06.65.41s-.38.41-.69.41a17.8,17.8,0,0,1-2.31,0c-1.12-.13-1.47.23-1.49,1.41s.59,1.31,1.49,1.22a1.07,1.07,0,0,1,.31,0c.7.15,2-.34,2,.34,0,.9-1.25.26-1.92.43a3.21,3.21,0,0,1-.93,0c-1.41-.06-.79,1-.87,1.64s-.23,1.33.92,1.27a12.77,12.77,0,0,1,3.65.1Z" transform="translate(-156.34 -201.67)"/><path class="cls-24" d="M1328.92,878.29a3.78,3.78,0,0,1-2.61-.6c-.26-.19-.5-.39-.29-.74s.51-.14.76,0a4.15,4.15,0,0,0,2.63.67c.76,0,1.5-.21,1.6-1.1s-.5-1.18-1.2-1.37-1.48-.39-2.22-.61a1.84,1.84,0,0,1-1.51-1.73,2.07,2.07,0,0,1,1.4-2,4.05,4.05,0,0,1,3.56.21c.29.16.72.32.39.79s-.52.1-.77,0a3.32,3.32,0,0,0-2.37-.36c-.67.11-1.2.45-1.23,1.16a1.22,1.22,0,0,0,1,1.22c.48.15,1,.28,1.48.4,1.3.3,2.58.64,2.49,2.36C1332,877.75,1331,878.29,1328.92,878.29Z" transform="translate(-156.34 -201.67)"/><path class="cls-24" d="M1434.88,878.29a3.44,3.44,0,0,1-2.47-.6c-.22-.18-.58-.3-.34-.69s.47-.25.77-.06a4.14,4.14,0,0,0,2.94.68c.63-.08,1.24-.31,1.35-1s-.4-1.14-1-1.34c-.83-.27-1.7-.41-2.52-.7a1.84,1.84,0,0,1-.92-3.06,3.94,3.94,0,0,1,4.68-.33c.22.2.33.37.18.65s-.4.19-.62.05a3.36,3.36,0,0,0-2.81-.38,1.14,1.14,0,0,0-.94,1.08,1,1,0,0,0,.82,1.15l2.07.56c1.24.34,2.29.92,2,2.42s-1.3,1.71-2.56,1.61Z" transform="translate(-156.34 -201.67)"/><path class="cls-24" d="M1302.31,873.46c0,.56,0,1.13,0,1.69-.09,1.8-1.09,3-2.53,3.14-2.58.21-3.68-.46-4.14-2.57a27.15,27.15,0,0,1-.15-4.6c0-.36.12-.59.52-.57s.38.4.38.68c0,1.18,0,2.36,0,3.54.09,1.83,1,2.87,2.53,2.87s2.41-1,2.5-2.87c0-.87-.06-1.75,0-2.61,0-.54-.42-1.51.39-1.54s.32,1,.44,1.46A5.78,5.78,0,0,1,1302.31,873.46Z" transform="translate(-156.34 -201.67)"/><path class="cls-55" d="M1390.42,878.12c1-2.31,2-4.61,3-6.9.13-.29.2-.7.7-.68s.54.42.67.73c.87,2,1.73,3.94,2.55,5.92.13.32.69.75.16,1s-.87-.17-1-.66c-.29-1.37-1.13-1.67-2.45-1.63s-2.07.18-2.36,1.52C1391.56,878,1391.26,878.58,1390.42,878.12Zm5.1-3-1.42-3.36a14.36,14.36,0,0,0-1.38,3.36Z" transform="translate(-156.34 -201.67)"/><path class="cls-55" d="M1362.39,878.28h-5.11c-.46,0-.4-.37-.4-.67,0-2.11,0-4.21,0-6.31,0-.47.05-.78.64-.77,1.39,0,2.77,0,4.16,0,.29,0,.68,0,.62.43,0,.29-.29.39-.57.39-1,0-2,.08-2.93,0-1.22-.13-1,.67-1,1.36s-.06,1.43,1.07,1.29a17.62,17.62,0,0,1,2.3,0c.28,0,.53.1.49.43a.41.41,0,0,1-.45.34,11.92,11.92,0,0,1-1.69,0c-1.39-.21-1.87.29-1.76,1.72.07.91.21,1.24,1.19,1.2a10.52,10.52,0,0,1,3.45.12Z" transform="translate(-156.34 -201.67)"/><path class="cls-55" d="M1383.37,870.54H1386c.28,0,.69-.1.7.36s-.32.42-.64.47c-2.21.35-2.21.36-2.21,2.63,0,1,.05,2,0,2.92,0,.46.42,1.31-.45,1.31s-.38-.81-.4-1.25a35.58,35.58,0,0,1,0-4c.09-1.2-.18-1.88-1.55-1.62a1.77,1.77,0,0,1-.46,0c-.34,0-.82.08-.85-.41s.49-.39.8-.4C1381.73,870.52,1382.55,870.54,1383.37,870.54Z" transform="translate(-156.34 -201.67)"/><path class="cls-55" d="M1317.4,874.74a9.21,9.21,0,0,1,0-1.39c.23-1.52-.23-2.3-1.91-2-.35.06-.94.18-.88-.49s.56-.31.86-.31c1.59,0,3.19,0,4.78,0,.3,0,.82-.25.85.32s-.53.46-.9.49a4.71,4.71,0,0,1-.92,0c-.85-.13-1,.29-1,1,0,1.69,0,3.39,0,5.08,0,.31.17.78-.43.79s-.48-.41-.48-.77C1317.39,876.59,1317.4,875.66,1317.4,874.74Z" transform="translate(-156.34 -201.67)"/><path class="cls-24" d="M1309.31,874.45v3.23c0,.34-.06.6-.49.6s-.48-.26-.48-.6c0-2.2,0-4.41,0-6.61,0-.4.18-.54.56-.52s.41.24.41.52Z" transform="translate(-156.34 -201.67)"/><path class="cls-55" d="M1403,874.53c0-1.07,0-2.15,0-3.22,0-.35-.08-.78.49-.76s.39.38.39.67v6.46c0,.32,0,.63-.46.6s-.42-.37-.42-.67C1403,876.58,1403,875.56,1403,874.53Z" transform="translate(-156.34 -201.67)"/><path class="cls-56" d="M1248.8,873c-.06-.94-.23-1.85,1.29-1.69,1.22.14,2.45.08,2.62,1.68.13,1.21-.81,1.69-2.61,1.84S1248.85,873.87,1248.8,873Z" transform="translate(-156.34 -201.67)"/><path class="cls-56" d="M1264.57,851.86c0-2.15,0-4.31,0-6.46,0-.77.16-1.14,1-1,.66.07,1.33,0,2,0a4.59,4.59,0,0,1,4.73,3.8,17.85,17.85,0,0,1,.08,7.17c-.51,2.83-2.27,4.1-5.23,4.11-2.58,0-2.58,0-2.58-2.5Z" transform="translate(-156.34 -201.67)"/><path class="cls-57" d="M1359.05,689.93c2.68,1,4,3,5,5.59q7.73,20.7,15.66,41.32c.53,1.38.3,1.87-1.09,2.39q-21.18,7.95-42.32,16c-1,.38-1.46.43-1.89-.73q-9-23.92-18.08-47.82c-.45-1.15-.35-1.58.9-2,12.4-4.64,24.77-9.36,37.15-14.06.46-.18,1-.18,1.31-.7Z" transform="translate(-156.34 -201.67)"/><path class="cls-53" d="M1285.56,780.68c5.44-2.1,10.87-4.24,16.33-6.31,6.56-2.5,13.14-5,19.71-7.43.14.14.25.35.42.42a87.86,87.86,0,0,0,11,3.46l13,34.25c1,2.64,2,5.29,3,7.91.36.89.13,1.27-.73,1.59-12.82,4.83-25.63,9.7-38.46,14.52a5.92,5.92,0,0,1-7-2,3.74,3.74,0,0,0-.31-1.64c-1.15-2.9-2.27-5.82-3.39-8.73-3.64-9.51-7.31-19-10.91-28.53A48.56,48.56,0,0,1,1285.56,780.68Z" transform="translate(-156.34 -201.67)"/><path class="cls-57" d="M1266.76,732.53c-1.72-3.51-1.45-6.31.8-8.49a6.77,6.77,0,0,1,2.36-1.42q19.08-7.22,38.15-14.47c.85-.33,1.21-.25,1.56.66q9.11,24.21,18.28,48.4c.19.5.59,1-.31,1.33-5,1.81-9.91,3.67-14.86,5.51,0-.51-.39-.68-.77-.85a137.89,137.89,0,0,1-15.11-7.87,154.8,154.8,0,0,1-28.74-21.87C1267.72,733.08,1267.41,732.55,1266.76,732.53Z" transform="translate(-156.34 -201.67)"/><path class="cls-58" d="M1393.34,771.75q3.51,7.69,6.49,15.62a5.92,5.92,0,0,1-3.58,7.56c-12.46,4.77-25,9.47-37.43,14.22-.75.28-1.14.29-1.51-.57q-7.69-17.82-15.44-35.6a4.85,4.85,0,0,1,.76,0,112.46,112.46,0,0,0,19.44,2.09c3.37.1,6.75,0,10.13-.23,4.17-.29,8.32-.74,12.44-1.44C1387.55,773,1390.44,772.32,1393.34,771.75Z" transform="translate(-156.34 -201.67)"/><path class="cls-59" d="M1393.34,771.75c-2.9.57-5.79,1.2-8.7,1.7-4.12.7-8.27,1.15-12.44,1.44-3.38.23-6.76.33-10.13.23a112.46,112.46,0,0,1-19.44-2.09,4.85,4.85,0,0,0-.76,0c-1.57-3.57-3.12-7.15-4.73-10.7-.36-.78-.12-1,.58-1.33l39-16.11c1.23-.51,2.49-1,3.7-1.53.75-.36,1.16-.29,1.5.54q5.68,13.8,11.41,27.59A2.91,2.91,0,0,1,1393.34,771.75Z" transform="translate(-156.34 -201.67)"/><path class="cls-53" d="M1266.76,732.53c.65,0,1,.55,1.36.93a154.8,154.8,0,0,0,28.74,21.87A137.89,137.89,0,0,0,1312,763.2c.38.17.77.34.77.85-4.06,1.57-8.11,3.16-12.18,4.71-5.47,2.08-11,4.11-16.41,6.2-.87.33-1.32.35-1.71-.67q-7.77-20.65-15.62-41.3A2.22,2.22,0,0,1,1266.76,732.53Z" transform="translate(-156.34 -201.67)"/><path class="cls-54" d="M1341.79,852.19c2.29.94,3,2.83,3,5.07.07,1.86-.4,3.81,1.32,5.64-1.3,0-2.2,0-3.1,0-.74,0-.86-.6-1-1.14a13.71,13.71,0,0,1-.24-4c0-3-1.36-4.31-4.33-4.32-1.08,0-2.17,0-3.24,0s-1.26.21-1.23,1.19c.07,2.42,0,4.84,0,7.25,0,1.33-.79,1.08-1.5,1s-1.69.54-1.68-1c.06-6.63,0-13.26,0-19.89,0-.5-.1-1.08.72-1,3,.11,6.07-.25,9.08.2,2.61.4,4.47,1.73,5,4.47s-.17,4.77-2.57,6.19A2.19,2.19,0,0,0,1341.79,852.19Zm-8.76-5.1h0c0,1,0,2,0,3.08,0,.67.24.91.9.88a36,36,0,0,0,4.76-.18c2.26-.39,3.21-1.59,3.12-4a3.41,3.41,0,0,0-3.37-3.49,10.6,10.6,0,0,0-1.69,0c-1.22.07-2.84-.54-3.54.26S1333,845.91,1333,847.09Z" transform="translate(-156.34 -201.67)"/><path class="cls-60" d="M1321.86,856.18a2.44,2.44,0,0,1,0,.47c-.22,1.32.58,2.82-.55,4a8.54,8.54,0,0,1-5.48,2.5c-6.58.6-10.52-3-10.48-9.58a28.89,28.89,0,0,1,.24-6.3,8.72,8.72,0,0,1,13.53-5.17,6.21,6.21,0,0,1,2.44,3.44c.57,2,.32,2.24-1.75,2.22-.74,0-1-.26-1.07-.92a4.13,4.13,0,0,0-3.62-3.67,5,5,0,0,0-5.33,2c-1.91,2.57-2,10.68-.15,13.31a6.34,6.34,0,0,0,8.4,1.42,2.22,2.22,0,0,0,.83-2.15c0-3.43,0-3.51-3.44-3.39-1.37,0-1.64-.42-1.54-1.63.07-.73.37-.81,1-.81,2,0,4,0,6,0,.86,0,1,.34,1,1.1C1321.82,854,1321.86,855.1,1321.86,856.18Z" transform="translate(-156.34 -201.67)"/><path class="cls-61" d="M1369.24,852.16a24,24,0,0,1-.21,4,8.58,8.58,0,0,1-9.32,7,8.33,8.33,0,0,1-8-7.91,26.43,26.43,0,0,1,.17-7.69,8.37,8.37,0,0,1,9.3-6.93,8.74,8.74,0,0,1,8,8.46C1369.28,850,1369.24,851,1369.24,852.16Zm-14.5-.33c0,1.07-.08,2.16,0,3.23.27,3.26,2.52,5.57,5.42,5.61a5.71,5.71,0,0,0,5.93-5.43,40.52,40.52,0,0,0,0-6.61,5.79,5.79,0,0,0-5.91-5.5c-2.89.06-5.17,2.38-5.45,5.62C1354.66,849.77,1354.74,850.8,1354.74,851.83Z" transform="translate(-156.34 -201.67)"/><path class="cls-62" d="M1422.79,851.89c0-3.3,0-6.59,0-9.88,0-.87.23-1.14,1.12-1.13,3.75,0,7.51.07,11.26,0,1.07,0,1.16.41,1.12,1.26s.07,1.34-1.07,1.29c-2.72-.09-5.45,0-8.18,0-.86,0-1.16.2-1.12,1.1.08,1.54.07,3.09,0,4.63,0,.93.21,1.27,1.2,1.23,2.1-.07,4.21,0,6.32,0,.93,0,1.48,0,1.51,1.26s-.77,1.15-1.57,1.15c-2.11,0-4.22,0-6.32,0-.89,0-1.16.28-1.13,1.14,0,1.85,0,3.7,0,5.55,0,.88.26,1.15,1.13,1.14,2.73,0,5.46,0,8.18,0,1,0,1.26.24,1.24,1.21s-.16,1.25-1.17,1.24c-3.76-.07-7.51-.07-11.27,0-1.07,0-1.25-.37-1.24-1.32C1422.82,858.37,1422.79,855.13,1422.79,851.89Z" transform="translate(-156.34 -201.67)"/><path class="cls-61" d="M1392.66,849.17c0,2.21,0,4.42,0,6.63a7,7,0,0,1-5,6.87,10.6,10.6,0,0,1-6.52.09,7,7,0,0,1-5.07-7c-.07-4.63,0-9.26,0-13.89,0-1.67,1.16-.83,1.84-1s1.27,0,1.26,1.07q-.11,6.78,0,13.58a4.78,4.78,0,0,0,3.1,4.85,5.64,5.64,0,0,0,6.1-1.32,5.18,5.18,0,0,0,1.27-3.69c0-4.37.07-8.75,0-13.12,0-1.37.54-1.38,1.58-1.43s1.6.25,1.53,1.51C1392.58,844.63,1392.66,846.9,1392.66,849.17Z" transform="translate(-156.34 -201.67)"/><path class="cls-60" d="M1400.26,851.84c0-3.19,0-6.38,0-9.56,0-1,.17-1.46,1.32-1.39,3.12.18,6.27-.3,9.38.29a6.49,6.49,0,0,1-.2,12.75,34.15,34.15,0,0,1-6.31.19c-1,0-1.22.26-1.19,1.2.08,2,0,4,0,6,0,1,0,1.69-1.4,1.61-1.15-.07-1.71-.14-1.66-1.55C1400.35,858.22,1400.26,855,1400.26,851.84Zm3-4.51c0,1.27.06,2.3,0,3.32s.3,1.12,1.14,1.08c1.49-.06,3,0,4.47,0a4.16,4.16,0,1,0,0-8.32h-1.38c-1.33,0-3.1-.46-3.88.21S1403.39,846.21,1403.26,847.33Z" transform="translate(-156.34 -201.67)"/><path class="cls-57" d="M1333,770.82a87.86,87.86,0,0,1-11-3.46c-.17-.07-.28-.28-.42-.42,2.58-1,5.17-1.94,7.72-3,.86-.35,1.15-.1,1.43.69C1331.47,766.71,1332.26,768.76,1333,770.82Z" transform="translate(-156.34 -201.67)"/><path class="cls-56" d="M1333,847.09c0-1.18-.46-2.76.12-3.43s2.32-.19,3.54-.26a10.6,10.6,0,0,1,1.69,0,3.41,3.41,0,0,1,3.37,3.49c.09,2.38-.86,3.58-3.12,4a36,36,0,0,1-4.76.18c-.66,0-.92-.21-.9-.88,0-1,0-2,0-3.08Z" transform="translate(-156.34 -201.67)"/><path class="cls-56" d="M1354.74,851.83c0-1-.08-2.06,0-3.08.28-3.24,2.56-5.56,5.45-5.62a5.79,5.79,0,0,1,5.91,5.5,40.52,40.52,0,0,1,0,6.61,5.71,5.71,0,0,1-5.93,5.43c-2.9,0-5.15-2.35-5.42-5.61C1354.66,854,1354.74,852.9,1354.74,851.83Z" transform="translate(-156.34 -201.67)"/><path class="cls-56" d="M1403.26,847.33c.13-1.12-.6-3,.3-3.73s2.55-.19,3.88-.21h1.38a4.16,4.16,0,1,1,0,8.32c-1.49,0-3,0-4.47,0-.84,0-1.22-.16-1.14-1.08S1403.26,848.6,1403.26,847.33Z" transform="translate(-156.34 -201.67)"/><path class="cls-56" d="M1285.58,871.35c2.5.06,3.71,1.34,3.49,3.54-.21,2-1.91,3.1-4.17,2.77-.6-.08-.6-.38-.6-.8,0-1.38.08-2.77,0-4.14C1284.18,871.53,1284.6,871.13,1285.58,871.35Z" transform="translate(-156.34 -201.67)"/><path class="cls-56" d="M1276.85,874.55a2.92,2.92,0,1,1-5.82-.12,2.92,2.92,0,1,1,5.82.12Z" transform="translate(-156.34 -201.67)"/><path class="cls-56" d="M1345.48,874.43a5.63,5.63,0,0,1,0-.92c.12-.71-.43-1.81.34-2a3.83,3.83,0,0,1,3.26.39,3.36,3.36,0,0,1,.83,4.4,4.18,4.18,0,0,1-4.13,1.39c-.4-.17-.3-.48-.3-.76C1345.47,876.06,1345.48,875.24,1345.48,874.43Z" transform="translate(-156.34 -201.67)"/><path class="cls-56" d="M1260,872.87c-.13-.89-.11-1.67,1.39-1.55,1.87.15,2.65.56,2.63,1.8s-.81,1.56-2.71,1.73C1259.57,875,1260,873.93,1260,872.87Z" transform="translate(-156.34 -201.67)"/><path class="cls-56" d="M1411,873.05c-.19-1.13-.08-1.84,1.39-1.73,1.83.15,2.69.59,2.59,1.81-.12,1.63-1.35,1.56-2.56,1.71C1410.74,875,1410.82,874.1,1411,873.05Z" transform="translate(-156.34 -201.67)"/><path class="cls-56" d="M1395.52,875.17h-2.8a14.36,14.36,0,0,1,1.38-3.36Z" transform="translate(-156.34 -201.67)"/></svg>