<?xml version="1.0" standalone="no"?>
<!DOCTYPE svg PUBLIC "-//W3C//DTD SVG 20010904//EN"
 "http://www.w3.org/TR/2001/REC-SVG-20010904/DTD/svg10.dtd">
<svg version="1.0" xmlns="http://www.w3.org/2000/svg"
 width="693.000000pt" height="693.000000pt" viewBox="0 0 693.000000 693.000000"
 preserveAspectRatio="xMidYMid meet">
<metadata>
Created by potrace 1.11, written by Peter Selinger 2001-2013
</metadata>
<g transform="translate(0.000000,693.000000) scale(0.100000,-0.100000)"
fill="#000000" stroke="none">
<path d="M3650 5807 c-135 -52 -352 -134 -482 -183 -187 -70 -237 -92 -232
-104 3 -8 18 -49 33 -90 16 -41 103 -273 195 -515 92 -242 179 -471 193 -510
15 -38 28 -72 30 -74 2 -4 110 33 193 66 8 4 17 7 20 8 3 1 16 6 30 12 14 6
52 20 85 32 33 12 69 26 80 31 58 26 138 49 148 44 7 -4 9 -3 4 1 -4 5 46 28
110 53 65 24 127 47 138 52 51 21 232 89 253 95 24 7 26 13 13 47 -12 30 -184
481 -305 802 -52 137 -104 262 -117 277 -26 32 -66 49 -113 49 -17 0 -141 -42
-276 -93z"/>
<path d="M2280 5289 c-526 -200 -532 -203 -545 -291 -5 -35 0 -60 28 -133 19
-49 94 -247 167 -440 164 -435 211 -559 216 -564 2 -2 56 16 120 39 64 24 123
43 131 43 7 0 13 3 13 7 0 4 28 17 63 29 84 30 168 61 192 72 27 12 238 91
250 94 6 1 26 9 45 17 19 8 69 28 110 43 41 15 89 34 107 41 17 8 36 14 43 14
7 0 10 6 8 13 -60 175 -455 1197 -462 1196 -6 0 -225 -81 -486 -180z"/>
<path d="M4575 4561 c-6 -5 -35 -16 -65 -26 -30 -10 -111 -39 -180 -66 -69
-27 -128 -49 -132 -49 -4 0 -28 -9 -53 -20 -25 -11 -45 -16 -45 -12 0 4 -4 1
-9 -7 -5 -8 -22 -14 -39 -15 -17 0 -28 -4 -26 -7 2 -4 -15 -13 -39 -21 -23 -8
-142 -52 -264 -98 -202 -77 -221 -86 -211 -103 5 -10 7 -25 4 -33 -3 -8 -2
-13 3 -10 5 3 28 -47 51 -111 37 -101 41 -120 30 -137 -12 -19 -12 -20 3 -7
14 11 18 11 23 -3 3 -9 7 -27 8 -40 0 -13 4 -22 7 -20 4 2 10 -8 14 -24 3 -15
13 -41 22 -59 8 -17 16 -37 17 -45 2 -7 6 -21 10 -30 4 -9 4 -22 0 -29 -4 -7
-3 -9 4 -5 6 3 17 -11 26 -36 57 -154 63 -176 53 -195 -9 -15 -8 -16 5 -6 12
11 16 7 26 -24 6 -20 8 -41 5 -46 -3 -6 -1 -7 5 -3 7 4 12 3 12 -3 0 -5 -6
-12 -12 -14 -9 -4 -7 -6 3 -6 11 -1 24 -23 39 -63 13 -35 22 -64 22 -65 -1 -2
6 -19 14 -38 8 -20 12 -41 8 -47 -4 -7 -3 -8 4 -4 7 4 12 1 12 -9 0 -17 20
-56 34 -67 6 -4 18 -2 28 3 10 5 18 7 18 3 0 -3 6 -1 13 5 8 6 17 8 20 4 4 -3
7 -1 7 5 0 7 6 12 13 12 6 1 51 16 100 34 48 18 87 29 87 25 0 -5 -7 -9 -17
-9 -9 0 -14 -3 -10 -6 10 -10 46 7 41 20 -5 12 0 14 46 18 11 1 20 6 20 10 0
4 4 8 8 8 4 0 8 -8 8 -19 0 -15 -7 -18 -33 -16 -18 2 -31 0 -28 -5 3 -5 -5
-16 -17 -24 -12 -9 -19 -18 -16 -21 3 -4 17 5 31 19 15 14 32 26 39 26 7 0 2
-9 -12 -20 -14 -11 -21 -20 -15 -20 5 0 -1 -7 -14 -16 -23 -16 -24 -16 -42 7
-17 23 -18 23 -38 5 -21 -19 -29 -10 -11 12 5 7 2 5 -7 -3 -12 -11 -14 -18 -6
-26 7 -7 15 -6 27 6 15 16 18 15 36 -7 20 -24 26 -43 11 -34 -10 7 -43 -39
-34 -48 10 -10 33 -7 33 4 0 5 -7 7 -16 3 -14 -5 -14 -3 -3 15 7 11 17 18 21
16 4 -3 12 6 17 19 5 13 17 27 26 31 9 3 14 10 11 15 -9 15 25 24 92 25 38 1
61 -3 59 -9 -2 -5 -25 -9 -52 -9 -26 1 -42 -2 -36 -6 7 -4 27 -6 44 -4 24 3
28 1 19 -8 -7 -7 -12 -19 -11 -28 0 -11 2 -10 8 4 9 24 79 32 88 9 3 -8 1 -19
-6 -26 -6 -6 -11 -18 -10 -27 0 -9 4 -5 10 9 8 19 12 21 24 11 8 -7 13 -15 11
-19 -2 -3 2 -17 11 -31 10 -17 12 -19 8 -5 -4 11 -8 29 -11 39 -2 11 -8 22
-13 25 -15 10 -17 44 -2 49 8 3 11 0 7 -7 -4 -6 3 -24 15 -39 12 -15 19 -19
16 -9 -4 9 -3 17 2 17 13 0 47 -33 54 -53 4 -10 12 -17 19 -15 14 5 19 48 5
48 -5 0 -7 -9 -4 -20 3 -11 1 -20 -4 -20 -5 0 -9 6 -9 14 0 8 -11 23 -25 34
-13 11 -22 22 -19 24 2 3 -7 4 -21 2 -16 -1 -25 2 -22 9 5 15 76 15 89 0 6 -8
7 -17 3 -21 -4 -4 -10 -1 -12 6 -3 6 -9 12 -15 12 -7 0 -6 -5 1 -14 6 -7 23
-13 37 -13 19 0 22 2 13 8 -8 5 -9 9 -4 9 6 0 4 4 -4 9 -8 5 -16 18 -17 28 -3
17 2 19 41 18 34 -2 43 1 43 14 0 9 3 24 7 34 7 16 -2 22 -27 18 -14 -2 -3 37
14 48 20 12 24 1 7 -16 -7 -7 -7 -13 -1 -17 14 -8 42 3 42 17 0 7 -4 7 -12 -1
-18 -18 -33 -15 -18 3 7 9 19 14 27 11 11 -5 17 5 15 25 -1 4 11 7 26 7 l26 0
-29 -24 c-29 -23 -29 -24 -10 -38 24 -17 38 -2 28 29 -5 17 -4 18 10 7 13 -11
16 -10 22 7 3 10 13 25 22 33 15 11 16 11 9 -6 -7 -19 -6 -19 13 -2 17 15 23
16 36 6 8 -7 15 -8 15 -2 0 5 -7 12 -15 16 -8 3 -15 10 -15 16 0 6 5 8 10 5 6
-3 10 -2 10 3 0 5 -15 17 -34 27 -19 11 -32 24 -30 29 3 6 -1 2 -10 -8 -8 -10
-13 -23 -10 -27 3 -5 0 -9 -5 -9 -6 0 -11 6 -11 13 0 9 -3 8 -9 -2 -7 -11 -10
-11 -15 0 -3 8 -3 3 0 -10 4 -16 2 -21 -5 -17 -6 4 -9 2 -5 -7 3 -8 -2 -14
-11 -14 -10 0 -13 6 -10 18 3 9 2 20 -3 23 -5 3 -8 -9 -7 -28 2 -23 -1 -33
-11 -33 -8 0 -12 6 -9 14 3 7 8 20 11 28 3 8 1 15 -6 15 -6 0 -9 -4 -6 -8 2
-4 1 -14 -3 -21 -6 -9 -11 -10 -15 -2 -4 6 -3 11 3 11 6 0 8 7 5 15 -6 14 6
19 44 18 6 -1 12 4 12 9 0 6 7 8 15 4 8 -3 15 0 15 6 0 6 3 9 6 5 4 -3 13 0
21 8 16 17 33 20 33 6 0 -13 27 -21 45 -15 12 5 13 10 4 20 -9 11 -5 21 19 45
38 39 58 109 39 135 -4 7 -7 16 -5 20 1 5 -3 19 -10 32 -7 12 -10 27 -7 32 7
12 25 4 25 -11 0 -6 -4 -7 -10 -4 -6 4 -7 -1 -3 -11 6 -15 7 -15 15 0 6 11 5
22 -2 32 -9 10 -9 18 -2 27 7 8 8 18 1 27 -9 13 -10 13 -8 0 3 -21 -11 -50
-24 -50 -6 0 -7 3 -4 7 4 3 2 12 -4 19 -19 23 -28 71 -16 84 9 8 7 9 -7 4 -13
-5 -17 -4 -13 3 4 6 3 13 -3 15 -5 1 -11 12 -13 23 -2 11 -9 30 -16 43 -10 19
-10 27 3 46 8 13 14 31 12 40 -2 17 -34 45 -51 46 -5 0 1 -8 15 -18 25 -17 43
-61 19 -46 -7 4 -10 3 -5 -4 3 -6 2 -13 -3 -16 -5 -3 -12 6 -17 22 -10 37 -9
34 -21 62 -37 85 -72 184 -67 191 3 5 1 9 -5 9 -13 0 -44 97 -35 111 5 8 3 9
-6 4 -10 -6 -12 -4 -7 9 4 9 3 15 -1 12 -4 -2 -36 72 -71 165 -35 93 -64 169
-65 169 -1 0 -6 -4 -11 -9z m355 -1273 c0 -13 -23 -5 -28 10 -2 7 2 10 12 6 9
-3 16 -11 16 -16z m-30 -38 c20 -11 17 -52 -4 -49 -19 3 -46 -13 -46 -27 0 -8
-4 -14 -10 -14 -5 0 -9 6 -7 13 1 6 -6 12 -15 12 -9 0 -20 4 -25 9 -4 5 -3 6
4 2 7 -4 18 4 26 20 l14 27 17 -24 18 -24 -7 23 c-7 23 11 28 28 7 5 -6 7 -4
4 5 -2 8 -9 15 -14 15 -6 0 -15 3 -19 8 -11 10 14 9 36 -3z m-172 -22 c-3 -18
21 -60 32 -53 5 3 11 1 15 -5 3 -5 -3 -10 -14 -10 -12 0 -21 5 -21 12 0 6 -7
3 -16 -8 -8 -10 -12 -13 -8 -5 4 9 3 12 -4 7 -6 -3 -13 -2 -16 3 -4 5 3 12 14
16 15 5 17 9 8 19 -10 11 -15 10 -28 -2 -8 -9 -15 -19 -15 -23 0 -4 -3 -11 -7
-15 -8 -7 -12 11 -9 30 1 5 -4 4 -12 -2 -8 -7 -17 -9 -20 -5 -4 3 -10 -2 -13
-11 -5 -14 -9 -15 -15 -4 -7 10 -9 9 -9 -3 0 -9 -6 -22 -14 -28 -11 -10 -16
-9 -24 5 -6 11 -11 13 -16 5 -4 -6 -2 -11 5 -11 7 0 9 -3 6 -7 -4 -3 -2 -12 4
-20 9 -11 7 -12 -12 -9 -13 3 -26 5 -29 5 -3 1 2 6 10 11 13 8 13 11 1 22 -10
9 -12 10 -7 1 5 -9 1 -11 -11 -7 -15 5 -16 4 -3 -6 12 -9 12 -11 1 -8 -39 11
-16 31 49 43 3 0 15 6 28 13 12 7 22 9 22 5 0 -4 4 -2 9 5 4 7 22 14 39 14 17
1 30 5 29 11 -1 5 6 11 16 12 11 2 21 6 25 9 9 10 13 7 10 -6z m-102 -65 c-6
-17 -5 -17 8 0 13 17 14 16 19 -3 3 -11 1 -18 -3 -15 -5 3 -13 -3 -19 -12 -6
-10 -11 -13 -11 -7 0 6 -7 11 -15 11 -14 0 -17 -5 -14 -23 0 -4 -5 -10 -12
-14 -9 -6 -6 -11 8 -21 18 -10 19 -15 7 -26 -7 -7 -11 -20 -8 -28 4 -8 1 -15
-5 -15 -6 0 -11 5 -11 10 0 6 -5 10 -11 10 -5 0 -7 -5 -3 -11 4 -8 0 -8 -15 0
-16 9 -21 9 -19 0 2 -7 -13 -12 -36 -14 l-39 -3 27 25 c14 13 24 28 21 34 -4
5 -2 9 3 9 17 0 22 -13 10 -27 -8 -10 -8 -17 -1 -24 8 -8 11 -6 10 7 -2 13 5
18 23 18 28 0 41 12 33 33 -4 10 -8 11 -20 2 -10 -9 -17 -9 -24 -2 -8 8 -7 13
0 17 6 4 11 2 11 -5 0 -8 4 -8 15 1 12 10 13 16 3 28 -8 10 -8 13 -2 9 7 -4
17 0 24 8 7 8 16 13 20 10 5 -3 11 4 15 15 3 11 9 20 12 20 3 0 2 -8 -1 -17z
m69 -36 c0 -18 5 -32 12 -32 6 0 15 -4 20 -9 5 -5 3 -6 -5 -2 -9 6 -12 1 -8
-16 4 -23 1 -24 -44 -23 -41 1 -47 -1 -40 -15 6 -12 4 -16 -10 -17 -13 -1 -17
3 -13 14 5 12 3 14 -8 8 -12 -8 -12 -6 0 8 8 10 23 15 37 13 18 -4 21 -1 17
12 -6 15 -4 15 14 -1 27 -24 40 -5 19 28 -8 13 -12 25 -8 28 4 2 1 2 -5 1 -16
-4 -16 1 -2 28 14 25 24 15 24 -25z m-225 5 c0 -5 12 -14 26 -20 14 -7 23 -16
20 -21 -9 -14 20 -32 40 -25 18 5 18 5 1 -6 -15 -9 -22 -8 -37 5 -15 14 -22
14 -40 5 -18 -10 -21 -9 -18 2 3 7 10 13 16 13 17 0 24 12 11 21 -8 5 -10 3
-5 -7 4 -8 0 -4 -10 8 l-16 22 -38 -19 c-21 -10 -41 -16 -45 -12 -5 4 -5 2 -1
-5 4 -7 14 -10 24 -7 14 5 15 4 2 -5 -8 -5 -11 -14 -6 -18 5 -4 11 -3 13 4 3
8 11 8 30 -2 14 -7 33 -11 42 -8 9 4 13 2 8 -3 -5 -5 -37 -9 -72 -9 -58 -1
-63 1 -60 20 3 29 13 45 29 45 8 0 27 7 42 15 33 17 44 19 44 7z m201 -33 c11
-11 19 -25 19 -31 -1 -7 -11 -1 -23 15 -22 26 -37 27 -37 3 0 -6 5 -4 10 4 11
17 13 10 4 -14 -5 -12 -10 -13 -30 -4 -24 11 -33 28 -14 28 6 0 10 -5 10 -12
0 -6 3 -8 7 -4 5 4 -1 15 -12 23 -20 15 -20 15 3 10 16 -4 25 0 29 11 5 12 8
13 11 3 3 -8 13 -22 23 -32z m149 31 c0 -5 -4 -10 -9 -10 -6 0 -13 5 -16 10
-3 6 1 10 9 10 9 0 16 -4 16 -10z m-365 -49 c-12 -12 -17 -12 -30 -1 -15 12
-14 15 7 26 28 15 45 -3 23 -25z"/>
<path d="M4360 3076 c0 -2 8 -10 18 -17 15 -13 16 -12 3 4 -13 16 -21 21 -21
13z"/>
<path d="M4436 3088 c3 -5 10 -6 15 -3 13 9 11 12 -6 12 -8 0 -12 -4 -9 -9z"/>
<path d="M4750 4329 c0 -5 5 -7 10 -4 6 3 10 8 10 11 0 2 -4 4 -10 4 -5 0 -10
-5 -10 -11z"/>
<path d="M4945 4330 c-3 -6 1 -7 9 -4 18 7 21 14 7 14 -6 0 -13 -4 -16 -10z"/>
<path d="M4773 4259 c-2 -23 3 -25 10 -4 4 8 3 16 -1 19 -4 3 -9 -4 -9 -15z"/>
<path d="M4813 4235 c0 -8 4 -12 9 -9 5 3 6 10 3 15 -9 13 -12 11 -12 -6z"/>
<path d="M4815 4190 c-3 -5 -1 -10 4 -10 6 0 11 5 11 10 0 6 -2 10 -4 10 -3 0
-8 -4 -11 -10z"/>
<path d="M4756 4172 c-3 -5 1 -9 9 -9 8 0 12 4 9 9 -3 4 -7 8 -9 8 -2 0 -6 -4
-9 -8z"/>
<path d="M4974 4166 c1 -8 5 -18 8 -22 4 -3 5 1 4 10 -1 8 -5 18 -8 22 -4 3
-5 -1 -4 -10z"/>
<path d="M3215 4116 c-304 -114 -363 -136 -369 -136 -3 0 -25 -8 -49 -19 -94
-42 -157 -62 -168 -55 -8 4 -9 3 -5 -4 4 -7 2 -12 -3 -12 -10 0 -50 -15 -301
-112 -47 -18 -94 -38 -104 -44 -22 -13 -40 39 204 -604 79 -206 151 -397 161
-425 23 -62 46 -93 89 -123 42 -28 84 -24 190 17 103 41 533 203 545 206 6 1
26 9 45 18 19 8 44 17 55 19 11 1 22 6 25 10 3 4 17 9 30 10 14 2 27 6 30 10
3 3 14 8 25 10 11 1 22 5 25 9 3 3 26 13 52 23 l48 18 -15 36 c-9 20 -13 42
-10 49 2 8 0 11 -5 8 -10 -6 -26 41 -22 63 2 6 -1 12 -6 12 -4 0 -14 17 -21
38 -7 20 -21 56 -32 79 -10 24 -18 46 -17 50 0 5 -7 26 -17 48 -9 22 -18 45
-19 50 -2 6 -10 28 -20 50 -10 22 -19 50 -19 62 -1 11 -5 19 -8 17 -6 -3 -44
107 -39 115 1 2 -2 7 -7 10 -13 10 -43 102 -36 114 3 5 2 7 -4 4 -5 -3 -15 11
-22 31 -7 20 -31 84 -53 142 -22 58 -50 130 -61 160 -12 30 -23 58 -26 62 -4
3 -33 -4 -66 -16z"/>
<path d="M4810 4130 c0 -5 5 -10 11 -10 5 0 7 5 4 10 -3 6 -8 10 -11 10 -2 0
-4 -4 -4 -10z"/>
<path d="M4832 4061 c7 -9 13 -18 15 -20 1 -2 1 5 0 16 0 11 -7 20 -14 20 -10
0 -10 -4 -1 -16z"/>
<path d="M5053 4065 c0 -8 4 -12 9 -9 5 3 6 10 3 15 -9 13 -12 11 -12 -6z"/>
<path d="M4866 4052 c-3 -5 1 -9 9 -9 8 0 12 4 9 9 -3 4 -7 8 -9 8 -2 0 -6 -4
-9 -8z"/>
<path d="M4953 4045 c0 -8 4 -12 9 -9 5 3 6 10 3 15 -9 13 -12 11 -12 -6z"/>
<path d="M4980 4056 c0 -2 8 -10 18 -17 15 -13 16 -12 3 4 -13 16 -21 21 -21
13z"/>
<path d="M4910 4032 c0 -5 7 -9 15 -9 8 0 12 4 9 9 -3 4 -9 8 -15 8 -5 0 -9
-4 -9 -8z"/>
<path d="M4851 4017 c-8 -10 -7 -14 2 -14 8 0 14 6 14 14 0 7 -1 13 -2 13 -2
0 -8 -6 -14 -13z"/>
<path d="M4824 3993 c12 -22 43 -34 43 -18 0 8 -4 12 -9 9 -5 -3 -16 0 -25 8
-12 9 -15 9 -9 1z"/>
<path d="M3429 3973 c-13 -16 -12 -17 4 -4 9 7 17 15 17 17 0 8 -8 3 -21 -13z"/>
<path d="M5037 3983 c-10 -9 -9 -23 1 -23 5 0 9 7 9 15 0 17 -1 18 -10 8z"/>
<path d="M4939 3963 c-13 -16 -12 -17 4 -4 16 13 21 21 13 21 -2 0 -10 -8 -17
-17z"/>
<path d="M5265 3970 c-3 -6 1 -7 9 -4 18 7 21 14 7 14 -6 0 -13 -4 -16 -10z"/>
<path d="M5069 3933 c-13 -16 -12 -17 4 -4 16 13 21 21 13 21 -2 0 -10 -8 -17
-17z"/>
<path d="M4841 3924 c0 -11 3 -14 6 -6 3 7 2 16 -1 19 -3 4 -6 -2 -5 -13z"/>
<path d="M4951 3937 c2 -1 13 -9 24 -17 19 -14 19 -14 6 3 -7 9 -18 17 -24 17
-6 0 -8 -1 -6 -3z"/>
<path d="M5013 3923 c0 -10 4 -10 16 -1 9 7 18 13 20 15 2 1 -5 1 -16 0 -11 0
-20 -7 -20 -14z"/>
<path d="M5160 3930 c-9 -6 -10 -10 -3 -10 6 0 15 5 18 10 8 12 4 12 -15 0z"/>
<path d="M4867 3919 c7 -7 15 -10 18 -7 3 3 -2 9 -12 12 -14 6 -15 5 -6 -5z"/>
<path d="M3556 3908 c3 -5 10 -6 15 -3 13 9 11 12 -6 12 -8 0 -12 -4 -9 -9z"/>
<path d="M5195 3910 c3 -5 8 -10 11 -10 2 0 4 5 4 10 0 6 -5 10 -11 10 -5 0
-7 -4 -4 -10z"/>
<path d="M4891 3897 c2 -1 13 -9 24 -17 19 -14 19 -14 6 3 -7 9 -18 17 -24 17
-6 0 -8 -1 -6 -3z"/>
<path d="M5013 3886 c-3 -6 -3 -8 2 -4 4 4 13 3 20 -2 8 -7 12 -5 12 3 0 16
-25 18 -34 3z"/>
<path d="M5071 3877 c-8 -10 -7 -14 2 -14 8 0 14 6 14 14 0 7 -1 13 -2 13 -2
0 -8 -6 -14 -13z"/>
<path d="M3515 3870 c-3 -5 -1 -10 4 -10 6 0 11 5 11 10 0 6 -2 10 -4 10 -3 0
-8 -4 -11 -10z"/>
<path d="M3576 3868 c3 -5 10 -6 15 -3 13 9 11 12 -6 12 -8 0 -12 -4 -9 -9z"/>
<path d="M4948 3873 c6 -3 10 -9 6 -14 -8 -14 2 -11 14 4 8 10 6 13 -11 14
-12 0 -16 -1 -9 -4z"/>
<path d="M5010 3866 c0 -2 8 -10 18 -17 15 -13 16 -12 3 4 -13 16 -21 21 -21
13z"/>
<path d="M4992 3855 c4 -4 4 -13 -2 -19 -6 -8 -2 -12 13 -13 12 0 16 1 9 4 -6
3 -10 9 -7 13 3 5 0 12 -7 16 -7 4 -10 4 -6 -1z"/>
<path d="M5116 3848 c3 -5 10 -6 15 -3 13 9 11 12 -6 12 -8 0 -12 -4 -9 -9z"/>
<path d="M4912 3820 c-7 -11 -8 -20 -3 -20 9 0 24 30 18 36 -1 2 -8 -6 -15
-16z"/>
<path d="M5040 3830 c-9 -6 -10 -10 -3 -10 6 0 15 5 18 10 8 12 4 12 -15 0z"/>
<path d="M3487 3809 c7 -7 15 -10 18 -7 3 3 -2 9 -12 12 -14 6 -15 5 -6 -5z"/>
<path d="M4948 3802 c4 -11 1 -13 -8 -7 -9 5 -11 4 -6 -4 6 -9 11 -9 22 0 18
15 18 26 0 26 -8 0 -12 -6 -8 -15z"/>
<path d="M5035 3801 c-6 -11 13 -26 22 -17 4 3 1 6 -6 6 -7 0 -9 5 -6 10 3 6
4 10 1 10 -3 0 -7 -4 -11 -9z"/>
<path d="M3570 3790 c0 -5 5 -10 11 -10 5 0 7 5 4 10 -3 6 -8 10 -11 10 -2 0
-4 -4 -4 -10z"/>
<path d="M5001 3791 c-8 -5 -9 -11 -3 -15 5 -3 12 1 16 9 6 17 6 18 -13 6z"/>
<path d="M4900 3777 c8 -7 17 -23 18 -37 6 -39 12 -37 10 3 -1 27 -6 37 -22
41 -18 4 -19 3 -6 -7z"/>
<path d="M5084 3768 c-12 -14 -13 -18 -3 -10 9 6 18 10 21 7 2 -3 5 2 5 10 0
19 0 19 -23 -7z"/>
<path d="M4950 3759 c-12 -8 -10 -9 9 -4 17 5 22 4 16 -5 -5 -9 -4 -11 4 -6 6
4 9 12 6 17 -8 12 -16 11 -35 -2z"/>
<path d="M3575 3750 c-3 -5 -1 -10 4 -10 6 0 11 5 11 10 0 6 -2 10 -4 10 -3 0
-8 -4 -11 -10z"/>
<path d="M4990 3736 c-8 -16 -19 -23 -31 -21 -11 2 -19 0 -19 -6 0 -13 43 -5
48 9 2 7 7 10 11 8 4 -3 8 4 8 15 2 25 -1 24 -17 -5z"/>
<path d="M5094 3739 c-3 -6 -2 -15 3 -20 5 -5 9 -1 9 11 0 23 -2 24 -12 9z"/>
<path d="M3495 3730 c3 -5 8 -10 11 -10 2 0 4 5 4 10 0 6 -5 10 -11 10 -5 0
-7 -4 -4 -10z"/>
<path d="M5067 3721 c-4 -17 -3 -21 5 -13 5 5 8 16 6 23 -3 8 -7 3 -11 -10z"/>
<path d="M5196 3728 c3 -5 10 -6 15 -3 13 9 11 12 -6 12 -8 0 -12 -4 -9 -9z"/>
<path d="M5295 3721 c-3 -5 -2 -12 3 -15 5 -3 9 1 9 9 0 17 -3 19 -12 6z"/>
<path d="M5015 3711 c-9 -15 15 -25 28 -12 9 9 7 10 -7 5 -13 -5 -17 -4 -12 4
4 7 5 12 2 12 -3 0 -7 -4 -11 -9z"/>
<path d="M4993 3685 c0 -8 4 -15 9 -15 4 0 8 4 8 9 0 6 -4 12 -8 15 -5 3 -9
-1 -9 -9z"/>
<path d="M4956 3675 c-9 -26 -7 -32 5 -12 6 10 9 21 6 23 -2 3 -7 -2 -11 -11z"/>
<path d="M5045 3669 c-4 -6 -5 -12 -2 -15 2 -3 7 2 10 11 7 17 1 20 -8 4z"/>
<path d="M4963 3645 c-19 -21 -16 -27 7 -13 11 7 20 16 20 20 0 12 -14 9 -27
-7z"/>
<path d="M5005 3650 c-3 -6 1 -7 9 -4 18 7 21 14 7 14 -6 0 -13 -4 -16 -10z"/>
<path d="M5106 3652 c-2 -4 4 -8 14 -8 10 0 16 4 14 8 -3 4 -9 8 -14 8 -5 0
-11 -4 -14 -8z"/>
<path d="M5150 3646 c0 -2 8 -10 18 -17 15 -13 16 -12 3 4 -13 16 -21 21 -21
13z"/>
<path d="M3660 3636 c0 -2 8 -10 18 -17 15 -13 16 -12 3 4 -13 16 -21 21 -21
13z"/>
<path d="M5013 3626 c-3 -6 -3 -8 2 -4 4 4 13 1 19 -7 8 -11 15 -12 26 -4 12
9 12 10 -4 5 -13 -4 -17 -2 -13 7 6 16 -21 19 -30 3z"/>
<path d="M3631 3617 c-8 -10 -7 -14 2 -14 8 0 14 6 14 14 0 7 -1 13 -2 13 -2
0 -8 -6 -14 -13z"/>
<path d="M5133 3608 c0 -13 1 -17 4 -10 3 6 10 9 16 5 7 -4 6 1 -2 10 -17 21
-17 21 -18 -5z"/>
<path d="M4965 3610 c-3 -5 -1 -10 4 -10 6 0 11 5 11 10 0 6 -2 10 -4 10 -3 0
-8 -4 -11 -10z"/>
<path d="M5333 3601 c0 -11 5 -18 9 -15 4 3 5 11 1 19 -7 21 -12 19 -10 -4z"/>
<path d="M3535 3590 c3 -5 8 -10 11 -10 2 0 4 5 4 10 0 6 -5 10 -11 10 -5 0
-7 -4 -4 -10z"/>
<path d="M3575 3590 c-3 -5 -1 -10 4 -10 6 0 11 5 11 10 0 6 -2 10 -4 10 -3 0
-8 -4 -11 -10z"/>
<path d="M3670 3590 c0 -5 5 -10 11 -10 5 0 7 5 4 10 -3 6 -8 10 -11 10 -2 0
-4 -4 -4 -10z"/>
<path d="M5015 3590 c-8 -13 3 -30 18 -29 9 0 9 2 0 6 -7 2 -13 9 -13 14 0 6
5 7 12 3 7 -4 8 -3 4 4 -9 15 -13 15 -21 2z"/>
<path d="M5055 3590 c-3 -6 1 -7 9 -4 18 7 21 14 7 14 -6 0 -13 -4 -16 -10z"/>
<path d="M5159 3583 c-13 -16 -12 -17 4 -4 9 7 17 15 17 17 0 8 -8 3 -21 -13z"/>
<path d="M5071 3564 c0 -11 3 -14 6 -6 3 7 2 16 -1 19 -3 4 -6 -2 -5 -13z"/>
<path d="M5120 3565 c-7 -8 -9 -15 -5 -15 4 0 1 -8 -6 -17 -13 -16 -12 -17 4
-4 9 8 15 16 12 19 -3 3 0 11 6 19 6 7 9 13 6 13 -2 0 -10 -7 -17 -15z"/>
<path d="M5179 3563 c-13 -16 -12 -17 4 -4 16 13 21 21 13 21 -2 0 -10 -8 -17
-17z"/>
<path d="M3711 3543 c7 -10 15 -20 16 -22 2 -2 3 3 3 11 0 9 -7 19 -16 22 -15
6 -15 4 -3 -11z"/>
<path d="M3671 3537 c2 -1 13 -9 24 -17 19 -14 19 -14 6 3 -7 9 -18 17 -24 17
-6 0 -8 -1 -6 -3z"/>
<path d="M5068 3522 c9 -10 19 -17 21 -16 6 5 -20 34 -30 34 -5 0 -1 -8 9 -18z"/>
<path d="M5135 3529 c-4 -6 -4 -13 -1 -16 3 -4 6 -1 6 6 0 7 5 9 12 5 7 -4 8
-3 4 4 -9 15 -13 15 -21 1z"/>
<path d="M5190 3529 c0 -5 5 -7 10 -4 6 3 10 8 10 11 0 2 -4 4 -10 4 -5 0 -10
-5 -10 -11z"/>
<path d="M5007 3506 c-6 -14 4 -26 33 -40 8 -4 5 1 -8 11 -18 15 -20 21 -10
31 8 8 8 12 1 12 -6 0 -13 -6 -16 -14z"/>
<path d="M5049 3514 c6 -3 7 -12 4 -20 -3 -8 -1 -14 5 -14 14 0 8 33 -7 36 -6
1 -7 0 -2 -2z"/>
<path d="M5100 3503 c0 -19 21 -27 33 -13 9 10 9 11 -2 5 -8 -4 -17 -2 -22 6
-6 9 -9 10 -9 2z"/>
<path d="M5174 3496 c1 -8 5 -18 8 -22 4 -3 5 1 4 10 -1 8 -5 18 -8 22 -4 3
-5 -1 -4 -10z"/>
<path d="M3596 3492 c-3 -5 1 -9 9 -9 8 0 12 4 9 9 -3 4 -7 8 -9 8 -2 0 -6 -4
-9 -8z"/>
<path d="M3711 3477 c-8 -10 -7 -14 4 -14 8 0 11 5 8 10 -4 6 1 8 11 4 10 -4
15 -3 11 3 -8 14 -20 12 -34 -3z"/>
<path d="M3667 3469 c7 -7 15 -10 18 -7 3 3 -2 9 -12 12 -14 6 -15 5 -6 -5z"/>
<path d="M5072 3471 c-11 -7 -11 -9 0 -14 9 -3 15 1 15 9 0 8 -1 14 -1 14 -1
0 -7 -4 -14 -9z"/>
<path d="M5100 3461 c0 -6 4 -13 10 -16 6 -3 7 1 4 9 -7 18 -14 21 -14 7z"/>
<path d="M3610 3451 c0 -6 4 -13 10 -16 6 -3 7 1 4 9 -7 18 -14 21 -14 7z"/>
<path d="M5015 3450 c3 -5 11 -10 16 -10 6 0 7 5 4 10 -3 6 -11 10 -16 10 -6
0 -7 -4 -4 -10z"/>
<path d="M5156 3452 c-2 -4 9 -8 25 -8 33 -2 33 4 1 11 -12 2 -24 1 -26 -3z"/>
<path d="M5306 3448 c3 -5 10 -6 15 -3 13 9 11 12 -6 12 -8 0 -12 -4 -9 -9z"/>
<path d="M3693 3415 c0 -8 3 -13 5 -10 3 3 15 -3 26 -12 15 -13 14 -10 -3 10
-29 32 -28 31 -28 12z"/>
<path d="M5013 3418 c5 -17 30 -17 33 0 1 7 0 8 -3 2 -2 -5 -9 -10 -14 -10 -6
0 -7 5 -4 10 3 6 1 10 -5 10 -7 0 -10 -6 -7 -12z"/>
<path d="M5077 3419 c7 -7 15 -10 18 -7 3 3 -2 9 -12 12 -14 6 -15 5 -6 -5z"/>
<path d="M5120 3410 c-9 -6 -10 -10 -3 -10 6 0 15 5 18 10 8 12 4 12 -15 0z"/>
<path d="M5243 3408 c-10 -16 -13 -69 -3 -63 4 2 6 14 5 27 -1 13 2 29 8 36 5
6 7 12 4 12 -3 0 -9 -6 -14 -12z"/>
<path d="M5055 3401 c-8 -14 35 -35 47 -23 6 6 5 12 -3 17 -8 5 -10 4 -5 -3 8
-14 4 -15 -18 -6 -9 3 -13 10 -10 15 3 5 3 9 0 9 -3 0 -7 -4 -11 -9z"/>
<path d="M3759 3383 c-13 -16 -12 -17 4 -4 16 13 21 21 13 21 -2 0 -10 -8 -17
-17z"/>
<path d="M5202 3388 c-16 -16 -54 -17 -65 -3 -5 6 -7 4 -5 -5 6 -21 55 -20 74
2 19 20 15 25 -4 6z"/>
<path d="M5376 3392 c-3 -4 4 -9 15 -9 23 -2 25 3 4 10 -8 4 -16 3 -19 -1z"/>
<path d="M3693 3377 c0 -7 9 -14 20 -14 11 -1 18 -1 16 0 -2 2 -11 8 -20 15
-12 9 -16 9 -16 -1z"/>
<path d="M5035 3370 c27 -12 43 -12 25 0 -8 5 -22 9 -30 9 -10 0 -8 -3 5 -9z"/>
<path d="M4991 3363 c-1 -18 19 -27 32 -13 9 10 8 12 -5 7 -9 -3 -19 -1 -22 6
-3 9 -5 9 -5 0z"/>
<path d="M3748 3349 c6 -9 10 -18 7 -20 -2 -3 5 -6 17 -6 11 -1 19 -1 17 0 -2
1 -15 11 -29 22 -15 12 -20 14 -12 4z"/>
<path d="M5113 3341 c0 -11 5 -17 9 -15 4 3 8 0 8 -7 0 -7 3 -9 6 -6 4 4 2 13
-4 20 -7 8 -9 17 -5 20 3 4 1 7 -5 7 -6 0 -10 -9 -9 -19z"/>
<path d="M5037 3343 c-4 -3 -7 -11 -7 -17 0 -6 5 -5 12 2 6 6 9 14 7 17 -3 3
-9 2 -12 -2z"/>
<path d="M5073 3335 c0 -7 6 -11 14 -8 7 3 13 6 13 8 0 2 -6 5 -13 8 -8 3 -14
-1 -14 -8z"/>
<path d="M4963 3325 c-19 -21 -16 -27 7 -13 11 7 20 16 20 20 0 12 -14 9 -27
-7z"/>
<path d="M5200 3330 c-12 -7 -10 -9 7 -7 12 0 19 5 17 9 -6 10 -6 10 -24 -2z"/>
<path d="M5006 3315 c4 -8 11 -15 16 -15 6 0 5 6 -2 15 -7 8 -14 15 -16 15 -2
0 -1 -7 2 -15z"/>
<path d="M5153 3317 c0 -8 6 -14 14 -14 9 0 10 4 2 14 -6 7 -12 13 -14 13 -1
0 -2 -6 -2 -13z"/>
<path d="M5050 3316 c0 -2 11 -11 25 -20 14 -9 25 -13 25 -8 0 5 -11 14 -25
20 -14 6 -25 10 -25 8z"/>
<path d="M5273 3305 c0 -8 4 -12 9 -9 5 3 6 10 3 15 -9 13 -12 11 -12 -6z"/>
<path d="M4990 3299 c0 -5 -5 -7 -11 -3 -8 4 -8 0 0 -15 12 -22 31 -29 31 -10
0 5 -5 7 -11 3 -8 -4 -9 0 -4 15 3 11 4 21 1 21 -3 0 -6 -5 -6 -11z"/>
<path d="M3694 3288 c-4 -7 -4 -10 1 -6 4 4 15 2 24 -5 14 -11 14 -10 2 6 -16
20 -18 21 -27 5z"/>
<path d="M5030 3290 c-13 -8 -12 -10 3 -10 9 0 17 5 17 10 0 12 -1 12 -20 0z"/>
<path d="M5123 3288 c-11 -19 -12 -37 -3 -43 5 -3 7 3 5 12 -1 10 2 24 8 31 5
6 7 12 4 12 -3 0 -9 -6 -14 -12z"/>
<path d="M5379 3298 c-5 -18 -6 -38 -1 -34 7 8 12 36 6 36 -2 0 -4 -1 -5 -2z"/>
<path d="M3635 3270 c-3 -5 -1 -10 4 -10 6 0 11 5 11 10 0 6 -2 10 -4 10 -3 0
-8 -4 -11 -10z"/>
<path d="M3756 3259 c17 -19 34 -17 34 4 0 7 -4 6 -10 -3 -8 -13 -14 -8 -12
11 1 3 -6 6 -14 6 -12 0 -11 -4 2 -18z"/>
<path d="M4947 3266 c-14 -11 -15 -15 -4 -19 8 -3 20 -1 28 4 11 7 11 9 1 9
-7 0 -10 5 -7 10 8 13 4 12 -18 -4z"/>
<path d="M5055 3270 c-5 -9 -4 -11 3 -6 7 4 12 3 12 -3 0 -6 10 -16 23 -22 19
-10 20 -9 7 2 -8 8 -19 20 -26 28 -9 11 -12 12 -19 1z"/>
<path d="M5180 3276 c0 -2 8 -10 18 -17 15 -13 16 -12 3 4 -13 16 -21 21 -21
13z"/>
<path d="M5290 3269 c0 -5 5 -7 10 -4 6 3 10 8 10 11 0 2 -4 4 -10 4 -5 0 -10
-5 -10 -11z"/>
<path d="M5335 3270 c3 -5 8 -10 11 -10 2 0 4 5 4 10 0 6 -5 10 -11 10 -5 0
-7 -4 -4 -10z"/>
<path d="M3693 3255 c0 -8 4 -15 9 -15 4 0 8 4 8 9 0 6 -4 12 -8 15 -5 3 -9
-1 -9 -9z"/>
<path d="M5030 3253 c14 -7 13 -24 -2 -20 -17 3 -18 -43 -2 -50 8 -3 12 -9 9
-13 -3 -5 -2 -11 3 -14 4 -2 9 4 9 15 1 10 -4 19 -10 19 -7 0 -13 9 -14 20 -1
11 4 19 10 17 7 -1 12 4 12 12 0 8 -6 15 -13 17 -7 1 -8 0 -2 -3z"/>
<path d="M4980 3240 c-8 -5 -12 -11 -10 -14 3 -2 14 2 24 10 22 15 10 19 -14
4z"/>
<path d="M3714 3218 l-19 -23 23 19 c12 11 22 21 22 23 0 8 -8 2 -26 -19z"/>
<path d="M3836 3227 c3 -10 9 -15 12 -12 3 3 0 11 -7 18 -10 9 -11 8 -5 -6z"/>
<path d="M3774 3209 c0 -12 4 -15 12 -8 6 5 19 7 28 3 10 -4 16 -1 16 7 0 7
-3 10 -6 6 -3 -3 -16 -2 -28 3 -17 6 -22 4 -22 -11z"/>
<path d="M4950 3225 c0 -5 5 -17 10 -25 5 -8 10 -10 10 -5 0 6 -5 17 -10 25
-5 8 -10 11 -10 5z"/>
<path d="M5075 3220 c-4 -6 -11 -8 -16 -5 -5 4 -9 1 -9 -4 0 -16 16 -13 30 4
7 8 10 15 7 15 -3 0 -9 -5 -12 -10z"/>
<path d="M5134 3209 c0 -13 3 -15 13 -7 7 6 13 12 13 13 0 2 -6 5 -13 8 -7 3
-13 -3 -13 -14z"/>
<path d="M4991 3204 c0 -11 3 -14 6 -6 3 7 2 16 -1 19 -3 4 -6 -2 -5 -13z"/>
<path d="M5190 3211 c0 -6 4 -12 8 -15 5 -3 9 1 9 9 0 8 -4 15 -9 15 -4 0 -8
-4 -8 -9z"/>
<path d="M5307 3209 c7 -7 15 -10 18 -7 3 3 -2 9 -12 12 -14 6 -15 5 -6 -5z"/>
<path d="M3675 3180 c10 -11 20 -20 23 -20 3 0 -3 9 -13 20 -10 11 -20 20 -23
20 -3 0 3 -9 13 -20z"/>
<path d="M5093 3183 c-7 -2 -13 -9 -13 -14 0 -6 4 -8 9 -5 5 4 11 0 14 -6 3
-7 4 -3 4 10 -1 12 -1 22 -2 21 0 0 -6 -3 -12 -6z"/>
<path d="M3770 3171 c0 -6 4 -13 10 -16 6 -3 7 1 4 9 -7 18 -14 21 -14 7z"/>
<path d="M4907 3174 c-10 -10 4 -34 21 -34 13 0 12 3 -4 16 -17 14 -17 15 -1
10 11 -3 16 -2 12 4 -7 11 -19 13 -28 4z"/>
<path d="M4960 3170 c-8 -5 -12 -11 -10 -14 3 -2 14 2 24 10 22 15 10 19 -14
4z"/>
<path d="M4858 3139 c-19 -20 -10 -27 10 -7 6 6 15 8 19 4 4 -4 0 -12 -10 -17
-9 -6 -17 -19 -17 -30 0 -12 -4 -17 -11 -14 -6 4 -8 13 -5 21 3 8 1 14 -4 14
-6 0 -10 -9 -10 -20 0 -11 5 -20 11 -20 5 0 7 -6 3 -12 -5 -9 -2 -9 9 1 9 7
17 22 17 33 0 10 4 17 9 14 12 -8 22 20 15 39 -8 19 -15 18 -36 -6z"/>
<path d="M4979 3153 c-1 -5 -1 -12 0 -17 1 -5 -5 -6 -14 -3 -8 4 -15 2 -15 -4
0 -6 8 -9 17 -7 9 2 16 8 14 13 -1 6 8 13 21 17 l23 6 -22 1 c-13 1 -24 -2
-24 -6z"/>
<path d="M3691 3137 c-8 -10 -7 -14 2 -14 8 0 14 6 14 14 0 7 -1 13 -2 13 -2
0 -8 -6 -14 -13z"/>
<path d="M3730 3146 c0 -2 8 -10 18 -17 15 -13 16 -12 3 4 -13 16 -21 21 -21
13z"/>
<path d="M5270 3146 c0 -2 8 -10 18 -17 15 -13 16 -12 3 4 -13 16 -21 21 -21
13z"/>
<path d="M3776 3125 c-9 -26 -7 -32 5 -12 6 10 9 21 6 23 -2 3 -7 -2 -11 -11z"/>
<path d="M5010 3125 c0 -8 2 -15 4 -15 2 0 6 7 10 15 3 8 1 15 -4 15 -6 0 -10
-7 -10 -15z"/>
<path d="M5210 3129 c0 -5 5 -7 10 -4 6 3 10 8 10 11 0 2 -4 4 -10 4 -5 0 -10
-5 -10 -11z"/>
<path d="M5395 3119 c-4 -6 -5 -12 -2 -15 2 -3 7 2 10 11 7 17 1 20 -8 4z"/>
<path d="M4920 3112 c9 -4 15 -16 15 -27 0 -11 8 -21 18 -23 9 -2 17 1 17 7 0
6 -6 8 -14 5 -9 -3 -13 2 -12 18 1 16 -5 23 -19 25 -15 2 -16 1 -5 -5z"/>
<path d="M4990 3111 c0 -6 4 -13 10 -16 6 -3 7 1 4 9 -7 18 -14 21 -14 7z"/>
<path d="M5030 3109 c0 -5 5 -7 10 -4 6 3 10 8 10 11 0 2 -4 4 -10 4 -5 0 -10
-5 -10 -11z"/>
<path d="M5110 3111 c0 -6 4 -12 8 -15 5 -3 9 1 9 9 0 8 -4 15 -9 15 -4 0 -8
-4 -8 -9z"/>
<path d="M5314 3112 c4 -3 14 -7 22 -8 9 -1 13 0 10 4 -4 3 -14 7 -22 8 -9 1
-13 0 -10 -4z"/>
<path d="M3868 3087 c-3 -19 -2 -25 4 -19 6 6 8 18 6 28 -3 14 -5 12 -10 -9z"/>
<path d="M4760 3100 c-8 -5 -11 -10 -6 -10 5 0 3 -7 -4 -15 -7 -9 -11 -18 -8
-20 3 -3 11 6 18 20 7 14 17 25 22 25 5 0 6 -4 3 -10 -3 -5 -1 -10 5 -10 13 0
8 22 -6 27 -5 1 -16 -2 -24 -7z"/>
<path d="M5173 3097 c0 -8 6 -14 14 -14 9 0 10 4 2 14 -6 7 -12 13 -14 13 -1
0 -2 -6 -2 -13z"/>
<path d="M5215 3099 c-4 -6 -5 -12 -2 -15 2 -3 7 2 10 11 7 17 1 20 -8 4z"/>
<path d="M3810 3092 c0 -5 7 -9 15 -9 8 0 12 4 9 9 -3 4 -9 8 -15 8 -5 0 -9
-4 -9 -8z"/>
<path d="M4900 3090 c0 -5 5 -10 10 -10 6 0 10 5 10 10 0 6 -4 10 -10 10 -5 0
-10 -4 -10 -10z"/>
<path d="M4960 3096 c0 -2 7 -7 16 -10 8 -3 12 -2 9 4 -6 10 -25 14 -25 6z"/>
<path d="M5046 3092 c-3 -5 1 -9 9 -9 8 0 15 4 15 9 0 4 -4 8 -9 8 -6 0 -12
-4 -15 -8z"/>
<path d="M4806 3073 c-4 -4 -15 -8 -23 -8 -25 0 -24 -17 3 -50 l25 -30 -12 28
c-7 15 -16 27 -21 27 -4 0 -8 4 -8 9 0 5 11 9 25 9 21 0 23 -3 14 -14 -10 -12
-9 -13 5 -8 18 7 19 13 8 32 -5 7 -12 9 -16 5z"/>
<path d="M5315 3070 c3 -5 8 -10 11 -10 2 0 4 5 4 10 0 6 -5 10 -11 10 -5 0
-7 -4 -4 -10z"/>
<path d="M3782 3054 c10 -10 20 -16 22 -13 3 3 -5 11 -17 18 -21 13 -21 12 -5
-5z"/>
<path d="M4893 3050 c2 -15 8 -24 16 -22 8 2 11 -3 8 -13 -4 -8 -2 -15 4 -15
6 0 9 7 7 16 -2 8 -7 15 -13 14 -5 -1 -13 9 -17 22 -7 22 -7 22 -5 -2z"/>
<path d="M4922 3054 c10 -10 20 -16 22 -13 3 3 -5 11 -17 18 -21 13 -21 12 -5
-5z"/>
<path d="M4976 3055 c-3 -8 -1 -15 4 -15 6 0 10 7 10 15 0 8 -2 15 -4 15 -2 0
-6 -7 -10 -15z"/>
<path d="M3885 3050 c3 -5 8 -10 11 -10 2 0 4 5 4 10 0 6 -5 10 -11 10 -5 0
-7 -4 -4 -10z"/>
<path d="M5027 3046 c5 -14 3 -17 -7 -11 -9 5 -11 4 -6 -4 4 -6 11 -9 16 -6 4
3 10 0 12 -7 3 -7 7 -4 12 7 4 11 4 16 0 12 -4 -4 -13 1 -21 11 -12 16 -13 16
-6 -2z"/>
<path d="M5113 3040 c5 -29 13 -33 13 -5 0 14 -4 25 -8 25 -4 0 -7 -9 -5 -20z"/>
<path d="M3756 3037 c3 -10 9 -15 12 -12 3 3 0 11 -7 18 -10 9 -11 8 -5 -6z"/>
<path d="M3825 3029 c-3 -4 2 -6 10 -5 21 3 28 13 10 13 -9 0 -18 -4 -20 -8z"/>
<path d="M4740 3033 c0 -13 39 -58 45 -52 2 3 -7 18 -20 33 -14 16 -25 25 -25
19z"/>
<path d="M4838 3027 c-9 -9 -19 -13 -23 -9 -4 4 -2 -3 6 -15 7 -12 17 -19 21
-17 4 3 8 -2 8 -10 0 -9 5 -16 10 -16 14 0 -5 37 -21 42 -7 2 -5 9 5 17 14 11
16 11 16 -3 0 -19 16 -21 26 -3 4 6 4 9 -1 5 -4 -4 -13 -1 -20 8 -10 15 -13
15 -27 1z"/>
<path d="M5070 3036 c0 -2 7 -7 16 -10 8 -3 12 -2 9 4 -6 10 -25 14 -25 6z"/>
<path d="M5157 3022 c-15 -16 -15 -19 -2 -19 8 0 13 3 10 5 -3 3 0 11 6 19 17
20 5 16 -14 -5z"/>
<path d="M5290 3030 c0 -5 5 -10 11 -10 5 0 7 5 4 10 -3 6 -8 10 -11 10 -2 0
-4 -4 -4 -10z"/>
<path d="M4950 3019 c0 -5 5 -7 10 -4 6 3 10 8 10 11 0 2 -4 4 -10 4 -5 0 -10
-5 -10 -11z"/>
<path d="M4990 3021 c13 -10 13 -12 0 -22 -13 -9 -13 -10 0 -6 8 2 15 10 15
17 0 7 -7 15 -15 17 -13 4 -13 3 0 -6z"/>
<path d="M3852 3011 c-11 -7 -11 -9 0 -14 9 -3 15 1 15 9 0 8 -1 14 -1 14 -1
0 -7 -4 -14 -9z"/>
<path d="M3900 3005 c-11 -13 -10 -14 4 -9 9 3 16 10 16 15 0 13 -6 11 -20 -6z"/>
<path d="M4322 2999 c-19 -30 -8 -34 12 -4 9 14 13 25 9 25 -5 0 -14 -9 -21
-21z"/>
<path d="M4660 3010 c0 -5 5 -10 10 -10 6 0 10 5 10 10 0 6 -4 10 -10 10 -5 0
-10 -4 -10 -10z"/>
<path d="M4690 3012 c0 -5 11 -14 25 -20 15 -7 25 -8 25 -2 0 6 -7 10 -15 10
-8 0 -15 5 -15 10 0 6 -4 10 -10 10 -5 0 -10 -4 -10 -8z"/>
<path d="M4140 2999 c0 -5 -4 -8 -8 -5 -4 2 -14 0 -22 -5 -11 -7 -9 -8 9 -6
21 3 45 27 27 27 -3 0 -6 -5 -6 -11z"/>
<path d="M4331 2972 c-23 -26 -24 -26 -32 -7 -5 14 -8 16 -8 4 -1 -23 9 -30
31 -18 14 8 26 5 51 -11 l32 -22 -27 24 c-28 23 -37 48 -19 48 5 0 12 -7 14
-15 4 -12 5 -11 3 1 -2 27 -19 26 -45 -4z"/>
<path d="M4390 2990 c0 -5 5 -10 10 -10 6 0 10 5 10 10 0 6 -4 10 -10 10 -5 0
-10 -4 -10 -10z"/>
<path d="M4687 2974 c3 -8 14 -19 25 -25 13 -7 18 -7 14 -1 -3 6 0 13 6 16 7
3 2 3 -11 0 -14 -4 -21 -2 -17 4 3 5 -1 12 -9 15 -9 4 -12 1 -8 -9z"/>
<path d="M4752 2975 c0 -11 -3 -28 -7 -37 -5 -12 -3 -18 6 -18 7 0 9 3 6 6 -3
4 -2 14 3 23 5 10 5 23 0 31 -7 12 -9 10 -8 -5z"/>
<path d="M4877 2979 c7 -7 15 -10 18 -7 3 3 -2 9 -12 12 -14 6 -15 5 -6 -5z"/>
<path d="M5084 2972 c23 -26 23 -26 23 -7 0 8 -3 13 -5 10 -3 -3 -12 1 -21 7
-10 8 -9 4 3 -10z"/>
<path d="M5130 2987 c0 -2 6 -10 14 -16 11 -9 16 -9 22 1 4 7 4 10 -1 6 -4 -4
-14 -3 -22 3 -7 6 -13 9 -13 6z"/>
<path d="M3746 2968 c3 -5 10 -6 15 -3 13 9 11 12 -6 12 -8 0 -12 -4 -9 -9z"/>
<path d="M3830 2971 c0 -6 4 -12 8 -15 5 -3 9 1 9 9 0 8 -4 15 -9 15 -4 0 -8
-4 -8 -9z"/>
<path d="M4140 2960 c-6 -11 -9 -20 -8 -20 2 0 11 9 21 20 9 11 13 20 7 20 -5
0 -14 -9 -20 -20z"/>
<path d="M4210 2970 c0 -5 5 -10 10 -10 6 0 10 5 10 10 0 6 -4 10 -10 10 -5 0
-10 -4 -10 -10z"/>
<path d="M4441 2971 c-1 -8 -9 -20 -18 -27 -16 -12 -16 -15 -3 -24 18 -12 42
-9 40 5 -1 5 7 13 17 17 16 7 16 8 -2 5 -11 -2 -19 -9 -17 -15 1 -7 -4 -12
-11 -12 -23 0 -28 12 -10 25 8 6 13 18 10 26 -5 12 -6 12 -6 0z"/>
<path d="M4460 2971 c0 -10 39 -11 45 -2 2 5 -7 9 -20 9 -14 0 -25 -3 -25 -7z"/>
<path d="M4787 2963 c-21 -23 -16 -57 9 -60 14 -2 15 -1 4 5 -8 4 -17 16 -19
27 -3 19 -2 19 16 2 11 -9 24 -17 29 -17 4 0 -2 7 -14 16 -12 8 -20 20 -17 25
9 13 25 11 23 -3 -2 -7 8 -14 22 -15 24 -2 24 -2 2 5 -13 4 -23 11 -22 17 3
17 -16 16 -33 -2z"/>
<path d="M4970 2976 c0 -2 7 -7 16 -10 8 -3 12 -2 9 4 -6 10 -25 14 -25 6z"/>
<path d="M4110 2960 c-9 -6 -10 -10 -3 -10 6 0 15 5 18 10 8 12 4 12 -15 0z"/>
<path d="M4175 2961 c-3 -5 0 -13 6 -17 7 -4 9 -3 5 4 -3 5 0 13 6 15 9 4 10
6 1 6 -6 1 -14 -3 -18 -8z"/>
<path d="M4390 2960 c0 -5 5 -10 10 -10 6 0 10 5 10 10 0 6 -4 10 -10 10 -5 0
-10 -4 -10 -10z"/>
<path d="M4910 2961 c0 -7 -5 -9 -12 -5 -7 5 -8 3 -3 -5 5 -9 10 -10 18 -2 6
6 8 14 4 18 -4 3 -7 1 -7 -6z"/>
<path d="M4033 2945 c0 -8 4 -12 9 -9 4 3 8 9 8 15 0 5 -4 9 -8 9 -5 0 -9 -7
-9 -15z"/>
<path d="M5040 2945 c-11 -13 -11 -18 0 -28 10 -9 11 -9 6 1 -4 7 -2 19 4 27
7 8 10 15 7 15 -2 0 -10 -7 -17 -15z"/>
<path d="M5210 2950 c0 -5 5 -10 11 -10 5 0 7 5 4 10 -3 6 -8 10 -11 10 -2 0
-4 -4 -4 -10z"/>
<path d="M5256 2952 c-3 -5 1 -9 9 -9 8 0 12 4 9 9 -3 4 -7 8 -9 8 -2 0 -6 -4
-9 -8z"/>
<path d="M3950 2946 c0 -2 8 -10 18 -17 15 -13 16 -12 3 4 -13 16 -21 21 -21
13z"/>
<path d="M3995 2939 c-4 -6 -5 -12 -2 -15 2 -3 7 2 10 11 7 17 1 20 -8 4z"/>
<path d="M4196 2933 c-6 -14 -5 -15 5 -6 7 7 10 15 7 18 -3 3 -9 -2 -12 -12z"/>
<path d="M4683 2932 c4 -15 -2 -27 -16 -37 -12 -8 -17 -15 -13 -15 5 0 18 7
28 17 17 15 18 15 18 -5 0 -12 -5 -21 -11 -19 -6 1 -13 -4 -14 -11 -2 -7 -1
-8 2 -2 2 5 9 8 14 4 18 -11 21 27 4 59 -11 22 -15 25 -12 9z"/>
<path d="M5011 2934 c0 -11 3 -14 6 -6 3 7 2 16 -1 19 -3 4 -6 -2 -5 -13z"/>
<path d="M3806 2928 c3 -5 10 -6 15 -3 13 9 11 12 -6 12 -8 0 -12 -4 -9 -9z"/>
<path d="M4147 2934 c-4 -4 -7 -12 -7 -18 0 -6 5 -4 10 4 9 13 11 13 21 0 9
-12 10 -12 7 -1 -5 17 -21 25 -31 15z"/>
<path d="M4265 2929 c-4 -6 -4 -13 -1 -16 3 -4 6 -1 6 6 0 7 5 9 10 6 6 -3 10
-1 10 4 0 14 -17 14 -25 0z"/>
<path d="M4315 2930 c-13 -6 -15 -9 -5 -9 8 0 22 4 30 9 18 12 2 12 -25 0z"/>
<path d="M4711 2923 c7 -12 15 -20 18 -17 3 2 -3 12 -13 22 -17 16 -18 16 -5
-5z"/>
<path d="M4862 2932 c-8 -6 -2 -9 18 -9 20 0 26 3 18 9 -7 4 -15 8 -18 8 -3 0
-11 -4 -18 -8z"/>
<path d="M4943 2929 c9 -6 21 -8 26 -4 5 3 12 0 14 -5 3 -6 5 -5 3 1 -1 7 -15
13 -31 15 -24 2 -27 1 -12 -7z"/>
<path d="M5075 2932 c3 -3 0 -10 -5 -17 -7 -8 -5 -12 5 -12 8 0 13 3 10 5 -3
3 0 10 5 17 7 8 5 12 -5 12 -8 0 -13 -3 -10 -5z"/>
<path d="M4476 2915 c-9 -26 -7 -32 5 -12 6 10 9 21 6 23 -2 3 -7 -2 -11 -11z"/>
<path d="M4600 2920 c-9 -6 -10 -10 -3 -10 6 0 15 5 18 10 8 12 4 12 -15 0z"/>
<path d="M3754 2912 c4 -3 14 -7 22 -8 9 -1 13 0 10 4 -4 3 -14 7 -22 8 -9 1
-13 0 -10 -4z"/>
<path d="M4348 2913 c6 -2 18 -2 25 0 6 3 1 5 -13 5 -14 0 -19 -2 -12 -5z"/>
<path d="M4506 2905 c-11 -8 -16 -18 -11 -22 4 -5 10 -3 12 4 2 7 10 10 18 7
8 -3 11 -13 8 -22 -5 -14 -4 -15 8 -4 12 11 11 15 -3 26 -10 7 -15 16 -11 19
11 12 -1 7 -21 -8z"/>
<path d="M4923 2912 c-7 -4 -9 -13 -4 -21 6 -9 10 -7 14 8 3 12 4 21 4 21 -1
0 -7 -4 -14 -8z"/>
<path d="M4063 2894 c9 -12 14 -23 11 -26 -3 -3 0 -9 7 -14 7 -4 10 -3 5 4 -3
5 -2 12 3 14 5 1 -3 12 -17 22 -27 20 -27 20 -9 0z"/>
<path d="M4202 2894 c10 -10 20 -16 22 -13 3 3 -5 11 -17 18 -21 13 -21 12 -5
-5z"/>
<path d="M4290 2895 c0 -8 4 -15 10 -15 5 0 7 7 4 15 -4 8 -8 15 -10 15 -2 0
-4 -7 -4 -15z"/>
<path d="M4315 2900 c3 -5 8 -10 11 -10 2 0 4 5 4 10 0 6 -5 10 -11 10 -5 0
-7 -4 -4 -10z"/>
<path d="M4390 2900 c0 -5 5 -10 10 -10 6 0 10 5 10 10 0 6 -4 10 -10 10 -5 0
-10 -4 -10 -10z"/>
<path d="M4867 2897 c-3 -8 1 -14 8 -14 7 0 11 6 8 14 -3 7 -6 13 -8 13 -2 0
-5 -6 -8 -13z"/>
<path d="M5110 2906 c0 -2 8 -10 18 -17 15 -13 16 -12 3 4 -13 16 -21 21 -21
13z"/>
<path d="M3973 2885 c0 -8 4 -12 9 -9 4 3 8 9 8 15 0 5 -4 9 -8 9 -5 0 -9 -7
-9 -15z"/>
<path d="M4033 2883 c0 -11 7 -20 14 -20 10 0 10 4 1 16 -7 9 -13 18 -15 20
-1 2 -1 -5 0 -16z"/>
<path d="M4144 2892 c4 -3 14 -7 22 -8 9 -1 13 0 10 4 -4 3 -14 7 -22 8 -9 1
-13 0 -10 -4z"/>
<path d="M4255 2890 c-3 -5 -1 -10 4 -10 6 0 11 5 11 10 0 6 -2 10 -4 10 -3 0
-8 -4 -11 -10z"/>
<path d="M4350 2886 c7 -7 13 -7 20 0 6 6 3 10 -10 10 -13 0 -16 -4 -10 -10z"/>
<path d="M4430 2886 c7 -7 13 -7 20 0 6 6 3 10 -10 10 -13 0 -16 -4 -10 -10z"/>
<path d="M4610 2896 c0 -2 7 -7 16 -10 8 -3 12 -2 9 4 -6 10 -25 14 -25 6z"/>
<path d="M4740 2896 c0 -2 7 -6 15 -10 8 -3 15 -1 15 4 0 6 -7 10 -15 10 -8 0
-15 -2 -15 -4z"/>
<path d="M4989 2887 c6 -8 9 -16 6 -19 -3 -2 2 -5 10 -5 13 0 13 3 -2 19 -19
21 -31 25 -14 5z"/>
<path d="M5230 2896 c0 -2 7 -7 16 -10 8 -3 12 -2 9 4 -6 10 -25 14 -25 6z"/>
<path d="M4784 2874 c-18 -14 -18 -14 6 -3 31 14 36 19 24 19 -6 0 -19 -7 -30
-16z"/>
<path d="M4374 2868 c-3 -5 -3 -12 0 -15 3 -4 6 -2 6 3 0 5 9 10 20 10 11 0
20 -6 20 -13 0 -7 5 -13 10 -13 7 0 8 6 2 17 -11 18 -49 25 -58 11z"/>
<path d="M4454 2869 c-3 -6 -3 -13 0 -16 3 -4 6 -1 6 6 0 7 5 9 10 6 6 -4 7
-11 4 -17 -4 -7 -2 -8 4 -4 7 4 12 11 12 16 0 13 -29 20 -36 9z"/>
<path d="M4574 2868 c-3 -5 -3 -12 0 -15 3 -4 6 -2 6 3 0 5 9 10 20 11 11 1
19 -3 17 -10 -1 -6 8 -12 20 -13 15 -1 20 3 15 14 -4 11 -7 12 -10 4 -5 -16
-23 -16 -19 0 2 14 -41 20 -49 6z"/>
<path d="M4735 2869 c-4 -6 -5 -12 -2 -15 2 -3 7 2 10 11 7 17 1 20 -8 4z"/>
<path d="M4833 2858 c-2 -18 0 -20 7 -8 12 18 13 30 2 30 -4 0 -9 -10 -9 -22z"/>
<path d="M4166 2853 c-6 -14 -5 -15 5 -6 7 7 10 15 7 18 -3 3 -9 -2 -12 -12z"/>
<path d="M4233 2851 c0 -11 5 -17 9 -15 5 3 6 9 3 14 -3 4 1 11 7 13 8 4 7 6
-4 6 -11 1 -16 -6 -15 -18z"/>
<path d="M4278 2863 c7 -3 16 -2 19 1 4 3 -2 6 -13 5 -11 0 -14 -3 -6 -6z"/>
<path d="M4511 2860 c0 -8 4 -22 9 -30 12 -18 12 -2 0 25 -6 13 -9 15 -9 5z"/>
<path d="M4115 2852 c3 -3 -1 -12 -8 -21 -10 -14 -10 -14 5 -3 9 8 22 11 27 7
6 -3 8 0 5 8 -2 7 -11 14 -19 14 -8 0 -13 -3 -10 -5z"/>
<path d="M4300 2850 c-18 -12 -2 -12 25 0 13 6 15 9 5 9 -8 0 -22 -4 -30 -9z"/>
<path d="M4545 2850 c-3 -5 -1 -10 4 -10 6 0 11 5 11 10 0 6 -2 10 -4 10 -3 0
-8 -4 -11 -10z"/>
<path d="M4750 2850 c0 -5 5 -10 11 -10 5 0 7 5 4 10 -3 6 -8 10 -11 10 -2 0
-4 -4 -4 -10z"/>
<path d="M4886 2848 c3 -5 10 -6 15 -3 13 9 11 12 -6 12 -8 0 -12 -4 -9 -9z"/>
<path d="M4396 2837 c3 -10 9 -15 12 -12 3 3 0 11 -7 18 -10 9 -11 8 -5 -6z"/>
<path d="M4596 2837 c3 -10 9 -15 12 -12 3 3 0 11 -7 18 -10 9 -11 8 -5 -6z"/>
<path d="M4690 2841 c0 -6 4 -13 10 -16 6 -3 7 1 4 9 -7 18 -14 21 -14 7z"/>
<path d="M4066 2828 c3 -5 10 -6 15 -3 13 9 11 12 -6 12 -8 0 -12 -4 -9 -9z"/>
<path d="M4374 2832 c3 -5 0 -13 -6 -15 -9 -4 -10 -6 -1 -6 17 -1 25 16 12 25
-7 4 -9 3 -5 -4z"/>
<path d="M4457 2827 c3 -5 14 -7 24 -4 11 3 19 4 19 2 0 -2 3 -11 7 -21 5 -13
3 -15 -7 -9 -9 6 -11 4 -5 -4 5 -9 11 -9 17 -3 16 16 -6 45 -35 46 -14 1 -23
-2 -20 -7z"/>
<path d="M4565 2830 c-5 -8 -4 -11 2 -7 6 4 14 0 17 -9 9 -22 8 -26 -6 -18 -7
4 -8 3 -4 -5 7 -11 26 -6 26 8 0 4 -6 15 -13 26 -11 14 -16 15 -22 5z"/>
<path d="M4670 2835 c0 -5 5 -17 10 -25 5 -8 10 -10 10 -5 0 6 -5 17 -10 25
-5 8 -10 11 -10 5z"/>
<path d="M4734 2832 c3 -5 0 -13 -6 -15 -9 -4 -10 -6 -1 -6 17 -1 25 16 12 25
-7 4 -9 3 -5 -4z"/>
<path d="M4961 2826 c-9 -11 -9 -16 1 -22 7 -4 10 -4 6 1 -4 4 -3 14 3 22 6 7
9 13 6 13 -2 0 -10 -6 -16 -14z"/>
<path d="M4173 2815 c0 -8 3 -13 5 -10 3 3 11 0 19 -7 7 -6 16 -8 20 -4 3 3 1
6 -6 6 -7 0 -9 5 -5 13 4 6 4 9 -1 5 -4 -4 -13 -3 -20 2 -8 7 -12 5 -12 -5z"/>
<path d="M4307 2817 c-3 -8 1 -14 9 -14 16 0 19 13 5 21 -5 3 -11 0 -14 -7z"/>
<path d="M4893 2815 c0 -8 3 -13 5 -10 3 3 12 -1 21 -7 10 -8 9 -4 -3 10 -23
26 -23 26 -23 7z"/>
<path d="M3800 2810 c-8 -5 -10 -10 -5 -10 6 0 17 5 25 10 8 5 11 10 5 10 -5
0 -17 -5 -25 -10z"/>
<path d="M4120 2815 c0 -2 6 -8 13 -14 10 -8 14 -7 14 2 0 8 -6 14 -14 14 -7
0 -13 -1 -13 -2z"/>
<path d="M4273 2802 c2 -12 6 -24 10 -28 3 -4 4 4 2 16 -2 12 -7 25 -10 28 -3
3 -4 -4 -2 -16z"/>
<path d="M4432 2811 c-11 -6 -10 -10 4 -15 9 -3 19 -4 22 -1 3 3 0 5 -7 5 -7
0 -9 5 -6 10 7 12 4 12 -13 1z"/>
<path d="M4546 2807 c3 -10 9 -15 12 -12 3 3 0 11 -7 18 -10 9 -11 8 -5 -6z"/>
<path d="M4628 2813 c6 -2 18 -2 25 0 6 3 1 5 -13 5 -14 0 -19 -2 -12 -5z"/>
<path d="M4775 2810 c-6 -9 -4 -11 5 -5 10 6 12 4 7 -7 -6 -16 17 -20 28 -5 3
4 2 5 -2 2 -3 -3 -11 3 -18 12 -9 13 -14 13 -20 3z"/>
<path d="M4993 2801 c0 -11 5 -18 9 -15 4 3 5 11 1 19 -7 21 -12 19 -10 -4z"/>
<path d="M5100 2816 c0 -2 8 -10 18 -17 15 -13 16 -12 3 4 -13 16 -21 21 -21
13z"/>
<path d="M3876 2788 c3 -4 11 -5 19 -1 21 7 19 12 -4 10 -11 0 -18 -5 -15 -9z"/>
<path d="M4070 2788 c0 -4 4 -8 9 -8 6 0 12 4 15 8 3 5 -1 9 -9 9 -8 0 -15 -4
-15 -9z"/>
<path d="M4350 2782 c9 -19 30 -23 30 -5 0 4 -3 3 -7 0 -3 -4 -12 1 -20 11
-13 15 -13 15 -3 -6z"/>
<path d="M4393 2780 c1 -21 10 -18 13 5 1 8 -2 15 -6 15 -5 0 -8 -9 -7 -20z"/>
<path d="M4830 2796 c0 -2 7 -7 16 -10 8 -3 12 -2 9 4 -6 10 -25 14 -25 6z"/>
<path d="M5175 2791 c-3 -5 -2 -12 3 -15 5 -3 9 1 9 9 0 17 -3 19 -12 6z"/>
<path d="M4179 2778 c15 -21 31 -23 31 -6 0 6 -3 8 -7 5 -3 -4 -13 -1 -22 6
-14 11 -14 10 -2 -5z"/>
<path d="M4675 2780 c-4 -6 -9 -8 -13 -6 -4 2 -16 -2 -27 -10 -10 -8 -14 -14
-8 -14 7 0 15 5 18 10 4 6 9 8 13 6 4 -2 16 2 27 10 10 8 14 14 8 14 -7 0 -15
-5 -18 -10z"/>
<path d="M4250 2771 c0 -6 4 -13 10 -16 6 -3 7 1 4 9 -7 18 -14 21 -14 7z"/>
<path d="M4440 2765 c-19 -22 -8 -25 13 -3 9 10 13 18 8 18 -5 0 -14 -7 -21
-15z"/>
<path d="M4526 2768 c3 -4 9 -8 15 -8 5 0 9 4 9 8 0 5 -7 9 -15 9 -8 0 -12 -4
-9 -9z"/>
<path d="M4315 2750 c2 -12 7 -25 10 -28 3 -3 4 4 2 16 -2 12 -6 24 -10 28 -3
4 -4 -4 -2 -16z"/>
<path d="M4795 2760 c3 -5 8 -10 11 -10 2 0 4 5 4 10 0 6 -5 10 -11 10 -5 0
-7 -4 -4 -10z"/>
<path d="M4829 2753 c-13 -16 -12 -17 4 -4 16 13 21 21 13 21 -2 0 -10 -8 -17
-17z"/>
<path d="M3970 2750 c0 -5 5 -10 11 -10 5 0 7 5 4 10 -3 6 -8 10 -11 10 -2 0
-4 -4 -4 -10z"/>
<path d="M4156 2743 c-6 -14 -5 -15 5 -6 7 7 10 15 7 18 -3 3 -9 -2 -12 -12z"/>
<path d="M4230 2753 c0 -6 6 -15 13 -20 15 -10 68 -12 62 -3 -3 4 -16 6 -30 5
-15 -2 -29 3 -35 13 -5 10 -10 12 -10 5z"/>
<path d="M4348 2748 c5 -5 16 -8 23 -6 8 3 3 7 -10 11 -17 4 -21 3 -13 -5z"/>
<path d="M4708 2753 c10 -4 9 -10 -5 -26 -12 -15 -13 -18 -2 -9 9 6 19 10 22
7 4 -3 5 -2 2 2 -3 3 -1 11 5 17 6 8 2 12 -13 13 -12 0 -16 -1 -9 -4z"/>
<path d="M4753 2753 c4 -3 1 -13 -6 -22 -11 -14 -10 -14 5 -2 16 12 16 31 1
31 -4 0 -3 -3 0 -7z"/>
<path d="M5055 2750 c3 -5 8 -10 11 -10 2 0 4 5 4 10 0 6 -5 10 -11 10 -5 0
-7 -4 -4 -10z"/>
<path d="M4458 2738 c5 -5 16 -8 23 -6 8 3 3 7 -10 11 -17 4 -21 3 -13 -5z"/>
<path d="M4194 2725 c3 -23 12 -26 13 -5 1 11 -2 20 -7 20 -4 0 -7 -7 -6 -15z"/>
<path d="M4613 2723 c0 -9 4 -10 14 -2 7 6 13 12 13 14 0 1 -6 2 -13 2 -8 0
-14 -6 -14 -14z"/>
<path d="M5017 2725 c-4 -8 -3 -16 1 -19 4 -3 9 4 9 15 2 23 -3 25 -10 4z"/>
<path d="M4349 2713 c-13 -16 -12 -17 4 -4 16 13 21 21 13 21 -2 0 -10 -8 -17
-17z"/>
<path d="M4435 2721 c-3 -5 -2 -12 3 -15 5 -3 9 1 9 9 0 17 -3 19 -12 6z"/>
<path d="M4016 2712 c-3 -4 4 -9 15 -9 23 -2 25 3 4 10 -8 4 -16 3 -19 -1z"/>
<path d="M4465 2709 c-3 -4 2 -6 10 -5 21 3 28 13 10 13 -9 0 -18 -4 -20 -8z"/>
<path d="M4636 2712 c-3 -5 1 -9 9 -9 8 0 12 4 9 9 -3 4 -7 8 -9 8 -2 0 -6 -4
-9 -8z"/>
<path d="M4826 2708 c3 -4 9 -8 15 -8 5 0 9 4 9 8 0 5 -7 9 -15 9 -8 0 -12 -4
-9 -9z"/>
<path d="M4975 2710 c3 -5 8 -10 11 -10 2 0 4 5 4 10 0 6 -5 10 -11 10 -5 0
-7 -4 -4 -10z"/>
<path d="M5055 2711 c-3 -5 -2 -12 3 -15 5 -3 9 1 9 9 0 17 -3 19 -12 6z"/>
<path d="M4377 2703 c-10 -9 -9 -23 1 -23 5 0 9 7 9 15 0 17 -1 18 -10 8z"/>
<path d="M4570 2700 c-11 -7 -11 -10 -2 -10 8 0 10 -5 6 -12 -4 -7 -3 -9 1 -5
7 6 17 37 12 37 -1 0 -9 -5 -17 -10z"/>
<path d="M4735 2700 c-4 -6 -10 -8 -14 -6 -4 3 -8 -1 -8 -9 0 -13 4 -12 19 2
18 16 22 23 14 23 -3 0 -8 -5 -11 -10z"/>
<path d="M4869 2693 c-13 -16 -12 -17 4 -4 9 7 17 15 17 17 0 8 -8 3 -21 -13z"/>
<path d="M4404 2692 c4 -3 14 -7 22 -8 9 -1 13 0 10 4 -4 3 -14 7 -22 8 -9 1
-13 0 -10 -4z"/>
<path d="M4499 2683 c-13 -16 -12 -17 4 -4 9 7 17 15 17 17 0 8 -8 3 -21 -13z"/>
<path d="M4794 2686 c1 -8 5 -18 8 -22 4 -3 5 1 4 10 -1 8 -5 18 -8 22 -4 3
-5 -1 -4 -10z"/>
<path d="M3956 2663 c-6 -14 -5 -15 5 -6 7 7 10 15 7 18 -3 3 -9 -2 -12 -12z"/>
<path d="M4979 2678 c-5 -18 -6 -38 -1 -34 7 8 12 36 6 36 -2 0 -4 -1 -5 -2z"/>
<path d="M5075 2659 c-4 -6 -5 -12 -2 -15 2 -3 7 2 10 11 7 17 1 20 -8 4z"/>
<path d="M4040 2645 c-7 -9 -11 -17 -9 -20 3 -2 10 5 17 15 14 24 10 26 -8 5z"/>
<path d="M4465 2649 c-3 -4 2 -6 10 -5 21 3 28 13 10 13 -9 0 -18 -4 -20 -8z"/>
<path d="M4510 2648 c0 -6 3 -8 7 -5 3 4 13 1 22 -6 14 -11 14 -10 2 6 -15 20
-31 22 -31 5z"/>
<path d="M4937 2645 c-4 -8 -3 -16 1 -19 4 -3 9 4 9 15 2 23 -3 25 -10 4z"/>
<path d="M4074 2632 c4 -3 14 -7 22 -8 9 -1 13 0 10 4 -4 3 -14 7 -22 8 -9 1
-13 0 -10 -4z"/>
<path d="M4135 2629 c-3 -4 2 -6 10 -5 21 3 28 13 10 13 -9 0 -18 -4 -20 -8z"/>
<path d="M4456 2617 c3 -10 9 -15 12 -12 3 3 0 11 -7 18 -10 9 -11 8 -5 -6z"/>
<path d="M4745 2610 c10 -11 20 -20 23 -20 3 0 -3 9 -13 20 -10 11 -20 20 -23
20 -3 0 3 -9 13 -20z"/>
<path d="M4179 2618 c-5 -18 -6 -38 -1 -34 7 8 12 36 6 36 -2 0 -4 -1 -5 -2z"/>
<path d="M4490 2609 c0 -5 5 -7 10 -4 6 3 10 8 10 11 0 2 -4 4 -10 4 -5 0 -10
-5 -10 -11z"/>
<path d="M4206 2592 c-3 -5 1 -9 9 -9 8 0 12 4 9 9 -3 4 -7 8 -9 8 -2 0 -6 -4
-9 -8z"/>
<path d="M4255 2590 c3 -5 8 -10 11 -10 2 0 4 5 4 10 0 6 -5 10 -11 10 -5 0
-7 -4 -4 -10z"/>
<path d="M4295 2590 c3 -5 8 -10 11 -10 2 0 4 5 4 10 0 6 -5 10 -11 10 -5 0
-7 -4 -4 -10z"/>
<path d="M4330 2589 c0 -5 5 -7 10 -4 6 3 10 8 10 11 0 2 -4 4 -10 4 -5 0 -10
-5 -10 -11z"/>
<path d="M4859 2598 c-5 -18 -6 -38 -1 -34 7 8 12 36 6 36 -2 0 -4 -1 -5 -2z"/>
<path d="M4935 2591 c-3 -5 -2 -12 3 -15 5 -3 9 1 9 9 0 17 -3 19 -12 6z"/>
<path d="M4435 2581 c-3 -5 -2 -12 3 -15 5 -3 9 1 9 9 0 17 -3 19 -12 6z"/>
<path d="M4593 2575 c0 -8 4 -12 9 -9 5 3 6 10 3 15 -9 13 -12 11 -12 -6z"/>
<path d="M4774 2566 c1 -8 5 -18 8 -22 4 -3 5 1 4 10 -1 8 -5 18 -8 22 -4 3
-5 -1 -4 -10z"/>
<path d="M3826 2548 c3 -5 10 -6 15 -3 13 9 11 12 -6 12 -8 0 -12 -4 -9 -9z"/>
<path d="M4256 2552 c-3 -5 1 -9 9 -9 8 0 12 4 9 9 -3 4 -7 8 -9 8 -2 0 -6 -4
-9 -8z"/>
<path d="M4330 2550 c0 -5 5 -10 11 -10 5 0 7 5 4 10 -3 6 -8 10 -11 10 -2 0
-4 -4 -4 -10z"/>
<path d="M4495 2550 c3 -5 8 -10 11 -10 2 0 4 5 4 10 0 6 -5 10 -11 10 -5 0
-7 -4 -4 -10z"/>
<path d="M4535 2550 c3 -5 8 -10 11 -10 2 0 4 5 4 10 0 6 -5 10 -11 10 -5 0
-7 -4 -4 -10z"/>
<path d="M4186 2532 c-3 -5 1 -9 9 -9 8 0 12 4 9 9 -3 4 -7 8 -9 8 -2 0 -6 -4
-9 -8z"/>
<path d="M4430 2530 c0 -5 5 -10 11 -10 5 0 7 5 4 10 -3 6 -8 10 -11 10 -2 0
-4 -4 -4 -10z"/>
<path d="M4815 2529 c-3 -4 2 -6 10 -5 21 3 28 13 10 13 -9 0 -18 -4 -20 -8z"/>
<path d="M4733 2505 c0 -8 4 -12 9 -9 5 3 6 10 3 15 -9 13 -12 11 -12 -6z"/>
<path d="M4560 2485 c-7 -9 -11 -17 -9 -20 3 -2 10 5 17 15 14 24 10 26 -8 5z"/>
<path d="M4276 2377 c3 -10 9 -15 12 -12 3 3 0 11 -7 18 -10 9 -11 8 -5 -6z"/>
<path d="M4510 2306 c0 -2 8 -10 18 -17 15 -13 16 -12 3 4 -13 16 -21 21 -21
13z"/>
<path d="M3110 2119 c-76 -34 -103 -131 -59 -208 11 -20 61 -69 111 -109 105
-86 131 -122 124 -171 -9 -60 -73 -105 -134 -93 -25 5 -82 54 -99 86 -10 18
-11 18 -37 1 -14 -10 -26 -20 -26 -24 0 -14 73 -92 99 -105 94 -49 205 -16
251 75 24 46 25 87 4 137 -20 48 -51 80 -147 154 -107 82 -129 141 -69 188 42
34 108 19 149 -34 l20 -24 27 22 28 22 -36 38 c-64 65 -129 80 -206 45z"/>
<path d="M4245 2121 c-49 -22 -63 -38 -79 -93 -21 -71 8 -134 92 -198 157
-118 192 -183 136 -249 -27 -33 -74 -50 -112 -43 -25 5 -82 54 -99 86 -10 17
-11 18 -36 1 -25 -16 -26 -19 -13 -43 98 -186 390 -110 352 92 -9 49 -42 92
-116 153 -131 109 -140 119 -140 162 0 68 64 100 130 66 17 -9 30 -19 30 -23
0 -4 11 -15 24 -24 23 -16 24 -16 46 7 l23 24 -38 37 c-67 64 -128 78 -200 45z"/>
<path d="M6684 2125 c-44 -19 -84 -70 -85 -108 -4 -100 3 -111 143 -225 83
-69 105 -95 112 -137 10 -52 -39 -111 -94 -115 -53 -4 -65 1 -111 50 l-47 50
-23 -19 -23 -19 28 -41 c40 -58 117 -94 181 -86 97 11 159 78 159 171 0 71
-30 113 -150 210 -104 84 -124 115 -103 165 26 65 123 62 173 -5 l18 -25 29
21 29 22 -27 29 c-67 70 -140 92 -209 62z"/>
<path d="M263 2122 c-12 -2 -23 -9 -26 -15 -42 -106 -231 -596 -234 -607 -4
-15 9 -16 108 -11 10 1 25 25 40 64 l25 62 129 0 129 0 24 -62 c13 -35 29 -63
35 -64 36 -2 117 -4 117 -2 0 2 -22 60 -49 130 -27 71 -79 207 -116 303 -37
96 -70 180 -72 187 -4 11 -70 21 -110 15z m84 -278 c18 -47 33 -91 33 -97 0
-8 -24 -11 -79 -9 l-79 3 41 100 c22 54 43 97 46 94 2 -3 20 -44 38 -91z"/>
<path d="M1202 2112 c-2 -7 -4 -28 -4 -45 0 -73 -3 -69 57 -65 l55 4 0 -258
c0 -288 -8 -258 68 -261 60 -2 58 -11 57 258 0 136 4 249 8 252 5 3 31 5 58 4
l49 -1 0 63 0 62 -171 0 c-132 0 -173 -3 -177 -13z"/>
<path d="M2518 2122 c-10 -2 -54 -104 -136 -315 -66 -172 -118 -314 -116 -316
7 -8 116 -3 123 5 4 5 16 32 26 59 10 28 23 53 28 57 6 3 65 6 132 6 l121 0
23 -64 c15 -43 28 -64 39 -65 41 -2 104 0 108 3 2 2 -50 143 -115 314 l-119
309 -49 5 c-27 3 -56 4 -65 2z m93 -285 c21 -51 36 -94 34 -95 -5 -6 -145 -5
-151 1 -3 2 12 48 32 101 20 53 40 94 43 91 3 -4 22 -48 42 -98z"/>
<path d="M3927 2119 c-8 -5 -47 -63 -87 -129 -40 -66 -76 -118 -80 -115 -3 2
-40 58 -81 124 -74 120 -74 121 -112 121 -21 0 -37 -4 -35 -8 2 -4 47 -78 101
-163 l98 -156 1 -151 1 -150 24 -5 c13 -2 27 1 31 7 3 6 7 76 8 156 l1 145 93
150 c51 82 94 155 97 161 5 14 -40 24 -60 13z"/>
<path d="M4663 2122 c-17 -3 -22 -9 -19 -25 3 -12 5 -27 5 -32 1 -7 26 -10 63
-8 34 1 65 -2 68 -6 3 -5 5 -132 5 -283 0 -291 0 -293 47 -280 14 3 18 15 18
46 1 22 2 149 3 281 l2 240 50 2 c97 2 92 1 92 33 0 17 -5 30 -11 31 -42 2
-305 3 -323 1z"/>
<path d="M5187 2122 c-15 -3 -17 -32 -17 -318 0 -292 1 -314 18 -315 19 -1
285 -1 320 0 18 1 22 7 22 31 0 22 -5 30 -17 31 -10 0 -77 1 -148 1 l-130 1 0
121 0 121 115 2 c63 1 130 2 148 2 29 1 32 4 32 31 0 22 -5 30 -17 31 -10 0
-76 1 -148 2 l-130 2 0 85 c-1 47 1 91 3 97 3 10 37 13 126 12 185 -2 173 -4
168 31 -4 30 -5 30 -71 31 -36 0 -109 1 -162 2 -52 1 -103 1 -112 -1z"/>
<path d="M790 2103 c-3 -237 -1 -606 4 -610 8 -8 270 -8 283 0 5 3 9 30 9 59
l-2 53 -74 1 c-41 1 -81 2 -87 3 -10 1 -13 59 -13 256 l0 255 -60 0 c-50 0
-60 -3 -60 -17z"/>
<path d="M1723 1805 c0 -280 2 -315 16 -316 34 -3 83 0 95 4 8 3 12 41 11 131
0 69 3 125 8 123 4 -1 39 -61 77 -132 l68 -130 62 2 c34 1 63 3 65 5 2 2 -28
61 -66 132 -38 71 -69 134 -69 140 0 6 15 18 33 27 107 52 100 246 -11 305
-36 19 -58 22 -165 23 l-125 2 1 -316z m235 179 c44 -31 20 -102 -36 -106 -30
-1 -64 -1 -72 1 -3 0 -6 28 -6 61 l0 60 46 0 c25 0 56 -7 68 -16z"/>
<path d="M5786 2103 c-3 -10 -8 -42 -11 -72 -4 -30 -9 -63 -11 -75 -2 -12 -6
-37 -8 -56 -9 -78 -17 -138 -27 -185 -5 -27 -11 -68 -13 -90 -2 -22 -7 -61
-11 -86 -6 -42 -5 -47 14 -52 29 -7 51 17 52 56 0 18 2 40 4 49 5 27 14 94 21
156 3 31 11 86 17 122 l12 65 110 -223 c61 -122 115 -222 120 -222 6 0 60 99
120 220 60 121 110 218 111 217 2 -1 6 -25 9 -52 3 -28 8 -61 10 -75 3 -14 7
-47 11 -75 3 -27 8 -57 9 -65 4 -21 18 -134 17 -140 0 -3 4 -12 9 -21 10 -19
59 -14 59 5 0 7 -11 88 -25 181 -13 94 -27 188 -30 210 -3 22 -8 51 -10 65 -3
14 -7 48 -10 75 -8 67 -15 89 -25 79 -5 -5 -32 -56 -60 -114 -29 -58 -84 -170
-123 -249 l-71 -144 -125 256 c-69 141 -129 256 -133 256 -4 1 -9 -7 -12 -16z"/>
<path d="M3049 1268 c-5 -11 -3 -211 2 -219 18 -29 24 35 20 199 -1 17 -17 32
-22 20z"/>
<path d="M3289 1240 c0 -16 0 -52 0 -80 0 -110 1 -124 11 -114 5 5 10 47 12
92 2 77 3 82 17 64 104 -129 135 -162 144 -153 10 10 14 207 4 218 -14 13 -18
-7 -19 -91 l0 -86 -25 27 c-13 16 -47 56 -75 91 -28 34 -55 62 -60 62 -4 0 -8
-13 -9 -30z"/>
<path d="M3699 1256 c-1 -14 -1 -186 0 -203 1 -7 7 -10 14 -8 8 4 11 23 10 55
l-2 50 55 0 c69 0 71 18 2 22 -52 3 -53 4 -56 36 -2 17 2 33 7 33 6 1 34 2 63
3 30 0 53 6 55 13 3 9 -16 12 -71 11 -47 -1 -76 -5 -77 -12z"/>
<path d="M4071 1243 c-85 -72 -21 -219 86 -197 98 20 120 156 33 207 -41 25
-81 21 -119 -10z m127 -28 c44 -52 15 -138 -51 -149 -38 -7 -88 37 -89 79 -1
49 12 76 45 90 41 17 67 11 95 -20z"/>
<path d="M4495 1259 c-100 -52 -65 -215 47 -213 22 1 44 6 51 13 8 8 15 7 27
-4 14 -13 16 -9 15 42 0 56 -1 57 -33 59 -17 1 -34 -2 -37 -7 -4 -5 5 -9 18
-9 51 0 36 -49 -21 -71 -32 -12 -79 15 -97 57 -16 38 0 84 39 109 21 14 31 15
60 5 19 -6 37 -16 39 -23 3 -9 8 -9 16 -1 31 29 -79 67 -124 43z"/>
<path d="M4842 1156 l3 -110 78 -1 c49 0 76 3 74 10 -3 9 -22 11 -107 14 -23
1 -26 5 -25 39 0 36 1 37 40 39 22 1 48 2 58 2 9 1 17 5 17 11 0 5 -26 10 -57
12 -62 3 -61 2 -54 64 1 7 21 10 54 9 58 -2 80 3 72 16 -3 4 -39 8 -81 7 l-75
-1 3 -111z"/>
<path d="M5200 1153 c0 -99 2 -114 14 -104 9 7 13 24 11 42 -3 18 1 29 8 30 7
0 21 2 33 4 15 3 29 -7 52 -40 17 -25 36 -45 42 -45 15 0 13 7 -15 47 l-24 36
24 28 c13 16 22 36 20 46 -2 10 -4 21 -4 25 -1 4 -10 16 -21 26 -16 14 -36 19
-80 20 l-60 0 0 -115z m129 73 c11 -12 13 -22 5 -43 -10 -29 -44 -43 -84 -33
-21 5 -25 12 -26 45 0 22 4 43 9 46 16 11 80 0 96 -15z"/>
<path d="M5623 1233 c-8 -21 -28 -67 -44 -102 -32 -71 -38 -101 -15 -82 8 6
19 24 25 39 12 28 12 28 99 23 7 -1 20 -16 29 -35 10 -22 21 -32 30 -29 8 3
10 10 5 17 -5 6 -28 55 -52 109 -23 53 -46 97 -52 97 -5 0 -16 -17 -25 -37z
m40 -30 c33 -64 31 -71 -13 -71 -22 0 -40 2 -40 6 0 8 34 92 37 92 1 0 9 -12
16 -27z"/>
<path d="M5950 1153 c0 -87 3 -114 11 -106 7 7 11 43 10 93 l-2 82 33 -38 c18
-21 44 -52 58 -68 45 -54 71 -78 77 -72 8 8 7 215 -1 223 -14 14 -19 -12 -18
-92 0 -47 -1 -85 -2 -85 -1 0 -35 41 -76 90 -41 50 -77 90 -82 90 -4 0 -8 -53
-8 -117z"/>
<path d="M6400 1253 c-23 -12 -39 -30 -49 -56 -12 -33 -12 -42 3 -81 26 -69
99 -92 162 -51 27 17 31 35 9 35 -8 0 -15 -4 -15 -9 0 -5 -13 -13 -28 -19 -35
-12 -85 6 -101 37 -34 62 14 148 75 136 11 -2 22 -4 26 -4 4 -1 14 -8 23 -17
10 -11 20 -13 26 -7 14 14 -22 43 -62 49 -22 3 -47 -2 -69 -13z"/>
<path d="M6742 1156 l3 -110 70 -1 c78 0 102 19 28 22 -27 1 -55 2 -63 2 -11
1 -15 12 -15 39 0 40 -6 37 93 41 12 1 22 6 22 11 0 6 -26 10 -58 10 l-58 0 2
33 c1 17 3 35 3 38 1 3 25 5 54 4 58 -2 80 3 72 16 -3 4 -39 8 -81 7 l-75 -1
3 -111z"/>
</g>
</svg>
