<svg id="Layer_1" data-name="Layer 1" xmlns="http://www.w3.org/2000/svg" viewBox="0 0 281.35 282.73"><defs><style>.cls-1{fill:#476a79;}.cls-2{fill:#547182;}.cls-3{fill:#f1942b;}.cls-4{fill:#ee8a24;}.cls-5{fill:#191717;}.cls-6{fill:#1b1a19;}.cls-7{fill:#1d1b1b;}.cls-8{fill:#151313;}.cls-9{fill:#262323;}.cls-10{fill:#2b2828;}.cls-11{fill:#312e2e;}.cls-12{fill:#2f2c2c;}.cls-13{fill:#232121;}.cls-14{fill:#f3f3f2;}.cls-15{fill:#eeeded;}.cls-16{fill:#fefefe;}</style></defs><title>altra call</title><path class="cls-1" d="M205.78,76.88c-.08,1.41-1.34,1.33-2.18,1.65Q183.8,86.1,164,93.63c-6.42,2.45-12.88,4.78-19.21,7.41-2.52,1-3.07-.15-3.79-2.05q-11.13-29.62-22.34-59.22c-.86-2.27-1.55-4.61-2.6-6.78-.89-1.85-.19-2.4,1.43-3,17.48-6.57,34.92-13.24,52.4-19.8C176,7.88,180.36,10,182.65,16q11.28,29.74,22.54,59.47C205.37,75.93,205.58,76.39,205.78,76.88Z" transform="translate(-9.59 -9.27)"/><path class="cls-2" d="M139.36,122.78q7,18.21,14,36.4c2.84,7.45,5.59,14.93,8.51,22.34.72,1.84.45,2.56-1.43,3.26-17.47,6.56-34.88,13.26-52.34,19.81-6.09,2.28-10.5.12-12.76-5.85Q84.07,169,72.8,139.32c-.45-1.2-1.18-2.19.84-2.94,16.25-6.07,32.45-12.25,48.67-18.39a2.37,2.37,0,0,1,.6,0c2.6.77,5.19,1.56,7.79,2.32C133.59,121.13,136.48,122,139.36,122.78Z" transform="translate(-9.59 -9.27)"/><path class="cls-1" d="M48.35,74.24c-1-2.42-2.11-4.8-3-7.27-1.78-5.18.38-9.75,5.52-11.71,17.62-6.7,35.27-13.34,52.87-20.09,1.94-.75,2.57-.28,3.26,1.55q12.39,33,24.93,65.92c.54,1.43,1.34,2.75-.93,3.56-6.55,2.33-13,4.78-19.58,7.19-1.17-1.4-3-1.43-4.52-2.11a232,232,0,0,1-21.42-11.09,236.42,236.42,0,0,1-30-20.65C53.25,77.67,51.38,75.13,48.35,74.24Z" transform="translate(-9.59 -9.27)"/><path class="cls-3" d="M224.38,125.19c3.28,7.46,6.08,15.1,8.67,22.8,1.47,4.4-1.43,8.8-6.35,10.49q-21.42,7.38-42.86,14.73a85.17,85.17,0,0,0-8.53,3c-2.19,1-2.79,0-3.46-1.66-4.18-10.58-8.44-21.13-12.58-31.73-2.08-5.33-4.64-10.49-6.15-16,.55-1.18,1.4-.67,2.31-.52a208.87,208.87,0,0,0,25.44,2.62C195.52,129.41,210,127.48,224.38,125.19Z" transform="translate(-9.59 -9.27)"/><path class="cls-4" d="M224.38,125.19c-14.42,2.29-28.86,4.22-43.51,3.68a208.87,208.87,0,0,1-25.44-2.62c-.91-.15-1.76-.66-2.31.52-2.85-5.45-4.62-11.35-7.08-17-.67-1.55.42-1.78,1.55-2.21,12.25-4.6,24.47-9.27,36.71-13.91,7.62-2.89,15.25-5.74,22.86-8.67,1.21-.46,2-.65,2.55.88Q217,105.56,224.38,125.19Z" transform="translate(-9.59 -9.27)"/><path class="cls-2" d="M48.35,74.24c3,.89,4.9,3.43,7.18,5.3a236.42,236.42,0,0,0,30,20.65,232,232,0,0,0,21.42,11.09c1.51.68,3.35.71,4.52,2.11C97.83,118.56,84.18,123.68,70.59,129c-2.07.8-2-.71-2.3-1.63Q60.49,106.88,52.8,86.4C51.28,82.36,49.83,78.3,48.35,74.24Z" transform="translate(-9.59 -9.27)"/><path class="cls-5" d="M131.67,262.52a2.83,2.83,0,0,1-.5.23c-5.68.47-5.68.47-7.61-4.78-.25-.66-.46-1.33-.68-2-1.65-4.84-2.94-5.74-8.21-5.74-3.94,0-3.94,0-3.94,4a44.25,44.25,0,0,0,0,5.76c.39,2.9-1.19,2.89-3.36,3s-2.9-.6-2.87-2.85c.13-8.79.11-17.59,0-26.38,0-2,.56-2.55,2.56-2.47,5,.2,10.06,0,15.08.24,4.07.21,6.82,2.45,7.76,6.1s.55,7.33-2.82,9.81c-1.46,1.08-1.11,1.63-.28,2.94C129.22,254.07,130.25,258.39,131.67,262.52ZM116.21,236.8c-6-.05-6-.05-5.49,5.95,0,.1,0,.2,0,.3-.09,1,.37,1.51,1.39,1.49,2.9-.07,5.81,0,8.7-.23,2.26-.19,3.34-1.69,3.3-4s-1.38-3.3-3.4-3.52C119.22,236.68,117.71,236.8,116.21,236.8Z" transform="translate(-9.59 -9.27)"/><path class="cls-6" d="M167.86,262.65c-.1,0-.19.12-.28.12-6.06.42-6.27.48-8-5.18-.89-2.86-2.08-4.32-5.2-3.79-2.34.4-5.27-1-7,.6-1.51,1.45-1.76,4.19-2.58,6.35-.63,1.68-5.22,3.07-6.55,2-.62-.5-.26-1.11-.06-1.64,3.62-9.49,7.28-19,10.89-28.47a2,2,0,0,1,2.64-1.33c1.43.31,3.36-1,4.24,1.12q6,14.82,12,29.67C168,262.23,167.9,262.46,167.86,262.65Zm-15.29-23.47c-.62,1.77-.93,2.72-1.28,3.65C149,249,149,249,155.5,248.45c.08,0,.15-.09.45-.31C154.93,245.45,153.89,242.7,152.57,239.18Z" transform="translate(-9.59 -9.27)"/><path class="cls-6" d="M24.16,253.83c-5.12,0-5.34-.08-6.9,5-1,3.22-2.52,4.63-6,4.16-1.61-.22-2.1-.39-1.43-2.09,3.69-9.36,7.33-18.73,10.84-28.16a1.94,1.94,0,0,1,2.49-1.43c1.5.29,3.47-1.08,4.43,1.31Q33.45,247,39.35,261.36c.19.47.51.94.07,1.36-1.14,1.09-6.44-.27-7-1.77-.26-.66-.48-1.33-.74-2C29.63,253.84,29.63,253.84,24.16,253.83Zm-3.3-5.44h6.82l-3.5-9.11Z" transform="translate(-9.59 -9.27)"/><path class="cls-7" d="M234.61,262.81c-1.68.45-2.49-.35-3.08-1.93-.95-2.52-1.09-6-3.2-7.22s-5.33-.13-8-.44c-3.45-.41-5.53.57-6.06,4.23a30.45,30.45,0,0,1-1.28,3.69c-.75,2.69-3,1.84-4.5,1.58-1.37-.23-.17-1.56.07-2.21,2.89-7.72,5.88-15.41,8.83-23.11a37.11,37.11,0,0,0,1.45-4c.47-1.77,1.53-2.25,3.27-2.26s2.66.41,3.34,2.16q5.3,13.48,10.88,26.86C237.14,262.17,237.35,263.3,234.61,262.81Zm-17.54-13.24h10.25l-5.24-13.75Z" transform="translate(-9.59 -9.27)"/><path class="cls-7" d="M189.24,230.65c5.94-.05,10.95,3,12.45,7.74.24.78,1.31,2.23-.2,2.5-1.2.21-3,1.11-4-.88-2.21-4.48-5-6-9.54-5.46a9.53,9.53,0,0,0-8.11,7.51,19.6,19.6,0,0,0,.09,10.17A9.69,9.69,0,0,0,192.8,259c2.29-.77,4.07-2.19,4.49-4.48.56-3,2.62-1.8,4.17-1.84,1.07,0,.71.92.57,1.61a10.68,10.68,0,0,1-5.59,7.51,14.44,14.44,0,0,1-21-9,19.52,19.52,0,0,1,1.35-15C179.43,232.87,183.76,230.73,189.24,230.65Z" transform="translate(-9.59 -9.27)"/><path class="cls-8" d="M87.05,250c0,3.43-.23,6.89.07,10.3s-1.86,2.37-3.61,2.62c-2.38.34-2.57-.84-2.54-2.76.09-6.87,0-13.73.08-20.6,0-2-.33-3-2.58-2.68-1.28.19-2.64-.13-3.93.07-2.82.44-3.63-.7-3.4-3.42.13-1.62.42-2.29,2.18-2.26,7.13.09,14.26.18,21.38,0,2.65-.07,2,1.49,2.06,2.89s.4,3.06-2.15,2.83c-2.39-.22-5.72-.89-7,.34-1.66,1.6-.41,4.94-.54,7.53C87,246.52,87.05,248.24,87.05,250Z" transform="translate(-9.59 -9.27)"/><path class="cls-9" d="M46.07,246.85c0-4.17.16-8.35-.06-12.51-.13-2.5.57-3.34,3.12-3.2,2.2.11,3.38.31,3.28,3.06-.23,6.65.06,13.31-.14,20-.07,2.5.76,3,3,2.9,3.12-.19,6.26.09,9.38-.09,2.46-.14,1.95,1.49,1.84,2.76s1,3.21-1.76,3.16q-8.46-.15-16.92,0c-1.93,0-1.78-1.11-1.78-2.34,0-4.57,0-9.14,0-13.71Z" transform="translate(-9.59 -9.27)"/><path class="cls-10" d="M271.05,247c0-4.54.08-9.09,0-13.62,0-1.76.52-2.24,2.24-2.19s2.47.27,2.43,2.29c-.13,7.68,0,15.37-.08,23.06,0,1.79.36,2.41,2.27,2.32,3.62-.18,7.26,0,10.89-.09,1.56,0,2.18.41,2.14,2s-.35,2.17-2.05,2.13c-5.24-.1-10.48-.12-15.72,0-1.91.05-2.13-.77-2.11-2.33C271.1,256.05,271.05,251.51,271.05,247Z" transform="translate(-9.59 -9.27)"/><path class="cls-7" d="M244.28,246.88c0-4.35,0-8.7,0-13,0-1.49-.19-2.73,2.06-2.7,2,0,2.54.58,2.51,2.56-.12,7.58.06,15.17-.12,22.75-.05,2.15.68,2.43,2.49,2.37,3.43-.11,6.87,0,10.31-.05,1.41,0,2.47-.09,2.51,1.94s-1,2.19-2.61,2.17c-5.05-.06-10.11-.11-15.16,0-1.68,0-2-.54-2-2.07C244.33,256.18,244.27,251.53,244.28,246.88Z" transform="translate(-9.59 -9.27)"/><path class="cls-11" d="M133.22,281.67c0,2.72,0,5.44,0,8.16,0,.72.36,1.74-.94,1.81s-1.34-.91-1.35-1.85c0-3.63,0-7.26,0-10.89,0-.81-.46-1.92.92-2.19,1.18-.22,1.82.44,2.41,1.37a61.33,61.33,0,0,0,6.36,8.59c0-2.74,0-5.49,0-8.24,0-.83-.08-1.69,1.12-1.71s1.15.81,1.15,1.65c0,3.73,0,7.45,0,11.18,0,.71.46,1.75-.69,2a2.18,2.18,0,0,1-2.48-1.22c-1.94-3-4-5.95-6-8.92Z" transform="translate(-9.59 -9.27)"/><path class="cls-12" d="M158.19,283.81c0,.15,0-.16,0-.45.25-2.15-1-5.39.57-6.22,2.43-1.26,5.72-.77,8.57-.15a3.94,3.94,0,0,1,1.94,6.64c-1.17,1.12-1.36,1.67-.32,2.95a10,10,0,0,1,1.32,3.33c.17.53,1.16,1.28-.13,1.64-.78.22-1.62.24-2-.8-.3-.85-.6-1.7-.94-2.53a4.75,4.75,0,0,0-5.91-2.8c-.86.26-.74.79-.75,1.34,0,1,0,2,0,3-.05.79.44,1.94-1.16,1.85-1.44-.08-1.17-1.08-1.17-1.95C158.19,287.88,158.19,286.07,158.19,283.81Zm5.7-5.14c-1.63.17-3.64-.84-3.44,2.22.13,1.92.52,2.79,2.53,2.39,1.83-.37,4.68,1.09,4.9-2.22C168.08,278,165.46,278.91,163.89,278.67Z" transform="translate(-9.59 -9.27)"/><path class="cls-10" d="M193.91,284a5.65,5.65,0,0,1,0-2.1c.73-1.67-2-4.64,1.56-5.11,6-.79,9.8,1,10.43,4.77.5,3,.77,6.17-1.85,8.49s-6.12,1.52-9.3,1.58c-1.08,0-.87-.9-.88-1.56C193.9,288,193.91,286,193.91,284Zm2.27.24h0a18.76,18.76,0,0,1,0,3c-.36,2.27.75,2.66,2.69,2.51,4.15-.31,6-3.2,4.79-7.75-.63-2.37-2.78-3.54-6-3.23-2.81.28-1,2.46-1.45,3.68A5.08,5.08,0,0,0,196.18,284.21Z" transform="translate(-9.59 -9.27)"/><path class="cls-11" d="M284.62,292c-1.86-.2-4.11-.71-5.16-3.2-.25-.6-1.12-1.53.14-2,.8-.3,1.43-.1,1.86.91.86,2,2.65,2.25,4.59,2.07,1.32-.13,2.44-.57,2.59-2s-.85-2-2-2.27-2.17-.44-3.22-.77c-2.24-.71-4.3-1.8-3.85-4.6.42-2.6,2.5-3.5,4.89-3.65s4.42.51,5.71,2.64c.34.56.74,1.47.06,1.94a1.23,1.23,0,0,1-1.94-.65,2.46,2.46,0,0,0-2-1.64c-1.67-.15-3.8-.73-4.29,1.51s1.75,2,3.08,2.43c.47.17,1,.24,1.46.37,3.47.94,4.73,2.42,4.35,5.11C290.55,290.43,288.16,292,284.62,292Z" transform="translate(-9.59 -9.27)"/><path class="cls-6" d="M173,283.81c0-7.09,0-7.17,7-7,1.32,0,3.86-1.22,3.82,1.18,0,1.54-2.5.52-3.85.76a11.25,11.25,0,0,1-2.72,0c-1.48-.11-2.13.32-2.1,2s.45,2.4,2.21,2.25a40.62,40.62,0,0,1,4.55,0c.64,0,1.52-.24,1.58.86.08,1.35-.94,1.05-1.68,1.07-1.21.05-2.43.05-3.64,0-1.68-.06-3-.28-3.06,2.33s1.42,2.56,3.21,2.49c1.52-.06,3,0,4.55,0,.72,0,1.48,0,1.4,1.05-.07.84-.7.87-1.31.87-2.83,0-5.66,0-8.49,0-1.35,0-1.43-.8-1.43-1.77Q173,286.84,173,283.81Z" transform="translate(-9.59 -9.27)"/><path class="cls-13" d="M117.43,283.63c.23-1.94-1.05-5.1.51-6.48,1.33-1.17,4.41-.5,6.71-.39,1.22.07,3.48-.88,3.49.84,0,2.33-2.36.68-3.61,1.1a10.41,10.41,0,0,1-2.1.05c-1.21.13-2.81-.65-2.81,1.85,0,2.23,1,2.47,2.72,2.35,1.41-.1,2.82,0,4.23,0,.65,0,1.18.11,1.2.95s-.53,1-1.16,1a23.43,23.43,0,0,1-3.93,0c-2.64-.43-3.28.69-3,3.12.13,1.24.36,1.78,1.7,1.72,2-.09,4,0,6,0,.65,0,1.2.07,1.21.92s-.47,1-1.15,1c-2.92,0-5.84,0-8.76,0-1.14,0-1.29-.6-1.27-1.53C117.46,288.1,117.43,286.08,117.43,283.63Z" transform="translate(-9.59 -9.27)"/><path class="cls-13" d="M254.62,284.07c0-7.36,0-7.42,7.31-7.31,1.19,0,3.4-1,3.43.95s-2.19.75-3.38,1a9.49,9.49,0,0,1-3,0c-1.54-.16-2.11.32-2.06,2s.21,2.46,2.11,2.26a45.92,45.92,0,0,1,4.84,0c.68,0,1.18.16,1.16,1s-.56,1-1.21,1c-1.72,0-3.45.12-5.15,0-2.38-.21-1.59,1.47-1.68,2.6s-.25,2.45,1.75,2.26a58.32,58.32,0,0,1,6.06,0c.63,0,1.25.14,1.23,1s-.61,1-1.26,1c-2.92,0-5.85,0-8.78,0-1.37,0-1.37-.84-1.36-1.81C254.63,287.91,254.62,286,254.62,284.07Z" transform="translate(-9.59 -9.27)"/><path class="cls-11" d="M227.35,284.08a10.86,10.86,0,0,1,0-1.51c.27-1.91-1-4.91.68-5.54a12.07,12.07,0,0,1,8.55.37,3.65,3.65,0,0,1,2.23,3.62,4.19,4.19,0,0,1-2.1,4.06,3.94,3.94,0,0,1-2,.67c-3.51-.23-6.11.32-5.07,4.83.17.76-.41,1-1.1,1.07-.85,0-1.27-.3-1.25-1.23C227.38,288.3,227.35,286.19,227.35,284.08Zm4.79-.37c2.14,0,4.3.13,4.24-2.49-.06-2.86-2.47-2.22-4.3-2.47-2.11-.3-2.37.67-2.45,2.51C229.53,283.56,230.45,284.09,232.14,283.71Z" transform="translate(-9.59 -9.27)"/><path class="cls-12" d="M102,284.53c0-3.46,1-6.12,4-7.49a6.42,6.42,0,0,1,7.32,1c.91.8,2.4,2.07,1.25,3.17s-1.94-.5-2.59-1.49a3.19,3.19,0,0,0-2.61-1.27c-3-.21-4.94,1.87-5.14,5.44s1.65,5.8,4.57,5.94a3.49,3.49,0,0,0,3.79-2.36,1.27,1.27,0,0,1,2-.65c.87.44.26,1.19,0,1.81-1.21,2.71-3.55,3.45-6.2,3.3a6.56,6.56,0,0,1-6.06-5A21.11,21.11,0,0,1,102,284.53Z" transform="translate(-9.59 -9.27)"/><path class="cls-13" d="M241,284a12.68,12.68,0,0,1,0-1.51c.23-1.86-.9-4.91.52-5.37a12.35,12.35,0,0,1,8.85.42c1.72.77,2.11,2.31,2.06,4a4,4,0,0,1-2.57,3.78,4.67,4.67,0,0,1-2.33.53c-3.39-.46-5.05.64-4.32,4.28.15.74,0,1.44-1,1.49-1.17.05-1.26-.7-1.25-1.59C241,288,241,286,241,284Zm5-.25c2,.09,4,.15,4-2.4,0-2.74-2.29-2.4-4.17-2.6s-2.75.29-2.78,2.49C243.06,283.64,244.13,284.05,246,283.71Z" transform="translate(-9.59 -9.27)"/><path class="cls-9" d="M212.13,291.37c1.69-4.43,3.34-8.75,5-13.07.34-.87.66-1.67,1.86-1.61,1,.05,1.36.62,1.69,1.44,1.76,4.39,3.55,8.76,5.35,13.17-1.82.76-2.83.18-3.12-1.61-.47-2.88-2.64-2.27-4.61-2.48-2.17-.24-2.78.9-3.17,2.6C214.79,291.14,214.09,292,212.13,291.37Zm4.54-6.12h4.48c-.73-2-1.38-3.73-2.1-5.66C217.81,281.28,217.61,283.19,216.67,285.25Z" transform="translate(-9.59 -9.27)"/><path class="cls-1" d="M139.36,122.78c-2.88-.83-5.77-1.65-8.66-2.5-2.6-.76-5.19-1.55-7.79-2.32,3.62-2,7.64-3,11.41-4.58,1.08-.46,1.65-.21,2,.91C137.31,117.14,138.35,120,139.36,122.78Z" transform="translate(-9.59 -9.27)"/><path class="cls-5" d="M149.58,285.14a20.55,20.55,0,0,1,0-2.72c.35-2.61-.12-4.36-3.37-3.69-.67.13-1.5.12-1.55-.92-.07-1.29.91-1.07,1.68-1.08,2.73,0,5.45,0,8.18,0,.84,0,2-.34,2,1.15s-1.23.92-1.83.82c-2.65-.42-3.24.74-3,3.17.21,2.71,0,5.45,0,8.17,0,.91-.12,1.64-1.27,1.55s-.79-1-.81-1.61C149.54,288.37,149.57,286.75,149.58,285.14Z" transform="translate(-9.59 -9.27)"/><path class="cls-8" d="M268.39,283.89a39.69,39.69,0,0,1,.05-4.5c.1-.9-.89-2.56,1-2.57,2,0,1.09,1.79,1.15,2.75a55.5,55.5,0,0,1,0,7.52c-.17,2.17.62,2.92,2.7,2.64a9.26,9.26,0,0,1,2.41,0c.75.11,2.08-.61,2,1s-1.37.85-2.11.88c-7.12.29-7.12.27-7.13-6.82v-.89Z" transform="translate(-9.59 -9.27)"/><path class="cls-11" d="M209.26,279.54c-.21-1.17-.42-2.34-.64-3.51-.16-.87.38-1,1-1s1.25.11,1.1,1c-.2,1.22-.43,2.43-.65,3.65Z" transform="translate(-9.59 -9.27)"/><path class="cls-14" d="M116.21,236.8c1.5,0,3-.12,4.5,0,2,.22,3.36,1.3,3.4,3.52s-1,3.77-3.3,4c-2.89.23-5.8.16-8.7.23-1,0-1.48-.47-1.39-1.49,0-.1,0-.2,0-.3C110.24,236.75,110.24,236.75,116.21,236.8Z" transform="translate(-9.59 -9.27)"/><path class="cls-15" d="M152.57,239.18c1.32,3.52,2.36,6.27,3.38,9-.3.22-.37.31-.45.31-6.51.51-6.5.51-4.21-5.62C151.64,241.9,152,241,152.57,239.18Z" transform="translate(-9.59 -9.27)"/><path class="cls-15" d="M20.86,248.39l3.32-9.11,3.5,9.11Z" transform="translate(-9.59 -9.27)"/><path class="cls-14" d="M217.07,249.57l5-13.75,5.24,13.75Z" transform="translate(-9.59 -9.27)"/><path class="cls-14" d="M163.89,278.67c1.57.24,4.19-.64,4,2.39-.22,3.31-3.07,1.85-4.9,2.22-2,.4-2.4-.47-2.53-2.39C160.25,277.83,162.26,278.84,163.89,278.67Z" transform="translate(-9.59 -9.27)"/><path class="cls-14" d="M196.18,284.21a5.08,5.08,0,0,1,0-1.79c.48-1.22-1.36-3.4,1.45-3.68,3.22-.31,5.37.86,6,3.23,1.2,4.55-.64,7.44-4.79,7.75-1.94.15-3-.24-2.69-2.51a18.76,18.76,0,0,0,0-3Z" transform="translate(-9.59 -9.27)"/><path class="cls-16" d="M232.14,283.71c-1.69.38-2.61-.15-2.51-2.45.08-1.84.34-2.81,2.45-2.51,1.83.25,4.24-.39,4.3,2.47C236.44,283.84,234.28,283.69,232.14,283.71Z" transform="translate(-9.59 -9.27)"/><path class="cls-15" d="M246,283.71c-1.88.34-2.95-.07-2.92-2.51,0-2.2.83-2.69,2.78-2.49s4.16-.14,4.17,2.6C250.05,283.86,248,283.8,246,283.71Z" transform="translate(-9.59 -9.27)"/><path class="cls-15" d="M216.67,285.25c.94-2.06,1.14-4,2.38-5.66.72,1.93,1.37,3.69,2.1,5.66Z" transform="translate(-9.59 -9.27)"/></svg>