<svg id="Layer_1" data-name="Layer 1" xmlns="http://www.w3.org/2000/svg" viewBox="0 0 259.35 282"><defs><style>.cls-1{fill:#486b7a;}.cls-2{fill:#577383;}.cls-3{fill:#8d3f8b;}.cls-4{fill:#922b8e;}.cls-5{fill:#100f0f;}.cls-6{fill:#1b1919;}.cls-7{fill:#151414;}.cls-8{fill:#1f1d1d;}.cls-9{fill:#373333;}.cls-10{fill:#282424;}.cls-11{fill:#322e2d;}.cls-12{fill:#8b8686;}</style></defs><title>altra phone</title><path class="cls-1" d="M183.2,9c5.42.24,7.7,3.45,9.23,7.47q8.7,22.92,17.36,45.88c1.78,4.69,3.51,9.4,5.37,14.05.72,1.82.49,2.74-1.52,3.49q-29.8,11.28-59.54,22.72c-2.31.88-3.75.43-4.69-2.1q-12.49-33.36-25.16-66.67c-.78-2.05-.28-3.05,1.72-3.8q27-10.14,54-20.34A19.29,19.29,0,0,1,183.2,9Z" transform="translate(-20.33 -9)"/><path class="cls-2" d="M147.82,124.28q11.4,29.75,22.85,59.49c1,2.61.38,3.86-2.23,4.84-17.32,6.47-34.59,13.1-51.91,19.59-6.72,2.52-11.17.48-13.68-6.14q-11.32-29.77-22.58-59.59c-.73-1.91-1-3.26,1.45-4.18,16.1-6,32.16-12.12,48.24-18.18a6.48,6.48,0,0,1,1.41-.19C136.85,121.39,142,124.23,147.82,124.28Z" transform="translate(-20.33 -9)"/><path class="cls-1" d="M55.36,75.51c-1-2.16-2.07-4.28-2.88-6.5-2.41-6.5-.46-10.85,6.05-13.35C72,50.49,85.49,45.42,99,40.31c4-1.52,8-3,12-4.6,2.25-.93,3.5-.47,4.38,1.87q12.51,33.3,25.16,66.54c.85,2.23.52,3.52-1.9,4.35-6.43,2.2-12.8,4.57-19.19,6.88-1-2.17-3.28-1.62-4.93-2.42-17.73-8.58-34.65-18.44-50.1-30.78C61.52,79.84,59.56,76.08,55.36,75.51Z" transform="translate(-20.33 -9)"/><path class="cls-3" d="M154.56,110.66c.33-1.52,1.79-1.43,2.8-1.82C177,101.38,196.66,94,216.26,86.5c2.43-.93,3.17-.31,4,1.9Q232,118.78,244,149.08c1.19,3,1.21,5.77-1.07,8.28-10.34-5.41-20.69-10.78-31-16.25-7.88-4.18-15.67-8.53-23.55-12.71C177.1,122.44,165.82,116.57,154.56,110.66Z" transform="translate(-20.33 -9)"/><path class="cls-4" d="M154.56,110.66c11.26,5.91,22.54,11.78,33.77,17.74,7.88,4.18,15.67,8.53,23.55,12.71,10.31,5.47,20.66,10.84,31,16.25a7.68,7.68,0,0,1-4.66,3.63q-26.55,9.73-53.09,19.49c-1.72.63-2.7.82-3.53-1.29q-13.42-33.94-27-67.82A2.38,2.38,0,0,1,154.56,110.66Z" transform="translate(-20.33 -9)"/><path class="cls-2" d="M55.36,75.51c4.2.57,6.16,4.33,9,6.64,15.45,12.34,32.37,22.2,50.1,30.78,1.65.8,4,.25,4.93,2.42Q99.1,123.15,78.75,131c-1.54.59-2.55.81-3.29-1.19-6.63-17.87-13.35-35.7-20-53.54A2.76,2.76,0,0,1,55.36,75.51Z" transform="translate(-20.33 -9)"/><path class="cls-5" d="M250.7,257.12c0-5.48,0-11,0-16.43,0-1.83-.33-3.44,2.61-3.3,2.44.12,3.23.63,3.17,3.19-.17,8,0,16-.13,24,0,1.14,1.19,3.27-1.17,3.41-1.94.12-4.15,1-5.63-1.68a183.21,183.21,0,0,0-11.08-17.57c0,5.54-.18,11.08.07,16.6.13,2.7-1.13,2.69-3.14,2.82-2.37.15-2.71-.78-2.68-2.87.12-8,0-16,.11-24,0-1.23-1.3-3.41,1.21-3.72,2.15-.26,4.31-.53,5.77,2.17,3.22,5.95,6.84,11.68,10.3,17.5Z" transform="translate(-20.33 -9)"/><path class="cls-6" d="M196.7,252.82c0,4.3-.16,8.61.06,12.9.14,2.73-1.48,2.34-3.16,2.43s-3.08-.11-2.74-2.41a12.43,12.43,0,0,0,0-2.86c-.2-2.45,1.19-6-.63-7.13-2.58-1.62-6.24-.42-9.44-.53-1.46-.05-1.32,1.06-1.32,2,0,2.75-.18,5.51,0,8.24.2,2.38-.83,2.8-2.88,2.71-1.78-.08-3.11.14-3-2.51.18-8.59.15-17.19,0-25.78,0-2.31,1-2.48,2.78-2.4s3.52-.28,3.11,2.43a9.09,9.09,0,0,0,0,2.15c.21,2.57-1.16,6.54.57,7.4,2.6,1.28,6.25.43,9.45.52,1.45,0,1.39-.92,1.39-1.9,0-2.74.16-5.5,0-8.23-.18-2.36,1.06-2.42,2.79-2.37s3.27-.22,3.13,2.46C196.54,244.22,196.7,248.53,196.7,252.82Z" transform="translate(-20.33 -9)"/><path class="cls-7" d="M228.68,252.63c.1,10.71-8.34,17.95-17.78,15.27-8-2.28-12.42-11.69-9.6-20.63,2.45-7.77,10.33-12,17.76-9.46C224.92,239.78,228.62,245.49,228.68,252.63Zm-5.79.18c-.07-3.32-.67-6.42-3.58-8.53a7.46,7.46,0,0,0-8.42-.6c-3.83,2.09-4.82,5.85-4.59,9.79.22,3.78,1.48,7.26,5.53,8.82C217.7,264.54,222.85,260.13,222.89,252.81Z" transform="translate(-20.33 -9)"/><path class="cls-7" d="M111.27,267.78c-4.3,1-7.29.4-8.68-4-.66-2.13-2-4-3-6.08a2,2,0,0,0-2.17-1.36c-1.63.14-1,1.35-1,2.14a67.54,67.54,0,0,0,0,7.53c.19,2.3-1.17,2.21-2.65,2.09s-3.18.75-3.15-2c.12-8.84.08-17.69,0-26.53,0-1.52.4-2.17,2-2.1,3.46.14,6.93,0,10.38.28a8.33,8.33,0,0,1,7.73,6.37c1.1,4.17-.08,8.47-3.48,10.43-2.13,1.23-2,2.12-.94,3.94C108.07,261.44,109.56,264.55,111.27,267.78Zm-12-16.36c4.58,0,5.76-.89,5.84-4.18s-1.34-4.2-5.66-4.57c-3.39-.29-3.45,1.5-3.09,3.76C96.73,248.49,94.56,252.33,99.3,251.42Z" transform="translate(-20.33 -9)"/><path class="cls-7" d="M33.84,237.45c2-.54,3,.72,3.72,3,2.52,8.29,5.27,16.51,7.88,24.77.29.91,1.92,2.48-.26,2.72-1.61.17-3.83,1.34-5.08-1.06-.76-1.43-.36-4-2-4.27a36.91,36.91,0,0,0-9.28-.18c-2,.16-1.53,2.39-2.1,3.7C26,267.7,22,269,20.71,268c-.79-.63-.15-1.26.06-1.89,2.85-8.81,5.84-17.58,8.47-26.46C30,237,31.69,237.61,33.84,237.45Zm-4.38,19.48c7.82.72,7.83.72,5.61-6.29-.48-1.51-1-3-1.81-5.48C31.84,249.57,30.7,253.09,29.46,256.93Z" transform="translate(-20.33 -9)"/><path class="cls-7" d="M127.63,262.46c-3.44-.33-6.45-.75-7.12,4.08-.42,3.06-3.69,1.64-5.44,1.35s-.16-2,.11-2.87c2.53-8.29,5.34-16.49,7.85-24.78.76-2.49,2.18-2.79,4.43-2.82s3.39.49,4.08,2.76c2.53,8.29,5.3,16.51,7.87,24.78.29.94,2.06,2.67-.24,3-1.67.25-4.62,1.49-5.09-1.44C133.38,262.23,130.85,261.86,127.63,262.46ZM131,257c-1.16-3.79-2.25-7.33-3.54-11.52-1.94,4-2.7,7.78-3.91,11.52Z" transform="translate(-20.33 -9)"/><path class="cls-5" d="M149.53,252.8c0-4.3.09-8.59,0-12.88-.06-1.86.46-2.56,2.37-2.45,3.21.19,6.44,0,9.64.29,5.19.4,8.24,4,8.2,9.34s-3.34,8.83-8.42,9.27c-6.05.53-6.05.53-6.05,6.51a17.36,17.36,0,0,0,0,2.5c.34,2.19-.46,2.89-2.71,2.8-2.09-.08-3.25-.24-3.08-2.87C149.72,261.16,149.53,257,149.53,252.8Zm5.7-6.92c0,5.5,0,5.5,3.2,5.49,4,0,5.47-1.23,5.46-4.4s-1.45-4-5.52-4.35C154.6,242.26,155.16,244.51,155.23,245.88Z" transform="translate(-20.33 -9)"/><path class="cls-5" d="M261.47,252.7c0-4.18.08-8.36,0-12.54-.06-1.87.24-2.81,2.45-2.71q5.73.28,11.47,0c2.24-.1,2.18,1.1,2.16,2.65s.09,2.89-2.16,2.64c-1.54-.17-3.14.17-4.65-.07-3.14-.5-3.61.87-3.65,3.71-.05,3,.73,4.14,3.72,3.63.93-.16,1.91.05,2.86,0,1.84-.18,2.76.2,2.83,2.44.08,2.51-1.07,2.77-3,2.57-.71-.07-1.45.1-2.15,0-3.42-.64-4.41.63-4.29,4.13.11,3,.6,4.43,3.87,3.86,1.28-.22,2.65.12,3.94-.07,2.39-.35,2.66.82,2.72,2.85.07,2.27-.95,2.48-2.77,2.42-3.59-.11-7.18-.14-10.76,0-2,.08-2.7-.43-2.62-2.54C261.59,261.31,261.47,257,261.47,252.7Z" transform="translate(-20.33 -9)"/><path class="cls-5" d="M73.87,255.25c0-3.22-.16-6.45.06-9.66.17-2.41-.68-3.08-3-2.94-1.46.09-3.39.82-4.33-.6-.6-.91-.37-2.59-.07-3.82s1.61-.69,2.48-.7c5.13-.05,10.27,0,15.4-.06,1.84,0,2.55.49,2.46,2.42-.09,1.69,0,2.87-2.39,2.89-5.16,0-5.16.2-5.16,5.57,0,5.73-.14,11.46.07,17.18.08,2.47-1,2.63-2.94,2.64s-2.77-.38-2.66-2.53C74,262.18,73.87,258.72,73.87,255.25Z" transform="translate(-20.33 -9)"/><path class="cls-8" d="M49.85,252.56c0-4.3.13-8.61-.05-12.9-.1-2.6,1.53-2.13,3-2.18s3-.25,2.9,2.26c-.18,6.45.17,12.92-.15,19.35-.17,3.47,1.08,4.4,4.18,3.94.82-.12,1.68.08,2.51,0,2.21-.3,2.48.86,2.52,2.72s-.53,2.51-2.41,2.44c-3.34-.13-6.69-.15-10,0-2.14.1-2.6-.76-2.54-2.7C49.93,261.17,49.85,256.86,49.85,252.56Z" transform="translate(-20.33 -9)"/><path class="cls-9" d="M143.86,282.9c0-1.07,0-2.14,0-3.21-.23-4.07,1.08-5.45,5.12-5.16a24.31,24.31,0,0,1,4.58.74c2.72.72,4.47,3.77,2.91,5.78-1.74,2.25-1.19,3.92-.29,6.07.43,1,2.26,2.7,0,3.47-1.9.64-2-1.46-2.56-2.69a17.34,17.34,0,0,0-.65-1.66,4,4,0,0,0-4.24-2c-1.9.26-1.69,1.94-1.87,3.34-.14,1.15.71,3.05-1.38,3-1.83,0-1.56-1.75-1.57-3,0-1.55,0-3.1,0-4.65Zm5.83-1.3c2-.05,4.24.71,4.09-2.19s-2.52-1.7-4.07-2-3-.22-3.05,1.81C146.59,281.58,148.1,281.91,149.69,281.6Z" transform="translate(-20.33 -9)"/><path class="cls-10" d="M119.3,280.88c-.12,2.58-.29,5.17-.33,7.76,0,.91,0,1.77-1,1.92-1.3.18-1.62-.82-1.63-1.83,0-4,0-8.09,0-12.13,0-.75.22-1.39,1.15-1.52a2.55,2.55,0,0,1,2.63,1.43,47.41,47.41,0,0,0,6.24,8.21c0-3.18,0-5.44,0-7.7,0-.8-.15-1.8,1.06-1.9,1.54-.12,1.29,1.07,1.3,2,0,3.57,0,7.15,0,10.72,0,1,.73,2.28-.81,2.73s-2.17-.61-2.85-1.63c-1.66-2.46-3.3-4.93-5-7.4C120.09,281,120,280.58,119.3,280.88Z" transform="translate(-20.33 -9)"/><path class="cls-11" d="M108.29,290.7a21,21,0,0,0-2.51,0c-2.53.33-3.41-.71-3.25-3.23a38.53,38.53,0,0,0-.34-8.58c-.43-2.68.82-4.1,3.59-4.07,2.14,0,4.29.07,6.43.06,1,0,1.64.4,1.53,1.45s-.75,1.36-1.76,1.29c-1.54-.11-3.08-.11-4.63-.17-1.24,0-2.15.42-2.22,1.77a1.93,1.93,0,0,0,2.13,2.26c1.43,0,2.87,0,4.3,0,.77,0,1.88-.23,1.77,1.1-.08,1.12-1,1.1-1.9,1.09-1.32,0-2.64,0-4,0-1.72-.11-2.38.83-2.46,2.34-.09,1.76,1,2.21,2.54,2.16,1.79-.05,3.59,0,5.38,0a1.18,1.18,0,0,1,1.27,1.38,1.21,1.21,0,0,1-1.25,1.05c-1.56,0-3.11,0-4.67,0Z" transform="translate(-20.33 -9)"/><path class="cls-11" d="M180.41,283a9.77,9.77,0,0,1,0-2.48c.5-1.88-1.73-4.72,2-5.49,4.58-.95,8.76.51,10.22,3.7s.94,7.6-1.05,9.72-7.23,3.15-10,2.17a1.67,1.67,0,0,1-1.18-1.91c0-1.9,0-3.8,0-5.71Zm5-5.58c-1.64-.08-2.4.56-2.26,2.31s0,3.31,0,5c0,3.44,2.07,4.57,5.12,2.79,2.81-1.64,2.61-4.27,2-6.87S187.66,277.6,185.44,277.44Z" transform="translate(-20.33 -9)"/><path class="cls-11" d="M273.3,290.91a5.59,5.59,0,0,1-5.57-3.16c-.39-.77-.9-1.55,0-2.23s1.8-.29,2.33.68c1.17,2.16,3,2.43,5.16,1.92.91-.22,1.6-.62,1.69-1.57a1.93,1.93,0,0,0-1.52-2.12c-1.7-.54-3.45-.9-5.13-1.51a3.58,3.58,0,0,1-2.47-3.9,3.88,3.88,0,0,1,3.11-3.88c2.86-.6,5.76-.8,7.81,1.95.55.75,1.23,1.69.29,2.55s-1.78.33-2.33-.61a3.06,3.06,0,0,0-2.23-1.62c-1.41-.21-3.07-.64-3.59,1.26s1.07,2,2.38,2.26c.58.11,1.12.39,1.7.53,2.92.68,5.33,1.92,4.67,5.49S276.16,290.82,273.3,290.91Z" transform="translate(-20.33 -9)"/><path class="cls-9" d="M242.25,283.85v-.72c0-7.87,2.09-9.6,10-8.24.76.14,1.36.32,1.37,1.27a1.34,1.34,0,0,1-1.55,1.51c-1.66,0-3.33-.15-5-.19-1.23,0-2.09.45-2.05,1.86s.63,2.22,2.19,2.16,3.08,0,4.62,0c.79,0,1.55.19,1.47,1.12s-.75,1.11-1.56,1.1c-1.07,0-2.15-.06-3.22,0-1.52.1-3.47-.71-3.56,2.13-.09,3.17,2.13,2.14,3.7,2.26,1.42.12,2.86,0,4.28.1.76.05,1.42.47,1.32,1.36a1.23,1.23,0,0,1-1.25,1.06c-3.1,0-6.21.09-9.31,0-1.18,0-1.43-1.1-1.43-2.12C242.24,287,242.25,285.4,242.25,283.85Z" transform="translate(-20.33 -9)"/><path class="cls-11" d="M159.29,283.37v-.72c0-7.3,2.57-9.3,9.9-7.8.85.17,1.27.57,1.3,1.38,0,1-.6,1.21-1.39,1.22-1.79,0-3.58,0-5.37,0-1.23,0-2.07.41-2,1.86s.63,2.22,2.16,2.18,3.33,0,5,0c.58,0,1.26,0,1.31.84s-.5,1.3-1.31,1.32c-1.55,0-3.1.08-4.65,0s-2.44.57-2.55,2.22.8,2.29,2.39,2.26c1.79-.05,3.58,0,5.37,0,.75,0,1.45.35,1.48,1.21s-.68,1.25-1.41,1.26q-4.31.08-8.59,0c-1.46,0-1.64-1.09-1.62-2.27C159.31,286.71,159.29,285,159.29,283.37Z" transform="translate(-20.33 -9)"/><path class="cls-11" d="M214.56,283.78c0-1.43.07-2.86,0-4.28s-1-3.47.86-4.1a11.34,11.34,0,0,1,9.33.63,3.89,3.89,0,0,1,1.92,4.25c-.33,2.14-1.35,4-3.85,3.92-3-.07-4.65,1.3-5.13,4.22-.17,1.1-.54,2.29-1.88,2.18-1.53-.13-1.17-1.52-1.21-2.54,0-1.42,0-2.85,0-4.28Zm4.47-1.36c2.56-.31,4.52,0,4.57-2.48.05-2.81-2.26-2.24-3.86-2.49-1.87-.29-2.57.89-2.54,2.57S218.16,282.62,219,282.42Z" transform="translate(-20.33 -9)"/><path class="cls-11" d="M86.8,282.77c0-3.35,1-6.13,4.35-7.51A6.77,6.77,0,0,1,99,276.77c.8.79,2.07,1.72.92,3s-2,0-2.76-.88c-1.94-2.44-4.09-2.16-6.14-.3-2.22,2-2.18,7,.1,8.73s4.4,1.84,6.15-.72c.64-.93,1.3-2,2.48-1.14,1.38,1,.19,2.17-.42,3.06-1.93,2.83-4.85,2.82-7.7,2.14C88.53,289.87,86.78,286.79,86.8,282.77Z" transform="translate(-20.33 -9)"/><path class="cls-9" d="M200.33,290.66c-1-.25-1.31-.7-.87-1.78,1.62-4.08,3.11-8.2,4.69-12.29a2,2,0,0,1,2.13-1.54c1.14.11,1.61.94,2,1.83,1.49,3.62,3,7.23,4.37,10.89.31.83,1.65,2,.06,2.73-1.41.67-2.35-.4-2.59-1.64-.37-1.9-1.55-2.5-3.23-2.69-2-.23-3.84-.16-4.37,2.42A2.43,2.43,0,0,1,200.33,290.66Zm5.83-11.27c-1,1.4-2.34,2.76-1,4.4a2,2,0,0,0,2-.06C208.61,282,206.64,280.88,206.16,279.39Z" transform="translate(-20.33 -9)"/><path class="cls-11" d="M228.47,282.76a9.64,9.64,0,0,1,0-2.15c.42-1.8-1.57-4.5,1.24-5.32,3.09-.91,6.45-1,9.29,1.07,1.63,1.19,1.77,3.06,1.28,4.9a4.24,4.24,0,0,1-4.2,3.29c-3.07.15-6.06.12-5,4.67.19.8-.49,1.34-1.28,1.36a1.28,1.28,0,0,1-1.33-1.37C228.44,287.06,228.47,284.91,228.47,282.76Zm5.39-.54c1.8.1,3.72,0,3.82-2.21.11-2.58-2.2-2.3-3.89-2.59-2.15-.37-2.68.87-2.71,2.7C231,282.2,232.29,282.44,233.86,282.22Z" transform="translate(-20.33 -9)"/><path class="cls-1" d="M147.82,124.28c-5.86,0-11-2.89-16.45-4.36,3.39-2.27,7.44-3,11.09-4.62,1.44-.65,2.23-.13,2.7,1.26C146,119.14,146.93,121.71,147.82,124.28Z" transform="translate(-20.33 -9)"/><path class="cls-9" d="M135.25,283.84c0-1.19,0-2.39,0-3.58.09-2-.54-3.28-2.86-2.92-1,.15-2.08.31-2.05-1.14s1.27-1.15,2.17-1.16c2.75,0,5.5,0,8.24,0,1,0,2,.12,1.87,1.48-.13,1.08-1,1.14-1.89.94-2.73-.6-2.94,1.14-2.9,3.15,0,2.62,0,5.25,0,7.87,0,1-.17,2.08-1.38,2.11s-1.32-1.09-1.32-2.08c0-1.55,0-3.1,0-4.66Z" transform="translate(-20.33 -9)"/><path class="cls-9" d="M259.22,281.87a31.23,31.23,0,0,1-.17,3.21c-.39,2.6.68,3.57,3.21,3.12A11.91,11.91,0,0,1,264,288c.89,0,1.7.06,1.76,1.23a1.32,1.32,0,0,1-1.5,1.55c-1.91,0-3.83,0-5.72-.23a2.17,2.17,0,0,1-2.15-2.38c0-3.82,0-7.65,0-11.47,0-.88.09-1.72,1.32-1.6,1.05.1,1.39.8,1.4,1.72,0,1.67,0,3.34,0,5Z" transform="translate(-20.33 -9)"/><path class="cls-12" d="M119.3,280.88c.67-.3.79.07.76.63Z" transform="translate(-20.33 -9)"/></svg>