<svg id="Layer_1" data-name="Layer 1" xmlns="http://www.w3.org/2000/svg" viewBox="0 0 283.66 198.94"><defs><style>.cls-1{fill:#466979;}.cls-2{fill:#0f0e0e;}.cls-3{fill:#537181;}.cls-4{fill:#1c1b1b;}.cls-5{fill:#f4f3f3;}.cls-6{fill:#323030;}.cls-7{fill:#eae9e9;}.cls-8{fill:#fed243;}.cls-9{fill:#fed453;}</style></defs><title>altra systems</title><path class="cls-1" d="M144.13,108.23q-4-10.77-8-21.56c-2.43-6.48-4.86-13-7.39-19.42-.57-1.43-.31-1.89,1.11-2.42q17.74-6.63,35.44-13.42c.6-.23,1.34-.22,1.73-.88h3.68a8.47,8.47,0,0,1,4.63,5.33c3.56,9.7,7.29,19.34,11,29,.19.51.46,1,.69,1.46.93,2.5,1.87,5,2.8,7.49a25,25,0,0,0,1,3.06c.45,1,.34,1.32-.74,1.69-2.15.75-4.22,1.73-6.32,2.62-2.79,1-5.6,2-8.38,3-4,1.51-8,3.08-12,4.62l-13.51,5.11a5.16,5.16,0,0,0-1.32.38c-1.33.8-1.94.33-2.38-1C145.53,111.56,144.79,109.91,144.13,108.23Z" transform="translate(-8.17 -50.53)"/><path class="cls-2" d="M8.17,230.23c2.53-5.3,4.28-10.92,6.52-16.34,1-2.44,2-4.9,2.83-7.39a1.69,1.69,0,0,1,2.07-1.38,9.87,9.87,0,0,0,2.24,0c1.05-.11,1.54.3,1.92,1.3,3.09,8.17,6.24,16.31,9.48,24.76-1.61,0-3.07,0-4.53,0-1.07,0-1.08-.81-1.34-1.48-1.52-3.85-1.53-3.85-5.68-3.85a7.08,7.08,0,0,1-1.22,0c-3.53-.61-6.07.24-6.65,4.25-.13.87-.76,1.09-1.64,1.11-1.33,0-2.71-.37-4,.25ZM20.66,212.4c-1,2.6-1.87,4.94-2.82,7.25-.34.82-.42,1.25.68,1.21,1.43,0,2.85,0,4.28,0,.79,0,1.14-.15.77-1.05C22.6,217.45,21.7,215.05,20.66,212.4Z" transform="translate(-8.17 -50.53)"/><path class="cls-3" d="M137.52,181.1q-7,2.58-14,5.16c-4.72,1.76-7.72.41-9.5-4.29q-7.69-20.33-15.44-40.64c-.56-1.46-.42-2.05,1.15-2.63,11-4.08,21.89-8.28,32.83-12.44.56-.22,1.1-.5,1.65-.75l2-.56a29.06,29.06,0,0,0,8.12,2.94c.77,1.64,1.07,3.49,2.11,5a45.84,45.84,0,0,0,2.39,6.52l3.06,8.1c2.59,6.9,5.16,13.8,7.77,20.69,1.32,3.49,1.35,3.48-1.72,5.16a18,18,0,0,0-4.49,1.63,13.74,13.74,0,0,0-4.1,1.63,14.46,14.46,0,0,0-4.08,1.48A58.69,58.69,0,0,0,137.52,181.1Z" transform="translate(-8.17 -50.53)"/><path class="cls-1" d="M97.8,133.39c-1.37,1-2,.54-2.53-1C90.16,118.69,85,105,79.78,91.34c-1.65-4.37-.27-7.42,4.08-9.07,12-4.56,24.06-9.08,36.06-13.72,1.62-.63,2-.1,2.55,1.28q7.86,20.92,15.83,41.8c.15.38.34.75.5,1.12a26.32,26.32,0,0,0,1.1,3c.68,1.34.19,1.86-1.09,2.26s-2.77,1.1-4.15,1.66l-7.35,2.51c-.07-1.07-1-1.18-1.72-1.51-5.32-2.61-10.62-5.26-15.65-8.37A166.84,166.84,0,0,1,86.49,95.19C85,93.91,83.78,92.32,82,91.29a2.36,2.36,0,0,0,0,.61c4.36,11.85,8.65,23.72,13.13,35.53C95.82,129.45,95.89,131.87,97.8,133.39Z" transform="translate(-8.17 -50.53)"/><path class="cls-3" d="M97.8,133.39c-1.91-1.52-2-3.94-2.75-6-4.48-11.81-8.77-23.68-13.13-35.53a2.36,2.36,0,0,1,0-.61c1.83,1,3.09,2.62,4.54,3.9a166.84,166.84,0,0,0,23.45,17.16c5,3.11,10.33,5.76,15.65,8.37.68.33,1.65.44,1.72,1.51-6.27,2.43-12.52,4.87-18.8,7.26C105,130.84,101.37,132.09,97.8,133.39Z" transform="translate(-8.17 -50.53)"/><path class="cls-2" d="M83.8,220.6c0,3-.08,5.94,0,8.91,0,1.38-.39,1.71-1.71,1.7-3.52,0-3.52,0-3.52-3.51,0-6.95,0-13.91,0-20.86,0-1.27.23-1.81,1.64-1.73,2.91.16,5.85-.17,8.75.45A6.17,6.17,0,0,1,94,211c.49,3.08.1,6.13-3.06,7.78-1.54.81-1.35,1.47-.65,2.71,1.74,3.07,3.34,6.22,5.06,9.47a26,26,0,0,1-4.87.21c-.94,0-1-.75-1.33-1.31-1.69-3.12-3.35-6.25-5-9.38Zm0-7.92c.46.77-1,2.64,1.49,2.54,2.76-.11,3.92-.71,4-2.42s-1.18-2.49-3.74-2.7C83.19,209.91,83.9,211.42,83.78,212.68Z" transform="translate(-8.17 -50.53)"/><path class="cls-2" d="M100.68,231q3.81-9.85,7.58-19.66c.34-.89.68-1.77,1-2.65,1.49-3.77,1.49-3.74,5.45-3.55a1.4,1.4,0,0,1,1.48,1q4.55,11.94,9.16,23.86c.36.92.29,1.13-.73,1.19-4.08.26-4.16.32-5.47-3.48a2.34,2.34,0,0,0-2.76-1.9,65.88,65.88,0,0,1-6.74,0,2,2,0,0,0-2.22,1.51C105.75,231.67,105.7,231.64,100.68,231Zm12.55-18.53c-.66,1.7-1.18,3-1.69,4.34L110,220.85c1.92,0,3.61,0,5.3,0,1,0,1.19-.34.85-1.19C115.2,217.38,114.28,215.07,113.23,212.44Z" transform="translate(-8.17 -50.53)"/><path class="cls-4" d="M246.53,212.82c-.8,6-1.56,11.56-2.23,17.09-.17,1.43-1.06,1.3-2,1.28-1.4,0-.79-1.09-.72-1.64,1.05-7.73,2.17-15.46,3.27-23.19.07-.44,0-1.07.63-1.1s.59.67.78,1.06c3.25,6.5,6.47,13,9.84,19.81,3.53-7.15,6.92-14.06,10.46-21.23,1.08,1.48.86,2.95,1.06,4.25q1.54,9.78,2.81,19.58c.11.88,1.23,2.6-1.21,2.49-1,0-1.31-.37-1.43-1.27-.71-5.45-1.45-10.9-2.18-16.37-.82.08-.83.85-1.06,1.32-2.5,5-4.94,10-7.41,15-.25.52-.33,1.3-1.12,1.26s-.72-.76-.95-1.21C252.26,224.37,249.5,218.81,246.53,212.82Z" transform="translate(-8.17 -50.53)"/><path class="cls-2" d="M61.79,220.55c0-2.93-.08-5.86,0-8.79.05-1.39-.42-1.81-1.71-1.62-.46.06-1-.06-1.42,0-1.33.22-1.57-.4-1.57-1.6,0-3.42,0-3.42,3.39-3.42,3.06,0,6.13.06,9.19,0,1.41-.05,2,.15,2,1.83-.15,3.12,0,3.22-3.2,3.17-1.41,0-1.48.56-1.47,1.67,0,5.79,0,11.58,0,17.37,0,1.53-.27,2.14-2,2.07-3.28-.12-3.29,0-3.29-3.31Z" transform="translate(-8.17 -50.53)"/><path class="cls-2" d="M223.5,205l9.6.12c.72,0,1.57-.19,1.65.94.3,2.3-1.52,1.62-2.66,1.89-1.48-.05-3-.12-4.46-.12-5.42,0-5.42,0-5,5.6-.52,1.9.19,2.49,2.13,2.37,2.57-.17,5.17-.07,7.76,0,.87,0,2-.55,2.05,1.29s-1.21,1.38-2.15,1.4c-2.72,0-5.45.07-8.17,0-1.28,0-1.83.24-1.75,1.66a63.14,63.14,0,0,1,0,6.74c-.09,1.44.51,1.67,1.76,1.63,2.93-.07,5.86,0,8.79-.05,1.13,0,1.49.27,1.5,1.45s-.46,1.32-1.43,1.31c-3.95,0-7.91-.08-11.86,0-1.33,0-1.54-.42-1.53-1.62,0-5.51,0-11,0-16.55v-5.73c-.3-1.91.64-2.44,2.37-2.18A6.06,6.06,0,0,0,223.5,205Z" transform="translate(-8.17 -50.53)"/><path class="cls-2" d="M40.38,217.94c0-3.74,0-7.49,0-11.23,0-1.23.27-1.62,1.57-1.61,3.5,0,3.5,0,3.5,3.49,0,5.38,0,10.75,0,16.13,0,1.29.36,1.64,1.59,1.54s2.73.05,4.08,0,1.69.27,1.65,1.58c-.13,4.19.47,3.29-3.27,3.37-2.31.05-4.64-.15-6.94.06-1.92.17-2.22-.58-2.16-2.27C40.47,225.29,40.38,221.61,40.38,217.94Z" transform="translate(-8.17 -50.53)"/><path class="cls-4" d="M138.53,204.46c2.77,0,4.66,1.56,6.31,3.6.54.67.37,1.12-.3,1.4s-1,1.6-1.95.48a6.87,6.87,0,0,0-3-2.38,3.37,3.37,0,0,0-3.89,1,3.22,3.22,0,0,0-.21,4,7.27,7.27,0,0,0,2.11,2.17,41.13,41.13,0,0,1,5.82,4.8c3.15,3.46,3.11,7.51-.1,10.47a7.76,7.76,0,0,1-10.83-.61,8.9,8.9,0,0,1-1.25-1.61c-.37-.65-1.37-1.29,0-2.1,1-.61,1.6-.84,2.33.44,1.06,1.82,2.55,3.18,4.94,3a4.44,4.44,0,0,0,3.77-2.41,3.91,3.91,0,0,0-.51-4.38,23.78,23.78,0,0,0-4.8-4.38,15.74,15.74,0,0,1-3.84-3.62,6.32,6.32,0,0,1-.38-6.58A6.21,6.21,0,0,1,138.53,204.46Z" transform="translate(-8.17 -50.53)"/><path class="cls-4" d="M284.42,204.46c2.87-.05,4.79,1.57,6.49,3.65.58.72.22,1.13-.38,1.37s-1,1.57-1.94.45a10.9,10.9,0,0,0-1.89-1.83,3.54,3.54,0,0,0-5,.46,3.42,3.42,0,0,0,.33,4.62,21.76,21.76,0,0,0,3.1,2.63,30.65,30.65,0,0,1,4.35,3.69c3.06,3.31,3.08,7.55.06,10.35a7.84,7.84,0,0,1-11-.51,15.52,15.52,0,0,1-1.36-1.78c-.46-.67-1.06-1.3.15-1.94.9-.47,1.5-1,2.21.32,1.09,1.9,2.61,3.29,5.08,3.1a4.19,4.19,0,0,0,3.27-6.67,20.22,20.22,0,0,0-4.44-4.17c-1.58-1.28-3.34-2.38-4.42-4.18a6.18,6.18,0,0,1,5.36-9.56Z" transform="translate(-8.17 -50.53)"/><path class="cls-4" d="M191.51,208.55c-1.61,2.15-1.81,2.18-3.41.48a5.72,5.72,0,0,0-2-1.37,3.34,3.34,0,0,0-4.21,1,3.17,3.17,0,0,0,.12,4.14c1.59,2.08,3.91,3.31,5.92,4.91,1.67,1.83,3.72,3.44,4,6.16a7,7,0,0,1-4.09,7.29,7.88,7.88,0,0,1-8.86-1.6,16.57,16.57,0,0,1-1.51-1.92c-.54-.72-1.13-1.36.17-2.08,1-.55,1.51-.73,2.18.46a5.2,5.2,0,0,0,4.5,3.06,4.5,4.5,0,0,0,4.21-2.39,3.8,3.8,0,0,0-.56-4.55,25.37,25.37,0,0,0-5.84-5c-2.74-2.16-4.42-4.79-3.66-8.46a8.21,8.21,0,0,1,4.12-4,10.41,10.41,0,0,1,4.86.41l2.76,1.95Z" transform="translate(-8.17 -50.53)"/><path class="cls-4" d="M153,205c2.32-.3,3.47,1,4.49,2.89,1.42,2.61,3.1,5.09,4.71,7.7,2.47-3.54,4.22-7.32,6.76-10.59.67,0,1.34.12,2,.13s.67.45.53.94l-4.71,7.7c-2.2,2.87-3.69,5.91-3.18,9.72a59.18,59.18,0,0,1,.07,6.11c0,1-.06,1.64-1.37,1.63s-1.45-.45-1.43-1.55c.07-3.06,0-6.12.05-9.18a5.31,5.31,0,0,0-.84-3.05q-3.37-5.32-6.62-10.72C153.14,206.23,152.29,205.8,153,205Z" transform="translate(-8.17 -50.53)"/><path class="cls-5" d="M134.66,119.72c1.38-.56,2.73-1.21,4.15-1.66s1.77-.92,1.09-2.26a26.32,26.32,0,0,1-1.1-3c1.18-.21,1.72-1.17,2.38-2,.83-1,1.5-2.23,2.95-2.52.66,1.68,1.4,3.33,2,5,.44,1.37,1,1.84,2.38,1a5.16,5.16,0,0,1,1.32-.38,2.07,2.07,0,0,1-.56,1.66,43.58,43.58,0,0,0-5.08,7.26c-.29.49-.58.91-1.2,1-.3-.86-.67-1.33-1.73-.83-1.61.75-3.31,1.33-5,2l-2,.56C133.32,123.51,134.8,121.67,134.66,119.72Z" transform="translate(-8.17 -50.53)"/><path class="cls-4" d="M203.83,215.91c0-2.23,0-4.46.11-6.68,0-1-.3-1.4-1.37-1.4-1.47,0-3,.29-4.42-.21l0-1.54c.06-1,.72-1,1.44-1,3.95,0,7.9,0,11.84,0,1.08,0,1.38.36,1.39,1.42s-.49,1.38-1.47,1.33-1.91,0-2.86,0c-1.21-.11-1.82.26-1.63,1.56.08.54.09,1.08.14,1.62a26.77,26.77,0,0,0,0,5.73c0,4.28-.1,8.57-.11,12.86,0,1,0,1.66-1.34,1.63s-1.62-.39-1.61-1.64C203.94,225,203.86,220.47,203.83,215.91Z" transform="translate(-8.17 -50.53)"/><path class="cls-4" d="M258.56,246.68c0-1.89,0-3.77,0-5.66,0-.39-.07-.89.52-.91s.56.48.56.87q0,3.68,0,7.35c0,.39.07.87-.44,1s-.74-.22-1-.54a52.9,52.9,0,0,0-5.5-5.92c0,1.79,0,3.57,0,5.35,0,.44.15,1.1-.54,1.1s-.53-.67-.54-1.11c0-2.31,0-4.63,0-6.94,0-.39-.14-.92.29-1.11s.84.27,1.14.62l5,6.06Z" transform="translate(-8.17 -50.53)"/><path class="cls-4" d="M143.8,242.91c0,1.69,0,3.38,0,5.06,0,.49.26,1.29-.5,1.33s-.56-.77-.57-1.25c0-2,0-4.08,0-6.12,0-.61-.44-1.54.43-1.77s1.05.71,1.47,1.21c1.53,1.8,3,3.63,4.75,5.7.51-2,.17-3.83.3-5.59,0-.48-.31-1.3.46-1.34,1,0,.58.9.59,1.4.06,2.17,0,4.35,0,6.53,0,.45.18,1.05-.39,1.24s-.85-.29-1.15-.66c-1.65-2-3.28-3.92-4.92-5.89Z" transform="translate(-8.17 -50.53)"/><path class="cls-6" d="M194.83,245.16c2.35-1.19,3.19-.78,3.2,1.49,0,.67,0,1.36,0,2,0,.36-.36.84-.58.59-1-1.08-1.74-.05-2.59.13a4.67,4.67,0,0,1-4.83-2.65,4.87,4.87,0,0,1,1.23-5.73,4.46,4.46,0,0,1,5.45-.14c.44.36,1.26.79.78,1.4-.61.79-1-.19-1.42-.49a3.06,3.06,0,0,0-4.23.24,3.63,3.63,0,0,0-.35,4.83,3.11,3.11,0,0,0,4.11,1.13c.74-.3,1.5-.75,1.35-1.8s-1.09-.44-1.62-.7A2.63,2.63,0,0,1,194.83,245.16Z" transform="translate(-8.17 -50.53)"/><path class="cls-6" d="M228.07,249.27c-1.55.32-1.67-.83-2.2-1.43s-.71-1.23-1.24-1.57c-1.23-.78-2.35,0-2.45,1.69,0,.56.23,1.44-.72,1.36-.77-.06-.42-.87-.43-1.33,0-2.25,0-4.5,0-6.74,0-.83.15-1.27,1.11-1.2s2-.07,3.06,0c2.32.23,3.73,3.11,2.09,4.66-1.35,1.27-.85,2-.06,3A13.9,13.9,0,0,1,228.07,249.27ZM223.81,245c1.6.21,2.9-.18,2.88-2,0-1.57-1.26-1.76-2.61-1.82s-2.13.19-1.94,1.83C222.28,244.15,221.94,245.48,223.81,245Z" transform="translate(-8.17 -50.53)"/><path class="cls-6" d="M173.12,244.75A4.45,4.45,0,0,1,177.6,240a4.66,4.66,0,0,1,4.53,4.76,4.77,4.77,0,0,1-4.69,4.66A4.52,4.52,0,0,1,173.12,244.75Zm1.17-.05a3.33,3.33,0,0,0,3.26,3.62,3.5,3.5,0,0,0,3.37-3.58,3.62,3.62,0,0,0-3.33-3.68A3.47,3.47,0,0,0,174.29,244.7Z" transform="translate(-8.17 -50.53)"/><path class="cls-6" d="M206.27,244.8c0-4.85,0-4.86,4.91-4.72.54,0,1.47-.37,1.49.52s-.9.57-1.46.6a20,20,0,0,1-2.05,0c-1,0-1.76-.13-1.78,1.39s.71,1.53,1.83,1.57c.92,0,2.63-.5,2.61.43s-1.69.47-2.61.49c-1.19,0-1.81.12-1.83,1.61s.67,1.65,1.82,1.56a14.08,14.08,0,0,1,2.25,0c.48,0,1.29-.33,1.31.48,0,1-.88.61-1.41.63-1.22.05-2.46,0-3.68,0-1,.06-1.51-.22-1.42-1.35S206.27,245.89,206.27,244.8Z" transform="translate(-8.17 -50.53)"/><path class="cls-6" d="M284.05,244.72c0-4.73,0-4.74,4.79-4.63.56,0,1.61-.48,1.59.59,0,.81-1,.48-1.53.52a16.12,16.12,0,0,1-1.84,0c-1,0-1.9-.2-1.91,1.47s.93,1.36,1.92,1.48,2.47-.63,2.53.53c0,.87-1.62.4-2.49.39-1.27,0-1.93.1-1.95,1.7s.87,1.5,1.9,1.48,1.78,0,2.66,0c.39,0,.9,0,.86.57s-.51.56-.92.56c-1.57,0-3.14,0-4.7,0-.75,0-.93-.36-.91-1C284.07,247.18,284.05,246,284.05,244.72Z" transform="translate(-8.17 -50.53)"/><path class="cls-6" d="M235.65,249.39c-.67-.1-.55-.43-.36-.87,1.14-2.6,2.23-5.22,3.38-7.81.4-.9,1.07-.94,1.47-.07,1.19,2.58,2.28,5.2,3.4,7.81.13.31.28.71-.13.87-.57.24-.93-.16-1-.65a2.51,2.51,0,0,0-3-2.13c-1.36.1-2.38.22-2.69,1.75C236.52,248.82,236.29,249.34,235.65,249.39Zm5.36-3.81a12.78,12.78,0,0,0-1.69-3.79c-.58,1.36-1.07,2.49-1.62,3.79Z" transform="translate(-8.17 -50.53)"/><path class="cls-6" d="M159.47,244.58c0-4.55,0-4.55,4.55-4.52h1c.34,0,.7,0,.72.48s-.35.66-.8.66c-.75,0-1.5,0-2.25,0-1,.06-2.14-.48-2.17,1.43s1,1.43,2.06,1.53c.81.07,2.34-.41,2.29.37-.07,1.13-1.56.59-2.35.52-1.76-.15-2,.65-2,2.14,0,.7.55,2-.51,2s-.46-1.31-.55-2A21.26,21.26,0,0,1,159.47,244.58Z" transform="translate(-8.17 -50.53)"/><path class="cls-6" d="M272.33,240.05a3.64,3.64,0,0,1,2.86,1.06c.29.29.87.63.44,1.17s-.75.12-1.16-.19c-1.77-1.34-3.48-1.26-4.66.15a3.78,3.78,0,0,0,.11,5c1.28,1.4,2.92,1.44,4.67.07.37-.29.68-.79,1.14-.26s-.11.85-.4,1.16a4.42,4.42,0,0,1-5.08.73,5,5,0,0,1-2.42-5.37A4.52,4.52,0,0,1,272.33,240.05Z" transform="translate(-8.17 -50.53)"/><path class="cls-6" d="M134,244.63c0,1.29,0,2.58,0,3.87,0,.42-.06.85-.6.86s-.7-.35-.7-.8q0-3.87,0-7.73c0-.48.2-.78.73-.75s.56.49.56.89C134,242.19,134,243.41,134,244.63Z" transform="translate(-8.17 -50.53)"/><path class="cls-7" d="M163.3,108.82c-1,2-3.11,3-4.76,4.31a43.74,43.74,0,0,0-10.86,13.05c-.59,1.08-.94,2,.07,3.3s-.54,2.38-1.27,3.43c-1-1.53-1.34-3.38-2.11-5-.48-1.37-1-2.73-1.42-4.09.62,0,.91-.46,1.2-1a43.58,43.58,0,0,1,5.08-7.26,2.07,2.07,0,0,0,.56-1.66Z" transform="translate(-8.17 -50.53)"/><path class="cls-1" d="M143,123.8c.47,1.36.94,2.72,1.42,4.09a29.06,29.06,0,0,1-8.12-2.94c1.66-.65,3.36-1.23,5-2C142.28,122.47,142.65,122.94,143,123.8Z" transform="translate(-8.17 -50.53)"/><path class="cls-8" d="M153.22,128.16l-2.07-4.91c-.39-1.14-.87-2.26-1.15-3.43-.35-1.44,1-1.6,1.83-1.83a47.13,47.13,0,0,0,6.62-2.5c4.77-1.76,9.55-3.5,14.31-5.29,6-2.28,12-4.61,18.06-6.91,1.13-.06,2-1.1,3.2-.89l1.95,4.95,2.13,5.7,2.4,6.17,3,8.55a4.62,4.62,0,0,1-2.24.82c-8.67,1.89-17.45,2.2-26.28,2.06A116.54,116.54,0,0,1,162,129.49C159.08,129.12,156.22,128.19,153.22,128.16Z" transform="translate(-8.17 -50.53)"/><path class="cls-9" d="M153.22,128.16c3,0,5.86,1,8.81,1.33A116.54,116.54,0,0,0,175,130.65c8.83.14,17.61-.17,26.28-2.06a4.62,4.62,0,0,0,2.24-.82l2.46,5.75c1.44,3.94,2.87,7.88,4.33,11.82a5.59,5.59,0,0,1,.13,4.53,4,4,0,0,0-1,.14l-41.68,16.3-6.45-16.43a70.37,70.37,0,0,0-3.89-9.88,50.65,50.65,0,0,0-3.07-8.55Z" transform="translate(-8.17 -50.53)"/><path class="cls-8" d="M210.39,149.87c-1.15,3.8-4.73,4.14-7.68,5.29-9.68,3.76-19.4,7.43-29.1,11.14a28.7,28.7,0,0,0-3.44,1.24c-1.47.73-2.29.47-2.46-1.23L209.39,150A4,4,0,0,1,210.39,149.87Z" transform="translate(-8.17 -50.53)"/></svg>