<svg id="Layer_1" data-name="Layer 1" xmlns="http://www.w3.org/2000/svg" viewBox="0 0 279.86 206"><defs><style>.cls-1{fill:#486b7a;}.cls-2{fill:#577383;}.cls-3{fill:#86c542;}.cls-4{fill:#9fce62;}.cls-5{fill:#1c1a1a;}.cls-6{fill:#252423;}.cls-7{fill:#171616;}.cls-8{fill:#201f1f;}.cls-9{fill:#2b2a29;}.cls-10{fill:#343232;}.cls-11{fill:#403e3e;}.cls-12{fill:#3a3838;}.cls-13{fill:#514e4e;}</style></defs><title>C&amp;amp;H</title><path class="cls-1" d="M176.45,47c4-.08,6,1.93,7.09,4.83,5.89,15.35,11.67,30.73,17.54,46.08.66,1.73.07,2.29-1.51,2.88q-22.27,8.42-44.49,17c-2.25.87-3.19.17-4-1.94Q141.85,91,132.39,66.26c-.73-1.9-.44-2.83,1.49-3.55,13.4-5,26.78-10.08,40.18-15.11A17,17,0,0,1,176.45,47Z" transform="translate(-10.07 -47)"/><path class="cls-2" d="M150,134.34c5.36,13.85,10.76,27.68,16.07,41.55,2.54,6.66,3.11,5.75-3.71,8.33L127.89,197.3c-7,2.67-9.77,1.43-12.39-5.49q-8.19-21.63-16.43-43.24c-.66-1.74-1.07-3,1.3-3.88,12.06-4.45,24.06-9.05,36.08-13.58a6.37,6.37,0,0,1,1.32-.19C141.76,132.38,145.69,134.06,150,134.34Z" transform="translate(-10.07 -47)"/><path class="cls-1" d="M80.06,97.35c-.08-.08-.19-.15-.23-.25C74.6,86.51,77.27,84,86.14,80.79,98,76.55,109.78,72,121.54,67.37c2.32-.91,3.37-.5,4.24,1.84q9.15,24.48,18.5,48.89c1,2.69.35,3.82-2.23,4.64-4.78,1.52-9.49,3.27-14.23,4.91,0-1.43-1.25-1.37-2.1-1.76a188.43,188.43,0,0,1-35-20.68C87.17,102.58,84.44,98.82,80.06,97.35Z" transform="translate(-10.07 -47)"/><path class="cls-3" d="M216,137a112.82,112.82,0,0,1,6.52,16.81c1.14,3.51-.19,6.36-3.67,8A336.81,336.81,0,0,1,179.16,178c-1.48.5-2.88.7-3.58-1.19q-7.37-19.56-14.72-39.11c5.93-.24,11.67,1.43,17.56,1.75a90.67,90.67,0,0,0,13.69,0C200.06,138.68,208,137.83,216,137Z" transform="translate(-10.07 -47)"/><path class="cls-4" d="M216,137c-8,.82-15.9,1.67-23.85,2.45a90.67,90.67,0,0,1-13.69,0c-5.89-.32-11.63-2-17.56-1.75-2.41-3.81-3.46-8.21-5.29-12.27-.65-1.43-.11-2.19,1.37-2.74q22.41-8.42,44.75-17c1.72-.66,2.68-.36,3.33,1.42C208.63,117.13,212.3,127.06,216,137Z" transform="translate(-10.07 -47)"/><path class="cls-2" d="M80.06,97.35c4.38,1.47,7.11,5.23,10.64,7.86a188.43,188.43,0,0,0,35,20.68c.85.39,2.11.33,2.1,1.76q-15.1,5.88-30.2,11.78c-1.43.56-2,0-2.46-1.28C90.19,124.52,84.61,111.13,80.06,97.35Z" transform="translate(-10.07 -47)"/><path class="cls-5" d="M114.58,233c2-5.45,4-10.44,5.81-15.44.44-1.17.73-2.32,2.36-2.4s1.91,1.26,2.33,2.35c1.72,4.47,3.43,8.95,5.08,13.45.34.94,1.26,2.19-.31,2.84s-2.6-.22-2.87-1.8c-.49-2.74-2.28-3-4.65-2.94-2,.05-3.1.52-3.63,2.5s-1.36,3.79-3.85,1.59c-1.07-.95-1.53.94-2.77.82a85.51,85.51,0,0,0-9.74-.07c-1.68,0-2.1-.73-2.08-2.24,0-4.82,0-9.64,0-14.46,0-1.32.35-2.2,1.87-2.12s1.46,1.12,1.46,2.17c0,3.36.23,6.74,0,10.08-.24,2.85.92,3.54,3.43,3.23,1.1-.13,2.24,0,3.35,0C112.17,230.41,113.88,230.46,114.58,233Zm8.08-11.43c-.7,1.41-1.8,2.56-.65,4a1.05,1.05,0,0,0,1.51,0C124.57,224.16,123.65,223,122.66,221.58Z" transform="translate(-10.07 -47)"/><path class="cls-6" d="M185.44,224.91c0,2.23,0,4.46,0,6.68,0,1,.2,2.08-1.16,2.39a2.42,2.42,0,0,1-2.8-1.27c-1.43-2.26-2.93-4.47-4.42-6.68-.46-.68-.7-1.87-1.88-1.45s-.69,1.51-.72,2.34c-.05,1.78-.05,3.57,0,5.36,0,1.06-.28,1.64-1.47,1.73s-2-.37-2-1.62c0-5.25,0-10.5,0-15.76a1.37,1.37,0,0,1,1.1-1.45,2.18,2.18,0,0,1,2.62.94c1.4,2.14,2.73,4.34,4.24,6.42.64.89,1,2.73,2.37,2.22s.65-2.17.69-3.35,0-2.45,0-3.67-.45-2.66,1.57-2.65,1.83,1.59,1.86,2.87c.06,2.32,0,4.64,0,6.95Z" transform="translate(-10.07 -47)"/><path class="cls-5" d="M43.25,226.16c-.28,2.19-1.15,4.12.7,6.15.93,1-.06,2.51-1.76,1.68s-3.07-.48-4.66.24a8.13,8.13,0,0,1-5.59.23c-4.54-1.27-5.87-6.11-2.49-9.37,1.3-1.25,1.73-2.15,1.07-4A4.55,4.55,0,0,1,33,214.94c2.19-1,4.31-.73,5.72,1.16,1.81,2.41,1.34,4.88-1,6.81-1.38,1.16-1.7,2.17-.26,3.48.5.46.9,1.08,1.64,1,.9-.17.81-1,.76-1.61-.13-1.63.63-2.35,2.18-2.11S43.07,225.31,43.25,226.16Zm-9,5.55c.79-.23,2.44,0,2-1.37-.55-1.56-1.59-3.38-3.42-3.68-1-.16-1.89,1.14-1.87,2.36C31,231.06,32.55,231.43,34.26,231.71Zm2.13-12.63c0-1-.46-1.47-1.42-1.36s-1.41.92-1.35,1.9S33.9,221.25,35,221A1.78,1.78,0,0,0,36.39,219.08Z" transform="translate(-10.07 -47)"/><path class="cls-5" d="M67.32,224.53v-1.35c0-8.66,0-8.64,8.67-8.11,2.49.15,4.39,1.29,5.19,3.57s1.08,5.22-1.23,6.8c-2.66,1.82-2,3.19-.33,5,.8.9,2.48,2,1,3.2-1.21,1-2.7.13-3.68-1.24s-2.11-2.61-3.2-3.89c-.56-.66-1-1.64-2.12-1.28s-1,1.35-1,2.25,0,1.8,0,2.69c.08,1.32-.62,1.86-1.81,1.83s-1.55-.7-1.54-1.77C67.34,229.68,67.32,227.11,67.32,224.53Zm6.51-.72c2.19,0,4.43.45,4.37-2.73-.06-2.87-2.07-2.63-4-2.68s-3.66-.16-3.63,2.84S72.13,223.94,73.83,223.81Z" transform="translate(-10.07 -47)"/><path class="cls-7" d="M242.15,224.64c0,2.35,0,4.7,0,7.05,0,.8.48,1.92-.82,2.22a2.39,2.39,0,0,1-2.88-1.06c-1.54-2.46-3.2-4.85-4.8-7.28-.37-.57-.68-1.25-1.49-1.12-1.2.19-.75,1.21-.77,1.89-.06,1.79-.1,3.59,0,5.37.09,1.47-.23,2.36-1.93,2.31-1.85-.06-1.4-1.4-1.41-2.43,0-4.7,0-9.41,0-14.11,0-.79-.48-1.88.79-2.26a2.28,2.28,0,0,1,2.83,1.15q2.37,3.66,4.84,7.24c.4.6.69,1.63,1.67,1.31s.63-1.32.64-2c0-2,0-4,0-6.05,0-1.08.42-1.69,1.56-1.72s1.81.52,1.78,1.81C242.11,219.49,242.14,222.06,242.15,224.64Z" transform="translate(-10.07 -47)"/><path class="cls-7" d="M265.1,215.09c1,0,2,0,3,0a5.33,5.33,0,0,1,5.35,3.82c.76,2.4.82,5.21-1.51,6.74-2.67,1.75-1.65,3-.22,4.7.76.92,2.48,2.1,1,3.3-1.19,1-2.66.15-3.64-1.22s-2.25-2.78-3.38-4.16c-.51-.61-1-1.28-1.93-1s-.84,1.17-.85,1.93c0,1.11,0,2.23,0,3.35S262,234,261.11,234c-1.13.05-1.51-.6-1.5-1.7,0-5.14,0-10.29,0-15.44,0-1.27.53-1.84,1.79-1.81S263.87,215.09,265.1,215.09Zm1.37,8.72c1.92.09,4.09.29,4-2.82-.11-2.86-2.22-2.47-4.11-2.6-2.22-.17-3.46.17-3.49,3C262.8,224.35,264.57,223.85,266.47,223.81Z" transform="translate(-10.07 -47)"/><path class="cls-8" d="M151.38,224.61c0-5.88,3.63-9.79,9.05-9.79,5.27,0,9,3.9,9,9.51s-3.93,10.07-8.95,10.18S151.37,230.21,151.38,224.61Zm3.3,0c0,3.74,2.47,6.42,5.87,6.38s5.65-2.85,5.59-6.62-2.36-6.11-5.69-6.1C156.85,218.26,154.67,220.65,154.68,224.6Z" transform="translate(-10.07 -47)"/><path class="cls-7" d="M84.13,223.73c.45-2.36-1.44-6.18.72-8.1s5.79-.36,8.78-.58c.67-.05,1.34.06,2,0,1.36-.07,2.14.41,2.09,1.9s-1,1.46-2.08,1.45c-2,0-4,.06-6.05,0-1.57-.07-2.18.52-2.22,2.12s.55,2.32,2.29,2.44c1.53.11,4.24-1.19,4.21,1.69,0,2.7-2.53,1.29-4,1.42-1.68.14-2.58.58-2.54,2.59,0,2.16,1.3,1.91,2.65,1.9,1.79,0,3.59,0,5.38,0,1.2,0,2.26.16,2.35,1.71S96.66,234,95.54,234c-2.9.06-5.81,0-8.72.08-1.95,0-2.87-.63-2.73-2.74C84.25,229,84.13,226.67,84.13,223.73Z" transform="translate(-10.07 -47)"/><path class="cls-7" d="M211.91,223.92c.5-2.44-1.49-6.39.81-8.37,2-1.73,5.81-.35,8.82-.5a18.46,18.46,0,0,1,2.68.07c1.18.13,1.35,1,1.28,2s-.52,1.35-1.52,1.33c-2.23,0-4.48.06-6.71,0-1.69-.06-2.07.76-2.09,2.25s.45,2.17,2.06,2.31,4.26-1.16,4.41,1.49c.18,3-2.58,1.42-4.09,1.64s-2.42.47-2.42,2.36.84,2.22,2.45,2.14c1.89-.1,3.8,0,5.7,0,1.25,0,2.21.29,2.24,1.83,0,1.73-1.27,1.61-2.32,1.64-2.8.08-5.59,0-8.38.08-2.07.07-3.13-.55-3-2.86S211.91,226.77,211.91,223.92Z" transform="translate(-10.07 -47)"/><path class="cls-7" d="M276.25,224.67c0-2.47,0-4.71,0-6.94,0-1.83.52-2.9,2.73-2.74,2.89.21,5.81.09,8.72.08,1.25,0,2.22.2,2.22,1.79,0,1.78-1.25,1.53-2.34,1.54-1.9,0-3.81.11-5.71,0s-2.21.86-2.25,2.44.82,2.15,2.28,2.07a3,3,0,0,1,.67,0c1.35.24,3.58-.84,3.44,1.81-.12,2.36-2.06,1.37-3.37,1.39-1.64,0-3,.05-3,2.42s1.4,2.06,2.86,2c1.91,0,3.81,0,5.71,0,1.2,0,1.77.67,1.76,1.94s-.87,1.4-1.78,1.44-1.79,0-2.68,0c-2.89-.07-6.73,1.39-8.42-.47C275.15,231.41,276.71,227.52,276.25,224.67Z" transform="translate(-10.07 -47)"/><path class="cls-5" d="M45.75,224.38c0-2.46,0-4.92,0-7.38,0-1.11.13-2,1.58-2s1.77.74,1.77,1.92c0,.56,0,1.12,0,1.68,0,4.49.06,4.34,4.83,4.09,2.32-.12,2.65-1,2.73-3,.07-1.58-1.46-4.5,1.53-4.52s1.56,2.88,1.63,4.49c.19,4,.09,8.07.08,12.1,0,1,0,2.06-1.49,2.11s-1.89-.85-1.84-2.14a13.44,13.44,0,0,1,0-1.68c.54-3.09-.7-3.94-3.78-3.86-2.8.06-4.29.53-3.72,3.65a13.17,13.17,0,0,1,0,2.35c0,1.35-.77,1.67-1.95,1.69-1.33,0-1.39-.84-1.39-1.79Q45.74,228.26,45.75,224.38Z" transform="translate(-10.07 -47)"/><path class="cls-8" d="M193.67,224.9c0-4,1.38-7.27,4.87-9.08a8.59,8.59,0,0,1,9.18.58c1,.67,2.3,1.51,1.41,2.92s-2.07.85-3.32-.07a5.44,5.44,0,0,0-7.25.8,7.54,7.54,0,0,0,.09,9.25c2.1,2.27,4.84,2.54,7.43.49,1.11-.87,2-1.54,3-.22,1.2,1.47-.16,2.28-1,3a8,8,0,0,1-8.77,1.24C195.46,232.06,193.84,228.81,193.67,224.9Z" transform="translate(-10.07 -47)"/><path class="cls-8" d="M10.08,224.26c.2-4,1.7-7.16,5.6-8.74a8.18,8.18,0,0,1,8.8,1.21c.87.72,1.89,1.53.86,2.77-.86,1-1.73.81-2.85,0-2.67-1.92-5.63-1.61-7.51.49a7.54,7.54,0,0,0,0,9.27c2.08,2.31,4.72,2.51,7.71.27,1.14-.86,1.9-1,2.8.05,1.16,1.3-.05,2.06-.78,2.77a8.62,8.62,0,0,1-9.38,1.29C11.61,231.7,9.93,228.47,10.08,224.26Z" transform="translate(-10.07 -47)"/><path class="cls-8" d="M249,226.1c0-1.22-.08-2.46,0-3.67.21-2.63,0-4.75-3.57-4-1.25.25-1.54-.66-1.47-1.64s.35-1.71,1.59-1.7c3.46.05,6.91,0,10.37,0a1.46,1.46,0,0,1,1.68,1.6c.05,1.32-.61,1.91-1.82,1.72-3.11-.49-3.5,1.21-3.37,3.73.18,3.22.11,6.45.08,9.67,0,1.13-.1,2.35-1.73,2.27-1.45-.06-1.81-1-1.79-2.28C249.05,229.9,249,228,249,226.1Z" transform="translate(-10.07 -47)"/><path class="cls-7" d="M135.25,225.85a38.49,38.49,0,0,1,0-4c.26-2.46-.34-3.94-3.22-3.43-1.16.21-2.08-.27-2-1.56a1.69,1.69,0,0,1,1.92-1.78c3.24.08,6.48,0,9.72,0,1.27,0,2.24.28,2.19,1.8-.05,1.36-1,1.68-2.09,1.52-2.85-.42-3.39,1-3.26,3.52.18,3.34,0,6.69.06,10,0,1.06-.06,2.07-1.5,2.09s-1.9-.84-1.87-2.17C135.28,229.87,135.25,227.86,135.25,225.85Z" transform="translate(-10.07 -47)"/><path class="cls-9" d="M167.3,252.7c0-4.58,0-9,0-13.33a.88.88,0,0,1,.25-.6c1-.93,8,0,8.91,1.22,1.76,2.27,1.16,4.93-1.81,6.61-2,1.13-.14,1.64.14,2.39.44,1.15,2.5,2.51,1.56,3.11-1.46.93-2-1.39-2.94-2.31-.24-.23-.39-.54-.62-.78-.9-.93-1.56-2.53-3.16-2s-.54,2.12-.82,3.2C168.63,251,169.22,252.05,167.3,252.7Zm4-7.36c2.19,0,4.37.31,4.36-2.59s-2.27-2.6-4.28-2.85c-2.43-.29-2.56.89-2.65,2.84C168.63,245.08,169.48,245.76,171.31,245.34Z" transform="translate(-10.07 -47)"/><path class="cls-5" d="M149.25,224.51c0,2.35-.06,4.7,0,7,0,1.39-.1,2.46-1.82,2.54s-1.61-1.26-1.62-2.3c0-4.91,0-9.81,0-14.72,0-1.2.52-2,1.75-1.95s1.73.81,1.72,2c0,2.46,0,4.91,0,7.37Z" transform="translate(-10.07 -47)"/><path class="cls-10" d="M198.17,245.3a5.1,5.1,0,0,1,0-1.66c.59-1.66-1.51-4.32,1.35-5,4.35-1.07,7.46.28,8.85,3.37a7.88,7.88,0,0,1-1,8.49c-2.09,2.75-5.18,2.06-8,2.08-1.32,0-1.22-1-1.23-1.91C198.16,248.87,198.17,247.08,198.17,245.3Zm4,5.46c2.52.39,4.18-.6,4.94-2.95.85-2.61.54-5.07-1.57-7-1.47-1.35-3.46-1.14-5.09-.72-1.44.37-.58,2.09-.67,3.19-.14,1.65.08,3.34-.07,5C199.55,250.26,200.09,251.29,202.19,250.76Z" transform="translate(-10.07 -47)"/><path class="cls-6" d="M150.4,249.1c.65-3.89-.27-7.29.64-10.5h1c0,4.35,0,8.7,0,13,0,.5-.32,1-.81.78a2.58,2.58,0,0,1-1.23-1,60.14,60.14,0,0,0-6.52-8.7v10c-2-.81-1.44-2.09-1.47-3-.07-3-.06-6,0-9.06,0-.69-.47-1.67.62-2s1.31.56,1.74,1.21C146.26,242.79,148.18,245.71,150.4,249.1Z" transform="translate(-10.07 -47)"/><path class="cls-11" d="M190.29,239.26c-1.94,1-4,.8-6,.66s-2.06.91-2.09,2.41.2,2.64,2.14,2.31a15.66,15.66,0,0,1,1.68,0c.63,0,1.2.14,1.17.84s-.65.72-1.22.83c-1.23.22-2.82-.76-3.65.76-1.08,2,.21,3.55,2.61,3.78,1.79.16,5.18-.76,5,.7-.21,2.23-3.28.94-5.07,1-4.49.2-4.49.06-4.49-4.44,0-2.35.14-4.71-.05-7.05-.17-2.18.73-2.75,2.71-2.55C185.43,238.75,187.89,238.19,190.29,239.26Z" transform="translate(-10.07 -47)"/><path class="cls-11" d="M265.61,238.89c-1.92,1.39-4,1.16-6,1s-2.15.79-2.13,2.36.08,2.7,2.1,2.35a11.76,11.76,0,0,1,1.68,0c.6,0,1.2.07,1.2.79s-.6.76-1.18.86c-1.23.23-2.81-.72-3.66.73-1.12,1.91.2,3.56,2.55,3.83,1.81.2,4.87-1.2,5.08,1,.14,1.46-3.26.63-5,.69-4.52.17-4.53.05-4.53-4.41,0-2.46.1-4.93,0-7.39-.1-1.8.59-2.36,2.32-2.26,2.23.13,4.47,0,6.71.08A2.94,2.94,0,0,1,265.61,238.89Z" transform="translate(-10.07 -47)"/><path class="cls-10" d="M280.65,247.92c1.45,1.51,2,3.18,3.75,3.33,1.53.13,3-.05,3.64-1.65s-.45-2.47-1.84-3a36.38,36.38,0,0,1-3.68-1.58,3.17,3.17,0,0,1-1.87-3.88c.67-2.32,2.66-3,4.72-3,1.65,0,3.34.61,4,2.53.15.45.22,1-.24,1.18a.73.73,0,0,1-1.1-.39c-.48-1.49-1.69-1.59-3-1.61s-2.59.35-2.83,1.79c-.2,1.25.77,1.93,1.91,2.4,1.54.62,3.24,1,4.48,2.19s1.82,2.86.73,4.53c-1.56,2.4-3.94,2.42-6.27,1.67C281.35,251.86,280.14,250.66,280.65,247.92Z" transform="translate(-10.07 -47)"/><path class="cls-12" d="M227.37,252.41c-1.2.2-1.54-.32-1.72-.81-.59-1.66-.88-3.26-3.44-3.13-2.32.12-4.14.19-4.54,3-.07.56-.58,1.38-1.4.93-.49-.28-.38-.95-.16-1.52,1.44-3.71,2.87-7.43,4.26-11.16.46-1.24,1.7-1.77,2.14-.73C224.32,243.35,226.31,247.7,227.37,252.41Zm-5.75-11.25c-.81,2-1.72,3.54-1.8,5.47h3.64C223.34,244.66,222.47,243.12,221.62,241.16Z" transform="translate(-10.07 -47)"/><path class="cls-9" d="M138.68,240c-2,0-4,.14-5.9,0s-2.34.71-2.3,2.48c0,1.61.26,2.49,2.16,2.3,1-.1,2.19-.44,3.2.53-.38,1.45-1.59,1-2.42,1-1.84-.06-3,0-3,2.55s1.66,2,3.08,2.07,2.68,0,4,0c.62,0,1.19.26,1.17.9s-.62.84-1.23.84h-7c-1.34,0-1.3-.92-1.3-1.84,0-3.46,0-6.92,0-10.38,0-.7-.35-1.74.89-1.76,2.9,0,5.79,0,8.69,0Z" transform="translate(-10.07 -47)"/><path class="cls-12" d="M121.56,252.78c-3.55,0-5.49-1.6-6.59-4.34a7.7,7.7,0,0,1,1.82-8.63,6.21,6.21,0,0,1,7.15-1c.82.38,2.28.93,1.69,2.06s-1.46-.15-2.19-.47c-2.44-1.06-4.58-.74-6.24,1.44a6.32,6.32,0,0,0,.3,7.75c1.85,2,4,2.35,6.31.79.57-.37,1.09-1.56,1.84-.55s-.44,1.58-1.09,2A4.16,4.16,0,0,1,121.56,252.78Z" transform="translate(-10.07 -47)"/><path class="cls-6" d="M230.07,253c0-4-.12-7.43.06-10.89.07-1.3-1.34-3.47,1.82-3.6,5.65-.23,7.79.55,8.18,3.54.36,2.73-1.06,4.88-3.82,4.71-3.69-.22-5.49.75-4.72,4.7a.92.92,0,0,1-.21.61A9.94,9.94,0,0,1,230.07,253Zm4.23-7.68c2.12.15,4.29.16,4.4-2.43s-2-3-4.18-3c-1.82,0-3.16-.07-3,2.54C231.63,244.61,231.88,246,234.3,245.32Z" transform="translate(-10.07 -47)"/><path class="cls-6" d="M242.87,252.41c0-4.27,0-8.54,0-12.8,0-.21,0-.56.17-.6,2.25-.89,4.6-.5,6.87-.31a3.41,3.41,0,0,1,3,3.18c.47,2.83-1,5.07-4,4.9-3.56-.22-5.26.71-4.57,4.5.07.35-.26.77-.4,1.16Zm4.39-7.09c2.18.19,4.25,0,4.22-2.6,0-2.74-2.25-2.71-4.36-2.84s-2.81.49-2.84,2.73C244.26,245.1,245.15,245.8,247.26,245.32Z" transform="translate(-10.07 -47)"/><path class="cls-1" d="M150,134.34c-4.31-.28-8.24-2-12.23-3.42,1-.49,1.91-1,2.92-1.45C148,126.57,148,126.59,150,134.34Z" transform="translate(-10.07 -47)"/><path class="cls-13" d="M268.43,245.33c0-1.34-.09-2.7,0-4,.09-1-.71-2.65,1-2.63,1.39,0,.8,1.59.83,2.48a61.41,61.41,0,0,1,0,7c-.18,2.12.56,2.82,2.62,2.57a30.1,30.1,0,0,1,4,0c.68,0,1.49.11,1.44,1s-.86.87-1.54.9h-.34C268.43,253.36,268.43,253.36,268.43,245.33Z" transform="translate(-10.07 -47)"/><path class="cls-11" d="M154.69,238.76h10c-.05.44-.08.83-.09.83-4.25-.27-4.2,2.45-3.94,5.48.16,2,0,4,0,6,0,.61-.19,1.25-.79,1.31-.84.08-1-.66-1-1.35,0-2.58-.12-5.16,0-7.72.12-2.31-.13-4-3.08-3.41C155.39,240,154.94,239.83,154.69,238.76Z" transform="translate(-10.07 -47)"/></svg>