<svg id="Layer_1" data-name="Layer 1" xmlns="http://www.w3.org/2000/svg" viewBox="0 0 284 281.29"><defs><style>.cls-1{fill:#010101;}.cls-2{fill:#466979;}.cls-3{fill:#537181;}.cls-4{fill:#4aa0bd;}.cls-5{fill:#3399b8;}</style></defs><title>ids groupe</title><path class="cls-1" d="M88.55,279.14c-1.21,0-.5,1.49-.58,2.29-.13,1.29,0,2.61,0,3.9-.14,2.82-1.44,4.28-3.73,4.29s-3.65-1.56-3.77-4.3c-.08-1.76,0-3.52,0-5.28,0-.42.13-1-.56-1s-.81.32-.79.86c.1,2.28-.27,4.59.23,6.86.69,3.14,2.33,4.14,6.17,3.83,2.16-.17,3.65-2,3.79-4.69,0-.83,0-1.68,0-2.52a8.84,8.84,0,0,0,0-2.06C89,280.55,89.93,279.08,88.55,279.14Z" transform="translate(-8 -9.35)"/><path class="cls-1" d="M99.68,279.8c0-.41-.09-.74-.6-.77s-.83.18-.83.77c0,3.29,0,6.59,0,9.88,0,.49,0,.9.71.89s.73-.39.73-.89c0-1.61,0-3.22,0-4.83Z" transform="translate(-8 -9.35)"/><path class="cls-1" d="M118.42,258.27a4,4,0,0,0,0-.69c0-1.61-.06-3.23,0-4.84,0-1.12-.21-1.67-1.51-1.64-3,.08-6,.05-9,0-.89,0-1.35.11-1.44,1.21-.15,1.81.25,2.5,2.29,2.43,5.14-.17,5.13-.05,5.14,5.06,0,1.26,0,2.35-1.25,3.21-3.82,2.65-9.87,1.68-12.53-2.12s-2.63-16,.22-19.87c2-2.71,4.8-3.48,8-2.91a6.15,6.15,0,0,1,5.41,5.47c.15,1,.5,1.37,1.6,1.38,3.09,0,3.46-.36,2.61-3.31a9.21,9.21,0,0,0-3.64-5.14,13,13,0,0,0-20.19,7.72c-.71,3.12-.35,6.27-.37,9.4-.06,9.85,5.83,15.21,15.64,14.3a12.65,12.65,0,0,0,8.2-3.73C119.28,262.48,118.09,260.25,118.42,258.27Z" transform="translate(-8 -9.35)"/><path class="cls-1" d="M129.88,284.44c-.75-.17-1.49-.36-2.21-.59a1.82,1.82,0,0,1-1.48-1.82c0-1.06.83-1.57,1.84-1.74a5,5,0,0,1,3.54.55c.37.22.76.64,1.15.07s-.15-.94-.59-1.18a6.05,6.05,0,0,0-5.31-.31,3.08,3.08,0,0,0-2.09,3A2.75,2.75,0,0,0,127,285c1.09.33,2.21.6,3.31.9s1.93.84,1.79,2.05-1.26,1.57-2.39,1.65a6.28,6.28,0,0,1-3.93-1c-.37-.24-.77-.62-1.13,0s0,.82.44,1.1a5.58,5.58,0,0,0,3.89.89c3.11,0,4.52-.8,4.62-2.61C133.73,285.4,131.81,284.89,129.88,284.44Z" transform="translate(-8 -9.35)"/><path class="cls-1" d="M116,279q-3.57-.06-7.14,0c-.45,0-1.22-.35-1.29.46-.08,1,.81.82,1.32.73,2.52-.45,3.2.72,2.85,3a14.29,14.29,0,0,0,0,2.07c0,1.38,0,2.76,0,4.14,0,.53-.1,1.16.72,1.15s.63-.71.63-1.18c0-2.53.06-5.06,0-7.59,0-1.14.21-1.75,1.48-1.56a7.07,7.07,0,0,0,1.38,0c.55,0,1.4.25,1.34-.73S116.49,279,116,279Z" transform="translate(-8 -9.35)"/><path class="cls-1" d="M15.38,251.16V239.21c0-4.46,0-4.39-4.54-4.47-1.57,0-2.06.31-2,2,.09,8.74,0,17.47,0,26.21,0,4.75,0,4.69,4.79,4.71,1.38,0,1.82-.3,1.79-1.75C15.32,261,15.38,256.07,15.38,251.16Z" transform="translate(-8 -9.35)"/><path class="cls-1" d="M62.12,136.31c8.16-3.13,16.35-6.15,24.51-9.25,6.07-2.31,12.12-4.69,18.19-7,7.39-2.75,14.77-5.52,22.17-8.23,1.35-.49.76-1.23.47-2q-13.65-36.12-27.3-72.25c-.51-1.36-1-1.48-2.33-1Q69.38,47.42,40.88,58.17a9.88,9.88,0,0,0-3.52,2.11C34,63.55,33.59,67.72,36.16,73a3.61,3.61,0,0,0,.09.67q11.67,30.84,23.33,61.68C60.15,136.84,60.83,136.8,62.12,136.31Z" transform="translate(-8 -9.35)"/><path class="cls-1" d="M81.3,251.86a22.49,22.49,0,0,0-6.82-3.23A19,19,0,0,1,69,246.27a3.47,3.47,0,0,1-.85-5c2-2.77,8.25-2.38,9.19.87.73,2.52,2,2.57,3.49,2.36a12.73,12.73,0,0,1,1.58,0c2.23.38,2.33-.79,1.9-2.48a9,9,0,0,0-3.46-5.26c-4.6-3.37-12.64-3.21-17.06.37a8.24,8.24,0,0,0,.32,13.1,25.59,25.59,0,0,0,7.47,3.48,18.43,18.43,0,0,1,4.84,2,3.77,3.77,0,0,1,1.67,3.79,3.56,3.56,0,0,1-2.49,3c-4,1.6-7.74-.13-9-4.27-.24-.81-.6-1-1.26-.88-1.76.21-3.61-.53-5.27.47-.2.12-.06.88,0,1.33a8.12,8.12,0,0,0,3.93,6.44,16.24,16.24,0,0,0,16.06.87C86.07,263.67,86.59,255.8,81.3,251.86Z" transform="translate(-8 -9.35)"/><path class="cls-1" d="M40.34,235c-4.33-.67-8.73-.14-13.09-.27-.95,0-.89.57-.89,1.21q0,15.18,0,30.36c0,1,.36,1.3,1.33,1.27,2-.06,4,0,6,0v-.08c1.84,0,3.68.09,5.51,0a12.74,12.74,0,0,0,12.22-11.81,56.28,56.28,0,0,0,.15-7.57C51.17,240.9,47.11,236.09,40.34,235Zm5.49,18.89a7.51,7.51,0,0,1-7.19,6.95c-1.08.06-2.17,0-3.25,0v0c-1.18,0-2.35,0-3.52,0-.57,0-.79-.13-.79-.75q0-8.94,0-17.88c0-.37,0-.72.53-.71,2.57.08,5.16-.23,7.71.16,4,.62,6.38,3.46,6.59,7.7A31.74,31.74,0,0,1,45.83,253.93Z" transform="translate(-8 -9.35)"/><path class="cls-1" d="M270.15,289.66c-1.71.09-1.49-1-1.37-1.9s-.82-2.54,1.3-2.45a4.56,4.56,0,0,0,1.38,0c1-.25,2.84.69,2.87-.64,0-1-1.93-.28-3-.51a1.42,1.42,0,0,0-.46,0c-1.35.14-2.25.07-2.23-1.82s.55-2.3,2.23-2.11a28.36,28.36,0,0,0,3.45,0c.46,0,1,0,1-.62s-.54-.6-1-.61c-1.92,0-3.84.06-5.75,0-1.08-.05-1.26.42-1.25,1.35,0,3,0,6,0,9,0,.48-.25,1.23.58,1.25,2.53.05,5.06,0,7.59,0,0-.26,0-.52,0-.78A19.16,19.16,0,0,0,270.15,289.66Z" transform="translate(-8 -9.35)"/><path class="cls-1" d="M225.15,131.51a1.63,1.63,0,0,0-.07-.45q-8.51-20.59-17-41.2c-.51-1.24-1.12-1.34-2.25-.81-1.8.85-3.68,1.53-5.52,2.29q-29.08,12-58.18,24c-1,.43-1.4.82-.87,2,2.4,5.3,4.71,10.65,7.06,16q11.53,26.57,23,53.16c.55,1.28,1.14,1.27,2.27.84,18.62-7.09,37.27-14.11,55.88-21.22a8.84,8.84,0,0,0,5.33-11.3Q230.4,143,225.15,131.51Z" transform="translate(-8 -9.35)"/><path class="cls-1" d="M240.33,279c-.84,0-.73.62-.73,1.13,0,1.6,0,3.21,0,4.82s0,3.06,0,4.58c0,.46,0,1,.63,1s.69-.42.69-.9c0-3.22,0-6.43,0-9.64C240.91,279.6,241,279.06,240.33,279Z" transform="translate(-8 -9.35)"/><path class="cls-1" d="M289.52,265.79c0-1.44-.45-1.83-1.85-1.8-4.07.09-8.14,0-12.21.06-1.31,0-1.73-.39-1.69-1.69.09-2.77.08-5.53,0-8.3,0-1.28.36-1.73,1.69-1.69,3.15.08,6.3,0,9.45,0,1.19,0,2.37.36,2.33-1.72,0-1.86-.86-1.91-2.25-1.88-3.14.06-6.3-.06-9.44.05-1.47,0-1.85-.45-1.78-1.84.1-2.29.11-4.61,0-6.9-.06-1.35.39-1.67,1.68-1.65,4.07.08,8.14-.07,12.21.08,1.7.06,1.55-.8,1.6-1.94s-.08-1.9-1.67-1.87c-5.6.11-11.21.09-16.82,0-1.33,0-1.68.38-1.66,1.68.06,4.91,0,9.83,0,14.74s.05,9.68,0,14.52c0,1.42.25,2,1.86,2,5.6-.11,11.21-.1,16.81,0C289.28,267.67,289.5,267.12,289.52,265.79Z" transform="translate(-8 -9.35)"/><path class="cls-1" d="M288.92,284.57l-3.1-.84A1.55,1.55,0,0,1,284.6,282a1.68,1.68,0,0,1,1.4-1.6,5,5,0,0,1,4.2.55c.32.21.66.43.93-.07s.06-.67-.27-1c-1.56-1.42-5.63-1.15-7,.49a2.75,2.75,0,0,0,1.38,4.57c1.22.43,2.52.64,3.75,1,.93.3,1.69.9,1.53,2s-1.07,1.42-2,1.55a6.26,6.26,0,0,1-4.39-1c-.44-.29-.8-.46-1.14.08s.17.77.51,1a5,5,0,0,0,3.68.9h.94c1.89.16,3.46-.37,3.83-2.41C292.34,285.93,290.77,285.07,288.92,284.57Z" transform="translate(-8 -9.35)"/><path class="cls-1" d="M214.16,279c-1.3,0-2.6,0-3.9,0s-2.45,0-3.67,0c-.46,0-1.24-.26-1.19.6s.76.58,1.27.62a2.66,2.66,0,0,0,.69,0c2-.38,2.44.62,2.3,2.42a51.7,51.7,0,0,0,0,6c0,.65-.53,1.86.58,1.86,1.3,0,.63-1.27.68-2,.11-1.44,0-2.9,0-4.36,0-3.38,0-3.39,3.3-3.92.48-.07,1-.12,1-.71S214.58,279,214.16,279Z" transform="translate(-8 -9.35)"/><path class="cls-1" d="M197.46,280.48c0-.52.33-1.37-.69-1.36s-.67.86-.68,1.38c0,2.48,0,5,0,7.91L189,279.86c-.33-.41-.62-1-1.26-.77s-.36.92-.37,1.39q0,4.38,0,8.75c0,.5-.39,1.39.71,1.31.81-.06.6-.76.6-1.24,0-2.38,0-4.76,0-7.74,2.53,3,4.68,5.6,6.82,8.18.4.49.8,1,1.51.81.91-.24.47-1,.48-1.54C197.51,286.17,197.5,283.33,197.46,280.48Z" transform="translate(-8 -9.35)"/><path class="cls-1" d="M221.89,234.72c-1.55.06-2.41.09-2.36,2.13.16,6.53.05,13.06.07,19.59a7.76,7.76,0,0,1-1.9,5.51,8.41,8.41,0,0,1-9.11,2c-3.3-1.28-4.59-3.94-4.63-7.25-.08-6.76-.09-13.52,0-20.28,0-1.61-.68-1.86-1.88-1.59-1,.23-2.77-1-2.74,1.47.08,6.91,0,13.82.06,20.74.07,5.14,2.94,9,7.57,10.39a15.78,15.78,0,0,0,9.73-.14A10.45,10.45,0,0,0,224.13,257c0-3.3,0-6.61,0-9.91s-.12-6.77.05-10.14C224.28,235.09,223.65,234.65,221.89,234.72Z" transform="translate(-8 -9.35)"/><path class="cls-1" d="M173.79,289.66c-1.46,0-1.68-.44-1.78-1.8-.16-2.13.56-2.87,2.63-2.56a16.44,16.44,0,0,0,2.53,0,.61.61,0,0,0,.66-.5c.06-.5-.31-.64-.72-.64a24.82,24.82,0,0,0-3.45,0c-1.68.22-1.65-.76-1.59-1.92s-.32-2.22,1.5-2c1.44.14,2.91,0,4.37,0,.42,0,.79-.15.85-.58.09-.72-.5-.64-.93-.64-2.07,0-4.13,0-6.2,0-.89,0-1,.45-1,1.14,0,3.14,0,6.28,0,9.42,0,.45-.08,1,.6,1,2.54,0,5.09,0,7.64,0,0-.24,0-.48,0-.73A15.63,15.63,0,0,0,173.79,289.66Z" transform="translate(-8 -9.35)"/><path class="cls-1" d="M154.55,181.27q-9.72-25.58-19.45-51.14c-1.14-3.08-2.33-6.13-3.4-9.23-.41-1.17-.85-1.56-2.14-1-3.81,1.56-7.67,3-11.52,4.46-9.81,3.69-19.63,7.35-29.43,11.08-8.14,3.1-16.26,6.29-24.38,9.43-1.74.52-.38,1.54-.18,2.08q12.08,32.16,24.28,64.28a5.92,5.92,0,0,0,1.73,2.92c2.81,3.35,6.47,4.51,10.48,3,19.16-7.19,38.28-14.47,57.43-21.68,1.27-.48,1.62-1,1.08-2.37C157.49,189.17,156.05,185.21,154.55,181.27Z" transform="translate(-8 -9.35)"/><path class="cls-2" d="M174,9.35c4,1.44,6,4.48,7.42,8.35q11.53,30.92,23.38,61.69c.79,2.07.44,2.8-1.63,3.58q-31.63,11.86-63.19,24c-1.46.56-2.17.64-2.82-1.1q-13.41-35.72-27-71.38c-.66-1.73-.51-2.37,1.35-3.06,18.52-6.93,37-14,55.47-21,.69-.26,1.53-.27,1.95-1.05Z" transform="translate(-8 -9.35)"/><path class="cls-1" d="M8,279c1.61,0,3.22-.08,4.83,0a3.81,3.81,0,0,1,3.74,3.87c0,2.07-1.58,3.49-4,3.52a3.53,3.53,0,0,1-.46,0c-2.16-.37-3.34.26-2.84,2.71.21,1-.12,1.66-1.32,1.42Zm1.34,3.66c.08,1.29-.64,3,1.94,2.74s4.09-.94,3.9-2.75c-.25-2.39-2.08-2.31-3.9-2.51C9,279.93,9.26,281.3,9.34,282.7Z" transform="translate(-8 -9.35)"/><path class="cls-3" d="M64.23,144.85c8.12-3.14,16.24-6.33,24.38-9.43,9.8-3.73,19.62-7.39,29.43-11.08.21.21.38.52.63.62a131,131,0,0,0,16.43,5.17q9.72,25.56,19.45,51.14c1.5,3.94,2.94,7.9,4.5,11.81.53,1.32.19,1.89-1.08,2.37-19.15,7.21-38.27,14.49-57.43,21.68-4,1.51-7.67.35-10.48-3a5.77,5.77,0,0,0-.46-2.45c-1.73-4.33-3.39-8.69-5.06-13C79.1,184.45,73.62,170.26,68.25,156,66.85,152.34,65,148.78,64.23,144.85Z" transform="translate(-8 -9.35)"/><path class="cls-2" d="M36.16,73c-2.57-5.25-2.17-9.42,1.2-12.69a9.88,9.88,0,0,1,3.52-2.11q28.48-10.79,57-21.61c1.28-.49,1.82-.37,2.33,1q13.61,36.14,27.3,72.25c.29.76.88,1.5-.47,2-7.4,2.71-14.78,5.48-22.17,8.23,0-.76-.59-1-1.16-1.27A206.13,206.13,0,0,1,81.11,107,231,231,0,0,1,38.19,74.35C37.6,73.78,37.13,73,36.16,73Z" transform="translate(-8 -9.35)"/><path class="cls-4" d="M225.15,131.51q5.25,11.49,9.68,23.32a8.84,8.84,0,0,1-5.33,11.3c-18.61,7.11-37.26,14.13-55.88,21.22-1.13.43-1.72.44-2.27-.84q-11.47-26.61-23-53.16a8.62,8.62,0,0,1,1.14.07,168.5,168.5,0,0,0,29,3.13c5,.15,10.07,0,15.12-.35,6.24-.43,12.43-1.11,18.58-2.15C216.51,133.31,220.82,132.37,225.15,131.51Z" transform="translate(-8 -9.35)"/><path class="cls-5" d="M225.15,131.51c-4.33.86-8.64,1.8-13,2.54-6.15,1-12.34,1.72-18.58,2.15-5.05.34-10.08.5-15.12.35a168.5,168.5,0,0,1-29-3.13,8.62,8.62,0,0,0-1.14-.07c-2.35-5.33-4.66-10.68-7.06-16-.53-1.16-.17-1.55.87-2q29.1-12,58.18-24c1.84-.76,3.72-1.44,5.52-2.29,1.13-.53,1.74-.43,2.25.81q8.48,20.61,17,41.2A1.63,1.63,0,0,1,225.15,131.51Z" transform="translate(-8 -9.35)"/><path class="cls-3" d="M36.16,73c1,0,1.44.81,2,1.38A231,231,0,0,0,81.11,107a206.13,206.13,0,0,0,22.55,11.75c.57.25,1.14.51,1.16,1.27-6.07,2.35-12.12,4.73-18.19,7-8.16,3.1-16.35,6.12-24.51,9.25-1.29.49-2,.53-2.54-1Q48,104.45,36.25,73.64A3.61,3.61,0,0,1,36.16,73Z" transform="translate(-8 -9.35)"/><path class="cls-1" d="M80.85,244.46c-1.47.21-2.76.16-3.49-2.36-.94-3.25-7.16-3.64-9.19-.87a3.47,3.47,0,0,0,.85,5,19,19,0,0,0,5.46,2.36,22.49,22.49,0,0,1,6.82,3.23c5.29,3.94,4.77,11.81-1.18,14.62a16.24,16.24,0,0,1-16.06-.87,8.12,8.12,0,0,1-3.93-6.44c-.05-.45-.19-1.21,0-1.33,1.66-1,3.51-.26,5.27-.47.66-.08,1,.07,1.26.88,1.21,4.14,5,5.87,9,4.27a3.56,3.56,0,0,0,2.49-3,3.77,3.77,0,0,0-1.67-3.79,18.43,18.43,0,0,0-4.84-2,25.59,25.59,0,0,1-7.47-3.48,8.24,8.24,0,0,1-.32-13.1c4.42-3.58,12.46-3.74,17.06-.37A9,9,0,0,1,84.33,242c.43,1.69.33,2.86-1.9,2.48A12.73,12.73,0,0,0,80.85,244.46Z" transform="translate(-8 -9.35)"/><path class="cls-1" d="M148.18,251.61c3.42,1.41,4.41,4.23,4.52,7.58.09,2.77-.6,5.69,2,8.41-1.94,0-3.29,0-4.64,0-1.1,0-1.27-.89-1.53-1.71-.63-1.95-.32-4-.36-5.94-.08-4.47-2-6.44-6.47-6.46-1.61,0-3.23.08-4.84,0-1.38-.09-1.87.32-1.83,1.78.1,3.61-.07,7.22.07,10.82.08,2-1.18,1.61-2.23,1.52s-2.52.81-2.51-1.47c.08-9.9,0-19.8,0-29.7,0-.75-.15-1.61,1.07-1.56,4.52.15,9.07-.39,13.56.3,3.9.59,6.67,2.57,7.51,6.67.81,3.95-.25,7.12-3.83,9.25C148.49,251.16,148.38,251.39,148.18,251.61ZM135.11,244H135c0,1.53,0,3.07,0,4.6,0,1,.36,1.35,1.35,1.31a54.31,54.31,0,0,0,7.1-.27c3.37-.58,4.79-2.36,4.66-5.93a5.09,5.09,0,0,0-5-5.2,16.44,16.44,0,0,0-2.53,0c-1.82.11-4.24-.81-5.28.39C134.42,239.88,135.11,242.24,135.11,244Z" transform="translate(-8 -9.35)"/><path class="cls-1" d="M118.43,257.58a4,4,0,0,1,0,.69c-.33,2,.86,4.21-.82,5.94a12.65,12.65,0,0,1-8.2,3.73c-9.81.91-15.7-4.45-15.64-14.3,0-3.13-.34-6.28.37-9.4a13,13,0,0,1,20.19-7.72,9.21,9.21,0,0,1,3.64,5.14c.85,3,.48,3.34-2.61,3.31-1.1,0-1.45-.38-1.6-1.38a6.15,6.15,0,0,0-5.41-5.47c-3.15-.57-5.94.2-8,2.91-2.85,3.84-3,15.94-.22,19.87s8.71,4.77,12.53,2.12c1.23-.86,1.26-1.95,1.25-3.21,0-5.11,0-5.23-5.14-5.06-2,.07-2.44-.62-2.29-2.43.09-1.1.55-1.22,1.44-1.21,3,0,6,.07,9,0,1.3,0,1.56.52,1.51,1.64C118.37,254.35,118.43,256,118.43,257.58Z" transform="translate(-8 -9.35)"/><path class="cls-1" d="M189.17,251.56c-.11,1.73.17,3.88-.31,6-1.53,6.79-6.8,10.78-13.91,10.43A12.42,12.42,0,0,1,163,256.19a39,39,0,0,1,.25-11.47c1.47-6.92,6.95-11,13.87-10.35a13,13,0,0,1,12,12.64C189.22,248.39,189.17,249.77,189.17,251.56Zm-21.66-.49c0,1.61-.11,3.23,0,4.82.4,4.88,3.76,8.33,8.08,8.39a8.53,8.53,0,0,0,8.86-8.11,59.14,59.14,0,0,0,0-9.87,8.64,8.64,0,0,0-8.82-8.21c-4.32.1-7.72,3.55-8.13,8.39C167.41,248,167.52,249.54,167.51,251.07Z" transform="translate(-8 -9.35)"/><path class="cls-1" d="M269.12,251.16c0-4.91,0-9.83,0-14.74,0-1.3.33-1.7,1.66-1.68,5.61.07,11.22.09,16.82,0,1.59,0,1.72.61,1.67,1.87s.1,2-1.6,1.94c-4.07-.15-8.14,0-12.21-.08-1.29,0-1.74.3-1.68,1.65.12,2.29.11,4.61,0,6.9-.07,1.39.31,1.89,1.78,1.84,3.14-.11,6.3,0,9.44-.05,1.39,0,2.22,0,2.25,1.88,0,2.08-1.14,1.72-2.33,1.72-3.15,0-6.3.06-9.45,0-1.33,0-1.72.41-1.69,1.69.08,2.77.09,5.53,0,8.3,0,1.3.38,1.71,1.69,1.69,4.07-.08,8.14,0,12.21-.06,1.4,0,1.87.36,1.85,1.8s-.24,1.88-1.76,1.86c-5.6-.1-11.21-.11-16.81,0-1.61,0-1.88-.55-1.86-2C269.17,260.84,269.12,256,269.12,251.16Z" transform="translate(-8 -9.35)"/><path class="cls-1" d="M224.14,247.1c0,3.3,0,6.61,0,9.91a10.45,10.45,0,0,1-7.42,10.25,15.78,15.78,0,0,1-9.73.14c-4.63-1.39-7.5-5.25-7.57-10.39-.1-6.92,0-13.83-.06-20.74,0-2.5,1.73-1.24,2.74-1.47,1.2-.27,1.91,0,1.88,1.6-.1,6.75-.09,13.51,0,20.27,0,3.31,1.33,6,4.63,7.25a8.41,8.41,0,0,0,9.11-2,7.76,7.76,0,0,0,1.9-5.51c0-6.53.09-13.06-.07-19.59-.05-2,.81-2.07,2.36-2.13,1.76-.07,2.39.37,2.3,2.24C224,240.33,224.14,243.72,224.14,247.1Z" transform="translate(-8 -9.35)"/><path class="cls-1" d="M235.48,251.09c0-4.76.06-9.52,0-14.28,0-1.53.26-2.17,2-2.07,4.66.28,9.37-.45,14,.44,5,1,7.82,4.59,7.76,9.63a9.2,9.2,0,0,1-8.05,9.41c-3.13.56-6.28.29-9.42.28-1.42,0-1.83.38-1.78,1.8.11,3,0,6,.06,9,0,1.53,0,2.54-2.08,2.41-1.73-.11-2.57-.21-2.48-2.31C235.61,260.61,235.48,255.85,235.48,251.09Zm4.49-6.73c0,1.89.09,3.43,0,4.95s.46,1.67,1.71,1.62c2.22-.09,4.44,0,6.66,0,3.84-.09,6.27-2.48,6.31-6.13s-2.46-6.25-6.35-6.3c-.69,0-1.38,0-2.07,0-2,0-4.63-.68-5.79.32C239.07,240,240.16,242.68,240,244.36Z" transform="translate(-8 -9.35)"/><path class="cls-1" d="M15.38,251.16c0,4.91-.06,9.81,0,14.72,0,1.45-.41,1.75-1.79,1.75-4.79,0-4.79,0-4.79-4.71,0-8.74.05-17.47,0-26.21,0-1.66.47-2,2-2,4.54.08,4.54,0,4.54,4.47Z" transform="translate(-8 -9.35)"/><path class="cls-2" d="M135.1,130.13A131,131,0,0,1,118.67,125c-.25-.1-.42-.41-.63-.62,3.85-1.48,7.71-2.9,11.52-4.46,1.29-.54,1.73-.15,2.14,1C132.77,124,134,127.05,135.1,130.13Z" transform="translate(-8 -9.35)"/><path class="cls-3" d="M64.23,144.85c.8,3.93,2.62,7.49,4,11.19,5.37,14.22,10.85,28.41,16.29,42.6,1.67,4.35,3.33,8.71,5.06,13a5.77,5.77,0,0,1,.46,2.45,5.92,5.92,0,0,1-1.73-2.92q-12.18-32.13-24.28-64.28C63.85,146.39,62.49,145.37,64.23,144.85Z" transform="translate(-8 -9.35)"/><path class="cls-1" d="M60.91,285c0-.46,0-.93,0-1.39.15-1.49-.72-3.74.37-4.32,1.56-.81,3.75-.48,5.62,0,3,.8,4.34,3.33,3.85,6.89a5,5,0,0,1-5.28,4.39c-4.56.06-4.56.06-4.56-4.44Zm3.35-4.76c-1.46-.33-2.1.26-2,2,.17,2,0,4.11,0,6.17,0,.64,0,1.08.89,1.21,3.37.49,5.91-1.14,6.23-4.14C69.81,282.23,68,280.31,64.26,280.23Z" transform="translate(-8 -9.35)"/><path class="cls-1" d="M188.65,281.56c0,3,0,5.36,0,7.74,0,.48.21,1.18-.6,1.24-1.1.08-.7-.81-.71-1.31q0-4.37,0-8.75c0-.47-.35-1.15.37-1.39s.93.36,1.26.77l7.11,8.55c0-3,0-5.43,0-7.91,0-.52-.33-1.37.68-1.38s.69.84.69,1.36c0,2.85,0,5.69,0,8.53,0,.52.43,1.3-.48,1.54-.71.18-1.11-.32-1.51-.81C193.33,287.16,191.18,284.59,188.65,281.56Z" transform="translate(-8 -9.35)"/><path class="cls-1" d="M46.67,290.58a5.41,5.41,0,0,1-5.5-5.72,5.72,5.72,0,1,1,11.44-.05C52.6,287.87,50.26,291.15,46.67,290.58ZM51.23,285a4.36,4.36,0,1,0-4.45,4.61A4.63,4.63,0,0,0,51.23,285Z" transform="translate(-8 -9.35)"/><path class="cls-1" d="M152.34,284.67a6.29,6.29,0,0,1,0-1.15c.3-1.48-.91-3.93.63-4.29,2.55-.61,5.52-.78,7.78,1.4a6.29,6.29,0,0,1,1.11,6.84,5,5,0,0,1-5.08,3.13c-4.45,0-4.45,0-4.45-4.33Zm1.36.14c0,1.23,0,2.45,0,3.67,0,.42-.14.87.46,1.13,1.68.71,5.21-.45,6.16-2.07a5,5,0,0,0-1.24-6.57,5.7,5.7,0,0,0-4.86-.58c-1.15.36-.34,2-.51,3.05A7,7,0,0,0,153.7,284.81Z" transform="translate(-8 -9.35)"/><path class="cls-1" d="M33.51,290.34a1.24,1.24,0,0,1-1.88-.51,13.32,13.32,0,0,1-1.24-1.92c-.71-1.87-2.28-1.64-3.65-1.42s-.44,1.61-.74,2.42c-.2.55.47,1.57-.62,1.62s-.71-1-.72-1.55c0-2.84,0-5.67,0-8.5,0-1,.2-1.57,1.37-1.49,1.38.1,2.76,0,4.14.08a3.47,3.47,0,0,1,3.05,2.44c.5,1.27.48,2.87-.65,3.6-1.86,1.21-1.1,2.17-.21,3.36C32.73,289,33.06,289.62,33.51,290.34ZM26,282.49c0,1.59-.58,3.17,2,2.95,2.83-.24,4-.76,4-2.58s-1.13-2.46-3.92-2.68C25.84,280,25.81,281.16,26,282.49Z" transform="translate(-8 -9.35)"/><path class="cls-1" d="M258.94,290.35c-1.27.57-1.7-.15-2.16-.9a14,14,0,0,0-1.8-2.64c-.84-.83-2.1-.51-3-.28s-.28,1.43-.52,2.16.59,1.79-.62,1.82-.69-1.14-.7-1.78c-.07-2.75,0-5.51,0-8.27,0-1,.23-1.54,1.39-1.47,1.37.1,2.76,0,4.13.08a3.47,3.47,0,0,1,3,2.47c.47,1.28.48,2.88-.66,3.6-1.93,1.22-1.11,2.17-.18,3.35C258.18,289,258.49,289.64,258.94,290.35Zm-7.46-7.6c-.23,1.57-.36,3,2.11,2.68,1.8-.22,3.64-.12,3.83-2.54.14-1.83-1.14-2.49-3.88-2.71C251.35,280,251.19,281.08,251.48,282.75Z" transform="translate(-8 -9.35)"/><path class="cls-1" d="M275.61,290.58c-2.53,0-5.06,0-7.59,0-.83,0-.58-.77-.58-1.25,0-3,0-6,0-9,0-.93.17-1.4,1.25-1.35,1.91.08,3.83,0,5.75,0,.43,0,1-.09,1,.61s-.57.62-1,.62a28.36,28.36,0,0,1-3.45,0c-1.68-.19-2.2.34-2.23,2.11s.88,2,2.23,1.82a1.42,1.42,0,0,1,.46,0c1,.23,3-.51,3,.51,0,1.33-1.86.39-2.87.64a4.56,4.56,0,0,1-1.38,0c-2.12-.09-1.18,1.52-1.3,2.45s-.34,2,1.37,1.9a19.16,19.16,0,0,1,5.45.14Z" transform="translate(-8 -9.35)"/><path class="cls-1" d="M129,290.58a5.63,5.63,0,0,1-3.89-.89c-.4-.28-.75-.58-.44-1.1s.76-.22,1.13,0a6.28,6.28,0,0,0,3.93,1c1.13-.08,2.23-.32,2.39-1.65s-.75-1.76-1.79-2.05-2.22-.57-3.31-.9a2.75,2.75,0,0,1-2.26-2.58,3.08,3.08,0,0,1,2.09-3,6.05,6.05,0,0,1,5.31.31c.44.24,1.08.47.59,1.18s-.78.15-1.15-.07a5,5,0,0,0-3.54-.55c-1,.17-1.79.68-1.84,1.74a1.82,1.82,0,0,0,1.48,1.82c.72.23,1.46.42,2.21.59,1.93.45,3.85,1,3.71,3.53C133.49,289.78,132.08,290.58,129,290.58Z" transform="translate(-8 -9.35)"/><path class="cls-1" d="M287.17,290.58a5,5,0,0,1-3.68-.9c-.34-.26-.88-.44-.51-1s.7-.37,1.14-.08a6.26,6.26,0,0,0,4.39,1c.95-.13,1.86-.47,2-1.55s-.6-1.71-1.53-2c-1.23-.41-2.53-.62-3.75-1a2.75,2.75,0,0,1-1.38-4.57c1.36-1.64,5.43-1.91,7-.49.33.3.5.55.27,1s-.61.28-.93.07a5,5,0,0,0-4.2-.55,1.68,1.68,0,0,0-1.4,1.6,1.55,1.55,0,0,0,1.22,1.72l3.1.84c1.85.5,3.42,1.36,3,3.6-.37,2-1.94,2.57-3.83,2.41Z" transform="translate(-8 -9.35)"/><path class="cls-1" d="M89.24,283.37c0,.84,0,1.69,0,2.52-.14,2.7-1.63,4.52-3.79,4.69-3.84.31-5.48-.69-6.17-3.83-.5-2.27-.13-4.58-.23-6.86,0-.54.19-.89.78-.86s.57.59.57,1c0,1.76,0,3.52,0,5.28.12,2.74,1.54,4.3,3.77,4.3s3.59-1.47,3.73-4.29c.06-1.29-.08-2.61,0-3.9.08-.8-.63-2.25.58-2.29,1.38-.06.47,1.41.66,2.17A8.84,8.84,0,0,1,89.24,283.37Z" transform="translate(-8 -9.35)"/><path class="cls-1" d="M220.79,290.33q2.21-5.16,4.43-10.3c.2-.44.31-1,1.05-1s.8.64,1,1.09c1.3,2.94,2.59,5.88,3.81,8.85.19.47,1,1.11.23,1.56s-1.3-.25-1.45-1c-.44-2-1.69-2.5-3.67-2.44-1.78.06-3.08.27-3.53,2.27C222.49,290.17,222.05,291,220.79,290.33Zm7.61-4.41c-.71-1.69-1.37-3.25-2.12-5a21.14,21.14,0,0,0-2.06,5Z" transform="translate(-8 -9.35)"/><path class="cls-1" d="M179,290.57c-2.55,0-5.1,0-7.64,0-.68,0-.6-.55-.6-1,0-3.14,0-6.28,0-9.42,0-.69.07-1.16,1-1.14,2.07,0,4.13,0,6.2,0,.43,0,1-.08.93.64-.06.43-.43.58-.85.58-1.46,0-2.93.12-4.37,0-1.82-.19-1.45,1-1.5,2s-.09,2.14,1.59,1.92a24.82,24.82,0,0,1,3.45,0c.41,0,.78.14.72.64a.61.61,0,0,1-.66.5,16.44,16.44,0,0,1-2.53,0c-2.07-.31-2.79.43-2.63,2.56.1,1.36.32,1.85,1.78,1.8a15.63,15.63,0,0,1,5.15.18Z" transform="translate(-8 -9.35)"/><path class="cls-1" d="M210.26,279c1.3,0,2.6,0,3.9,0,.42,0,1-.15,1.05.52s-.48.64-1,.71c-3.3.53-3.3.54-3.3,3.92,0,1.46.08,2.92,0,4.36,0,.69.62,2-.68,2-1.11,0-.56-1.21-.58-1.86a51.7,51.7,0,0,1,0-6c.14-1.8-.27-2.8-2.3-2.42a2.66,2.66,0,0,1-.69,0c-.51,0-1.22.12-1.27-.62s.73-.58,1.19-.6C207.81,279,209,279,210.26,279Z" transform="translate(-8 -9.35)"/><path class="cls-1" d="M111.76,285.28a14.29,14.29,0,0,1,0-2.07c.35-2.27-.33-3.44-2.85-3-.51.09-1.4.26-1.32-.73.07-.81.84-.46,1.29-.46q3.57-.06,7.14,0c.45,0,1.22-.37,1.27.48s-.79.69-1.34.73a7.07,7.07,0,0,1-1.38,0c-1.27-.19-1.51.42-1.48,1.56.07,2.53,0,5.06,0,7.59,0,.47.26,1.17-.63,1.18s-.72-.62-.72-1.15C111.76,288,111.76,286.66,111.76,285.28Z" transform="translate(-8 -9.35)"/><path class="cls-1" d="M99.69,284.85v4.83c0,.5-.09.89-.73.89s-.71-.4-.71-.89c0-3.29,0-6.59,0-9.88,0-.59.26-.8.83-.77s.6.36.6.77C99.68,281.49,99.68,283.17,99.69,284.85Z" transform="translate(-8 -9.35)"/><path class="cls-1" d="M239.59,285c0-1.61,0-3.22,0-4.82,0-.51-.11-1.16.73-1.13.68,0,.58.57.58,1,0,3.21,0,6.42,0,9.64,0,.48,0,.94-.69.9s-.63-.55-.63-1C239.59,288,239.59,286.51,239.59,285Z" transform="translate(-8 -9.35)"/></svg>